<svg xmlns="http://www.w3.org/2000/svg" viewBox="0 0 88.62 47.14"><defs><style>.cls-1{fill:#707071;}</style></defs><title>sekhar arrow</title><g id="Layer_2" data-name="Layer 2"><g id="Layer_1-2" data-name="Layer 1"><path class="cls-1" d="M2.3,0C4.72.25,5.51,1.67,6.54,2.69c11.69,11.63,23.41,23.21,35,35,2.41,2.47,3.76,2.58,6.23,0C59,26.17,70.48,14.81,81.92,3.41c1.59-1.58,3.37-4.17,5.75-1.75s-.19,4.16-1.8,5.77c-12.46,12.48-25,24.89-37.37,37.49-2.89,2.94-4.88,3-7.79,0C28,32,15.08,19.25,2.24,6.43.94,5.14-.62,3.91.25,1.75.72.6,1.65-.11,2.3,0Z"/></g></g></svg>