<svg width="45" height="16" viewBox="0 0 45 16" fill="none" xmlns="http://www.w3.org/2000/svg">
<g clip-path="url(#clip0)">
<path d="M1.5 3.35425C2.32843 3.35425 3 2.68268 3 1.85425C3 1.02582 2.32843 0.354248 1.5 0.354248C0.671573 0.354248 0 1.02582 0 1.85425C0 2.68268 0.671573 3.35425 1.5 3.35425Z" fill="#055CA8" fill-opacity="0.5"/>
<path d="M1.5 9.35425C2.32843 9.35425 3 8.68268 3 7.85425C3 7.02582 2.32843 6.35425 1.5 6.35425C0.671573 6.35425 0 7.02582 0 7.85425C0 8.68268 0.671573 9.35425 1.5 9.35425Z" fill="#055CA8" fill-opacity="0.5"/>
<path d="M1.5 15.3542C2.32843 15.3542 3 14.6827 3 13.8542C3 13.0258 2.32843 12.3542 1.5 12.3542C0.671573 12.3542 0 13.0258 0 13.8542C0 14.6827 0.671573 15.3542 1.5 15.3542Z" fill="#055CA8" fill-opacity="0.5"/>
<path d="M7.5 3.35425C8.32843 3.35425 9 2.68268 9 1.85425C9 1.02582 8.32843 0.354248 7.5 0.354248C6.67157 0.354248 6 1.02582 6 1.85425C6 2.68268 6.67157 3.35425 7.5 3.35425Z" fill="#055CA8" fill-opacity="0.5"/>
<path d="M7.5 9.35425C8.32843 9.35425 9 8.68268 9 7.85425C9 7.02582 8.32843 6.35425 7.5 6.35425C6.67157 6.35425 6 7.02582 6 7.85425C6 8.68268 6.67157 9.35425 7.5 9.35425Z" fill="#055CA8" fill-opacity="0.5"/>
<path d="M7.5 15.3542C8.32843 15.3542 9 14.6827 9 13.8542C9 13.0258 8.32843 12.3542 7.5 12.3542C6.67157 12.3542 6 13.0258 6 13.8542C6 14.6827 6.67157 15.3542 7.5 15.3542Z" fill="#055CA8" fill-opacity="0.5"/>
</g>
<g clip-path="url(#clip1)">
<path d="M25.5 3.35425C26.3284 3.35425 27 2.68268 27 1.85425C27 1.02582 26.3284 0.354248 25.5 0.354248C24.6716 0.354248 24 1.02582 24 1.85425C24 2.68268 24.6716 3.35425 25.5 3.35425Z" fill="#055CA8" fill-opacity="0.5"/>
<path d="M25.5 9.35425C26.3284 9.35425 27 8.68268 27 7.85425C27 7.02582 26.3284 6.35425 25.5 6.35425C24.6716 6.35425 24 7.02582 24 7.85425C24 8.68268 24.6716 9.35425 25.5 9.35425Z" fill="#055CA8" fill-opacity="0.5"/>
<path d="M25.5 15.3542C26.3284 15.3542 27 14.6827 27 13.8542C27 13.0258 26.3284 12.3542 25.5 12.3542C24.6716 12.3542 24 13.0258 24 13.8542C24 14.6827 24.6716 15.3542 25.5 15.3542Z" fill="#055CA8" fill-opacity="0.5"/>
<path d="M31.5 3.35425C32.3284 3.35425 33 2.68268 33 1.85425C33 1.02582 32.3284 0.354248 31.5 0.354248C30.6716 0.354248 30 1.02582 30 1.85425C30 2.68268 30.6716 3.35425 31.5 3.35425Z" fill="#055CA8" fill-opacity="0.5"/>
<path d="M31.5 9.35425C32.3284 9.35425 33 8.68268 33 7.85425C33 7.02582 32.3284 6.35425 31.5 6.35425C30.6716 6.35425 30 7.02582 30 7.85425C30 8.68268 30.6716 9.35425 31.5 9.35425Z" fill="#055CA8" fill-opacity="0.5"/>
<path d="M31.5 15.3542C32.3284 15.3542 33 14.6827 33 13.8542C33 13.0258 32.3284 12.3542 31.5 12.3542C30.6716 12.3542 30 13.0258 30 13.8542C30 14.6827 30.6716 15.3542 31.5 15.3542Z" fill="#055CA8" fill-opacity="0.5"/>
</g>
<g clip-path="url(#clip2)">
<path d="M13.5 3.35425C14.3284 3.35425 15 2.68268 15 1.85425C15 1.02582 14.3284 0.354248 13.5 0.354248C12.6716 0.354248 12 1.02582 12 1.85425C12 2.68268 12.6716 3.35425 13.5 3.35425Z" fill="#055CA8" fill-opacity="0.5"/>
<path d="M13.5 9.35425C14.3284 9.35425 15 8.68268 15 7.85425C15 7.02582 14.3284 6.35425 13.5 6.35425C12.6716 6.35425 12 7.02582 12 7.85425C12 8.68268 12.6716 9.35425 13.5 9.35425Z" fill="#055CA8" fill-opacity="0.5"/>
<path d="M13.5 15.3542C14.3284 15.3542 15 14.6827 15 13.8542C15 13.0258 14.3284 12.3542 13.5 12.3542C12.6716 12.3542 12 13.0258 12 13.8542C12 14.6827 12.6716 15.3542 13.5 15.3542Z" fill="#055CA8" fill-opacity="0.5"/>
<path d="M19.5 3.35425C20.3284 3.35425 21 2.68268 21 1.85425C21 1.02582 20.3284 0.354248 19.5 0.354248C18.6716 0.354248 18 1.02582 18 1.85425C18 2.68268 18.6716 3.35425 19.5 3.35425Z" fill="#055CA8" fill-opacity="0.5"/>
<path d="M19.5 9.35425C20.3284 9.35425 21 8.68268 21 7.85425C21 7.02582 20.3284 6.35425 19.5 6.35425C18.6716 6.35425 18 7.02582 18 7.85425C18 8.68268 18.6716 9.35425 19.5 9.35425Z" fill="#055CA8" fill-opacity="0.5"/>
<path d="M19.5 15.3542C20.3284 15.3542 21 14.6827 21 13.8542C21 13.0258 20.3284 12.3542 19.5 12.3542C18.6716 12.3542 18 13.0258 18 13.8542C18 14.6827 18.6716 15.3542 19.5 15.3542Z" fill="#055CA8" fill-opacity="0.5"/>
</g>
<g clip-path="url(#clip3)">
<path d="M37.5 3.35425C38.3284 3.35425 39 2.68268 39 1.85425C39 1.02582 38.3284 0.354248 37.5 0.354248C36.6716 0.354248 36 1.02582 36 1.85425C36 2.68268 36.6716 3.35425 37.5 3.35425Z" fill="#055CA8" fill-opacity="0.5"/>
<path d="M37.5 9.35425C38.3284 9.35425 39 8.68268 39 7.85425C39 7.02582 38.3284 6.35425 37.5 6.35425C36.6716 6.35425 36 7.02582 36 7.85425C36 8.68268 36.6716 9.35425 37.5 9.35425Z" fill="#055CA8" fill-opacity="0.5"/>
<path d="M37.5 15.3542C38.3284 15.3542 39 14.6827 39 13.8542C39 13.0258 38.3284 12.3542 37.5 12.3542C36.6716 12.3542 36 13.0258 36 13.8542C36 14.6827 36.6716 15.3542 37.5 15.3542Z" fill="#055CA8" fill-opacity="0.5"/>
<path d="M43.5 3.35425C44.3284 3.35425 45 2.68268 45 1.85425C45 1.02582 44.3284 0.354248 43.5 0.354248C42.6716 0.354248 42 1.02582 42 1.85425C42 2.68268 42.6716 3.35425 43.5 3.35425Z" fill="#055CA8" fill-opacity="0.5"/>
<path d="M43.5 9.35425C44.3284 9.35425 45 8.68268 45 7.85425C45 7.02582 44.3284 6.35425 43.5 6.35425C42.6716 6.35425 42 7.02582 42 7.85425C42 8.68268 42.6716 9.35425 43.5 9.35425Z" fill="#055CA8" fill-opacity="0.5"/>
<path d="M43.5 15.3542C44.3284 15.3542 45 14.6827 45 13.8542C45 13.0258 44.3284 12.3542 43.5 12.3542C42.6716 12.3542 42 13.0258 42 13.8542C42 14.6827 42.6716 15.3542 43.5 15.3542Z" fill="#055CA8" fill-opacity="0.5"/>
</g>
<defs>
<clipPath id="clip0">
<rect width="9" height="15" fill="white" transform="translate(0 0.354248)"/>
</clipPath>
<clipPath id="clip1">
<rect width="9" height="15" fill="white" transform="translate(24 0.354248)"/>
</clipPath>
<clipPath id="clip2">
<rect width="9" height="15" fill="white" transform="translate(12 0.354248)"/>
</clipPath>
<clipPath id="clip3">
<rect width="9" height="15" fill="white" transform="translate(36 0.354248)"/>
</clipPath>
</defs>
</svg>
