<svg xmlns="http://www.w3.org/2000/svg" viewBox="0 0 179.24 141.06"><defs><style>.cls-1{fill:#727272;}.cls-2{fill:#fff;}.cls-3{fill:#fefefd;}</style></defs><title>Sekhar</title><g id="Layer_2" data-name="Layer 2"><g id="Layer_1-2" data-name="Layer 1"><path class="cls-1" d="M88.79,141c-23.44,0-46.88.1-70.32,0C3.69,140.91.17,137.45.13,123.11.05,87.74.3,52.36,0,17-.1,5.07,4.8-.31,16.83.26a258.38,258.38,0,0,0,26.84,0c14.4-.8,28.08-.57,37,13.57,2.9,4.58,8,4,12.76,4,23.44,0,46.88.24,70.31-.13,10.76-.17,15.58,4,15.47,15q-.45,46,0,92.05c.12,11.56-5.41,16.27-16.29,16.26Q125.86,141,88.79,141Z"/><path class="cls-2" d="M89.62,129.22c-22.61,0-45.23-.41-67.83.2-9.19.24-11.58-3-11.32-11.71.58-19.18.41-38.39.06-57.58-.12-6.63,1.94-8.89,8.69-8.86q70.4.34,140.79,0c6.74,0,8.81,2.22,8.7,8.85-.35,20.05-.43,40.11,0,60.15.18,7.84-3.35,9.12-10,9C135.7,129.06,112.66,129.22,89.62,129.22Z"/><path class="cls-3" d="M89.67,39.59c-23,0-46-.59-68.93.22-13.42.48-9.72-8.35-10-15.26C10.35,17.34,9.05,9.57,21,10.9a107.27,107.27,0,0,0,22.94,0c12.38-1.28,22.55,1.91,30.17,12,3.72,4.93,8.75,5.77,14.64,5.7,23.4-.24,46.8-.19,70.21,0,3.65,0,9.23-2.29,9.54,4.82.34,7.81-5.6,6-9.87,6.08C135.62,39.66,112.64,39.59,89.67,39.59Z"/></g></g></svg>