<svg width="100" height="75" viewBox="0 0 100 75" fill="none" xmlns="http://www.w3.org/2000/svg">
<rect x="1" y="1" width="98" height="73" rx="4" stroke="#055CA8" stroke-opacity="0.5" stroke-width="2" stroke-linecap="square" stroke-dasharray="8 8 8 8 8 8"/>
<g clip-path="url(#clip0_2017_13543)">
<path d="M75 18.1594C74.971 17.2952 74.6009 16.4776 73.9707 15.8856C73.3404 15.2936 72.5013 14.9753 71.637 15.0004H28.363C27.4987 14.9753 26.6596 15.2936 26.0293 15.8856C25.3991 16.4776 25.029 17.2952 25 18.1594V21.3084C25 21.7994 26.895 21.8004 26.895 21.3084V18.1594C26.9075 17.7818 27.0692 17.4246 27.3445 17.166C27.6198 16.9074 27.9864 16.7683 28.364 16.7794H71.637C72.0146 16.7683 72.3812 16.9074 72.6565 17.166C72.9318 17.4246 73.0935 17.7818 73.106 18.1594V40.2974L69.138 37.9504C68.9251 37.8241 68.6725 37.7827 68.4304 37.8344C68.1884 37.8861 67.9747 38.0272 67.832 38.2294C67.7663 38.3283 67.7219 38.4397 67.7014 38.5566C67.681 38.6735 67.685 38.7934 67.7132 38.9086C67.7413 39.0239 67.7931 39.1321 67.8652 39.2264C67.9373 39.3207 68.0281 39.399 68.132 39.4564L73.11 42.4004V56.8414C73.0975 57.2189 72.9358 57.5762 72.6605 57.8348C72.3852 58.0934 72.0186 58.2325 71.641 58.2214H64.341V51.3014C64.3296 50.3266 64.0882 49.3683 63.6364 48.5045C63.1846 47.6407 62.5351 46.8958 61.741 46.3304L51.869 39.1744L58.232 35.7594C58.8148 35.4485 59.4675 35.2923 60.1279 35.3056C60.7883 35.3189 61.4342 35.5013 62.004 35.8354L68.127 39.4564C68.57 39.7184 69.579 38.2124 69.136 37.9504L63.013 34.3294C62.1488 33.8226 61.1691 33.546 60.1675 33.5258C59.1659 33.5057 58.1758 33.7428 57.292 34.2144L50.244 37.9964L41.787 31.8644C40.911 31.2392 39.8795 30.8675 38.8061 30.7902C37.7326 30.713 36.6585 30.9331 35.702 31.4264L26.895 35.9934V20.5174C26.895 20.0264 25 20.0254 25 20.5174V56.8404C25.029 57.7046 25.3991 58.5222 26.0293 59.1142C26.6596 59.7062 27.4987 60.0245 28.363 59.9994H71.636C72.5003 60.0245 73.3394 59.7062 73.9697 59.1142C74.5999 58.5222 74.97 57.7046 74.999 56.8404L75 18.1594ZM62.445 58.2204H28.363C27.9854 58.2315 27.6188 58.0924 27.3435 57.8338C27.0682 57.5752 26.9065 57.2179 26.894 56.8404V38.0254L36.617 32.9844C37.2478 32.6589 37.9561 32.5137 38.6641 32.5647C39.3721 32.6157 40.0523 32.8609 40.63 33.2734L60.581 47.7394C61.15 48.1446 61.6153 48.6784 61.939 49.2973C62.2627 49.9163 62.4358 50.6029 62.444 51.3014L62.445 58.2204Z" fill="#707070"/>
<path d="M64.5869 30.5128C65.671 30.5128 66.7307 30.1913 67.632 29.5891C68.5334 28.9868 69.2359 28.1308 69.6508 27.1293C70.0656 26.1278 70.1741 25.0257 69.9626 23.9625C69.7512 22.8993 69.2291 21.9227 68.4626 21.1561C67.6961 20.3896 66.7195 19.8676 65.6562 19.6561C64.593 19.4446 63.491 19.5532 62.4895 19.968C61.4879 20.3828 60.6319 21.0854 60.0297 21.9867C59.4274 22.8881 59.106 23.9477 59.106 25.0318C59.1075 26.485 59.6855 27.8781 60.7131 28.9057C61.7406 29.9332 63.1338 30.5112 64.5869 30.5128ZM64.5869 21.3778C65.3096 21.3778 66.0161 21.5921 66.617 21.9936C67.2179 22.3951 67.6862 22.9658 67.9628 23.6335C68.2394 24.3011 68.3117 25.0358 68.1707 25.7446C68.0298 26.4535 67.6817 27.1045 67.1707 27.6156C66.6597 28.1266 66.0086 28.4746 65.2998 28.6156C64.591 28.7566 63.8563 28.6842 63.1886 28.4076C62.5209 28.1311 61.9503 27.6627 61.5488 27.0618C61.1473 26.4609 60.933 25.7545 60.933 25.0318C60.9353 24.0639 61.3212 23.1364 62.0061 22.4524C62.691 21.7685 63.619 21.3838 64.5869 21.3828V21.3778Z" fill="#707070"/>
</g>
<defs>
<clipPath id="clip0_2017_13543">
<rect width="50" height="45" fill="white" transform="translate(25 15)"/>
</clipPath>
</defs>
</svg>
