<svg xmlns="http://www.w3.org/2000/svg" xmlns:xlink="http://www.w3.org/1999/xlink" width="1039.5" height="1190" viewBox="0 0 1039.5 1190">
  <defs>
    <linearGradient id="linear-gradient" x1="0.922" y1="0.079" x2="0" y2="0.925" gradientUnits="objectBoundingBox">
      <stop offset="0" stop-color="#2592d1"/>
      <stop offset="0.1" stop-color="#2592d1"/>
      <stop offset="0.2" stop-color="#2089cb"/>
      <stop offset="0.3" stop-color="#1c7fc5"/>
      <stop offset="0.4" stop-color="#1775bf"/>
      <stop offset="0.5" stop-color="#136cba"/>
      <stop offset="0.6" stop-color="#1062b3"/>
      <stop offset="0.7" stop-color="#0e58ac"/>
      <stop offset="0.8" stop-color="#0d4ea4"/>
      <stop offset="0.9" stop-color="#0c449d"/>
      <stop offset="1" stop-color="#0b3a96"/>
    </linearGradient>
    <clipPath id="clip-path">
      <rect width="253" height="252" fill="none"/>
    </clipPath>
  </defs>
  <g id="background" transform="translate(-881 0)">
    <rect id="Rectangle_650" data-name="Rectangle 650" width="1039.5" height="1080" transform="translate(881 0)" fill="url(#linear-gradient)"/>
    <g id="Repeat_Grid_1" data-name="Repeat Grid 1" transform="translate(1667)" opacity="0.1" clip-path="url(#clip-path)">
      <g transform="translate(13521 -2391)">
        <circle id="Ellipse_88" data-name="Ellipse 88" cx="5" cy="5" r="5" transform="translate(-13521 2391)" fill="#fff"/>
      </g>
      <g transform="translate(13551 -2391)">
        <circle id="Ellipse_88-2" data-name="Ellipse 88" cx="5" cy="5" r="5" transform="translate(-13521 2391)" fill="#fff"/>
      </g>
      <g transform="translate(13581 -2391)">
        <circle id="Ellipse_88-3" data-name="Ellipse 88" cx="5" cy="5" r="5" transform="translate(-13521 2391)" fill="#fff"/>
      </g>
      <g transform="translate(13611 -2391)">
        <circle id="Ellipse_88-4" data-name="Ellipse 88" cx="5" cy="5" r="5" transform="translate(-13521 2391)" fill="#fff"/>
      </g>
      <g transform="translate(13641 -2391)">
        <circle id="Ellipse_88-5" data-name="Ellipse 88" cx="5" cy="5" r="5" transform="translate(-13521 2391)" fill="#fff"/>
      </g>
      <g transform="translate(13671 -2391)">
        <circle id="Ellipse_88-6" data-name="Ellipse 88" cx="5" cy="5" r="5" transform="translate(-13521 2391)" fill="#fff"/>
      </g>
      <g transform="translate(13701 -2391)">
        <circle id="Ellipse_88-7" data-name="Ellipse 88" cx="5" cy="5" r="5" transform="translate(-13521 2391)" fill="#fff"/>
      </g>
      <g transform="translate(13731 -2391)">
        <circle id="Ellipse_88-8" data-name="Ellipse 88" cx="5" cy="5" r="5" transform="translate(-13521 2391)" fill="#fff"/>
      </g>
      <g transform="translate(13761 -2391)">
        <circle id="Ellipse_88-9" data-name="Ellipse 88" cx="5" cy="5" r="5" transform="translate(-13521 2391)" fill="#fff"/>
      </g>
      <g transform="translate(13521 -2361)">
        <circle id="Ellipse_88-10" data-name="Ellipse 88" cx="5" cy="5" r="5" transform="translate(-13521 2391)" fill="#fff"/>
      </g>
      <g transform="translate(13551 -2361)">
        <circle id="Ellipse_88-11" data-name="Ellipse 88" cx="5" cy="5" r="5" transform="translate(-13521 2391)" fill="#fff"/>
      </g>
      <g transform="translate(13581 -2361)">
        <circle id="Ellipse_88-12" data-name="Ellipse 88" cx="5" cy="5" r="5" transform="translate(-13521 2391)" fill="#fff"/>
      </g>
      <g transform="translate(13611 -2361)">
        <circle id="Ellipse_88-13" data-name="Ellipse 88" cx="5" cy="5" r="5" transform="translate(-13521 2391)" fill="#fff"/>
      </g>
      <g transform="translate(13641 -2361)">
        <circle id="Ellipse_88-14" data-name="Ellipse 88" cx="5" cy="5" r="5" transform="translate(-13521 2391)" fill="#fff"/>
      </g>
      <g transform="translate(13671 -2361)">
        <circle id="Ellipse_88-15" data-name="Ellipse 88" cx="5" cy="5" r="5" transform="translate(-13521 2391)" fill="#fff"/>
      </g>
      <g transform="translate(13701 -2361)">
        <circle id="Ellipse_88-16" data-name="Ellipse 88" cx="5" cy="5" r="5" transform="translate(-13521 2391)" fill="#fff"/>
      </g>
      <g transform="translate(13731 -2361)">
        <circle id="Ellipse_88-17" data-name="Ellipse 88" cx="5" cy="5" r="5" transform="translate(-13521 2391)" fill="#fff"/>
      </g>
      <g transform="translate(13761 -2361)">
        <circle id="Ellipse_88-18" data-name="Ellipse 88" cx="5" cy="5" r="5" transform="translate(-13521 2391)" fill="#fff"/>
      </g>
      <g transform="translate(13521 -2331)">
        <circle id="Ellipse_88-19" data-name="Ellipse 88" cx="5" cy="5" r="5" transform="translate(-13521 2391)" fill="#fff"/>
      </g>
      <g transform="translate(13551 -2331)">
        <circle id="Ellipse_88-20" data-name="Ellipse 88" cx="5" cy="5" r="5" transform="translate(-13521 2391)" fill="#fff"/>
      </g>
      <g transform="translate(13581 -2331)">
        <circle id="Ellipse_88-21" data-name="Ellipse 88" cx="5" cy="5" r="5" transform="translate(-13521 2391)" fill="#fff"/>
      </g>
      <g transform="translate(13611 -2331)">
        <circle id="Ellipse_88-22" data-name="Ellipse 88" cx="5" cy="5" r="5" transform="translate(-13521 2391)" fill="#fff"/>
      </g>
      <g transform="translate(13641 -2331)">
        <circle id="Ellipse_88-23" data-name="Ellipse 88" cx="5" cy="5" r="5" transform="translate(-13521 2391)" fill="#fff"/>
      </g>
      <g transform="translate(13671 -2331)">
        <circle id="Ellipse_88-24" data-name="Ellipse 88" cx="5" cy="5" r="5" transform="translate(-13521 2391)" fill="#fff"/>
      </g>
      <g transform="translate(13701 -2331)">
        <circle id="Ellipse_88-25" data-name="Ellipse 88" cx="5" cy="5" r="5" transform="translate(-13521 2391)" fill="#fff"/>
      </g>
      <g transform="translate(13731 -2331)">
        <circle id="Ellipse_88-26" data-name="Ellipse 88" cx="5" cy="5" r="5" transform="translate(-13521 2391)" fill="#fff"/>
      </g>
      <g transform="translate(13761 -2331)">
        <circle id="Ellipse_88-27" data-name="Ellipse 88" cx="5" cy="5" r="5" transform="translate(-13521 2391)" fill="#fff"/>
      </g>
      <g transform="translate(13521 -2301)">
        <circle id="Ellipse_88-28" data-name="Ellipse 88" cx="5" cy="5" r="5" transform="translate(-13521 2391)" fill="#fff"/>
      </g>
      <g transform="translate(13551 -2301)">
        <circle id="Ellipse_88-29" data-name="Ellipse 88" cx="5" cy="5" r="5" transform="translate(-13521 2391)" fill="#fff"/>
      </g>
      <g transform="translate(13581 -2301)">
        <circle id="Ellipse_88-30" data-name="Ellipse 88" cx="5" cy="5" r="5" transform="translate(-13521 2391)" fill="#fff"/>
      </g>
      <g transform="translate(13611 -2301)">
        <circle id="Ellipse_88-31" data-name="Ellipse 88" cx="5" cy="5" r="5" transform="translate(-13521 2391)" fill="#fff"/>
      </g>
      <g transform="translate(13641 -2301)">
        <circle id="Ellipse_88-32" data-name="Ellipse 88" cx="5" cy="5" r="5" transform="translate(-13521 2391)" fill="#fff"/>
      </g>
      <g transform="translate(13671 -2301)">
        <circle id="Ellipse_88-33" data-name="Ellipse 88" cx="5" cy="5" r="5" transform="translate(-13521 2391)" fill="#fff"/>
      </g>
      <g transform="translate(13701 -2301)">
        <circle id="Ellipse_88-34" data-name="Ellipse 88" cx="5" cy="5" r="5" transform="translate(-13521 2391)" fill="#fff"/>
      </g>
      <g transform="translate(13731 -2301)">
        <circle id="Ellipse_88-35" data-name="Ellipse 88" cx="5" cy="5" r="5" transform="translate(-13521 2391)" fill="#fff"/>
      </g>
      <g transform="translate(13761 -2301)">
        <circle id="Ellipse_88-36" data-name="Ellipse 88" cx="5" cy="5" r="5" transform="translate(-13521 2391)" fill="#fff"/>
      </g>
      <g transform="translate(13521 -2271)">
        <circle id="Ellipse_88-37" data-name="Ellipse 88" cx="5" cy="5" r="5" transform="translate(-13521 2391)" fill="#fff"/>
      </g>
      <g transform="translate(13551 -2271)">
        <circle id="Ellipse_88-38" data-name="Ellipse 88" cx="5" cy="5" r="5" transform="translate(-13521 2391)" fill="#fff"/>
      </g>
      <g transform="translate(13581 -2271)">
        <circle id="Ellipse_88-39" data-name="Ellipse 88" cx="5" cy="5" r="5" transform="translate(-13521 2391)" fill="#fff"/>
      </g>
      <g transform="translate(13611 -2271)">
        <circle id="Ellipse_88-40" data-name="Ellipse 88" cx="5" cy="5" r="5" transform="translate(-13521 2391)" fill="#fff"/>
      </g>
      <g transform="translate(13641 -2271)">
        <circle id="Ellipse_88-41" data-name="Ellipse 88" cx="5" cy="5" r="5" transform="translate(-13521 2391)" fill="#fff"/>
      </g>
      <g transform="translate(13671 -2271)">
        <circle id="Ellipse_88-42" data-name="Ellipse 88" cx="5" cy="5" r="5" transform="translate(-13521 2391)" fill="#fff"/>
      </g>
      <g transform="translate(13701 -2271)">
        <circle id="Ellipse_88-43" data-name="Ellipse 88" cx="5" cy="5" r="5" transform="translate(-13521 2391)" fill="#fff"/>
      </g>
      <g transform="translate(13731 -2271)">
        <circle id="Ellipse_88-44" data-name="Ellipse 88" cx="5" cy="5" r="5" transform="translate(-13521 2391)" fill="#fff"/>
      </g>
      <g transform="translate(13761 -2271)">
        <circle id="Ellipse_88-45" data-name="Ellipse 88" cx="5" cy="5" r="5" transform="translate(-13521 2391)" fill="#fff"/>
      </g>
      <g transform="translate(13521 -2241)">
        <circle id="Ellipse_88-46" data-name="Ellipse 88" cx="5" cy="5" r="5" transform="translate(-13521 2391)" fill="#fff"/>
      </g>
      <g transform="translate(13551 -2241)">
        <circle id="Ellipse_88-47" data-name="Ellipse 88" cx="5" cy="5" r="5" transform="translate(-13521 2391)" fill="#fff"/>
      </g>
      <g transform="translate(13581 -2241)">
        <circle id="Ellipse_88-48" data-name="Ellipse 88" cx="5" cy="5" r="5" transform="translate(-13521 2391)" fill="#fff"/>
      </g>
      <g transform="translate(13611 -2241)">
        <circle id="Ellipse_88-49" data-name="Ellipse 88" cx="5" cy="5" r="5" transform="translate(-13521 2391)" fill="#fff"/>
      </g>
      <g transform="translate(13641 -2241)">
        <circle id="Ellipse_88-50" data-name="Ellipse 88" cx="5" cy="5" r="5" transform="translate(-13521 2391)" fill="#fff"/>
      </g>
      <g transform="translate(13671 -2241)">
        <circle id="Ellipse_88-51" data-name="Ellipse 88" cx="5" cy="5" r="5" transform="translate(-13521 2391)" fill="#fff"/>
      </g>
      <g transform="translate(13701 -2241)">
        <circle id="Ellipse_88-52" data-name="Ellipse 88" cx="5" cy="5" r="5" transform="translate(-13521 2391)" fill="#fff"/>
      </g>
      <g transform="translate(13731 -2241)">
        <circle id="Ellipse_88-53" data-name="Ellipse 88" cx="5" cy="5" r="5" transform="translate(-13521 2391)" fill="#fff"/>
      </g>
      <g transform="translate(13761 -2241)">
        <circle id="Ellipse_88-54" data-name="Ellipse 88" cx="5" cy="5" r="5" transform="translate(-13521 2391)" fill="#fff"/>
      </g>
      <g transform="translate(13521 -2211)">
        <circle id="Ellipse_88-55" data-name="Ellipse 88" cx="5" cy="5" r="5" transform="translate(-13521 2391)" fill="#fff"/>
      </g>
      <g transform="translate(13551 -2211)">
        <circle id="Ellipse_88-56" data-name="Ellipse 88" cx="5" cy="5" r="5" transform="translate(-13521 2391)" fill="#fff"/>
      </g>
      <g transform="translate(13581 -2211)">
        <circle id="Ellipse_88-57" data-name="Ellipse 88" cx="5" cy="5" r="5" transform="translate(-13521 2391)" fill="#fff"/>
      </g>
      <g transform="translate(13611 -2211)">
        <circle id="Ellipse_88-58" data-name="Ellipse 88" cx="5" cy="5" r="5" transform="translate(-13521 2391)" fill="#fff"/>
      </g>
      <g transform="translate(13641 -2211)">
        <circle id="Ellipse_88-59" data-name="Ellipse 88" cx="5" cy="5" r="5" transform="translate(-13521 2391)" fill="#fff"/>
      </g>
      <g transform="translate(13671 -2211)">
        <circle id="Ellipse_88-60" data-name="Ellipse 88" cx="5" cy="5" r="5" transform="translate(-13521 2391)" fill="#fff"/>
      </g>
      <g transform="translate(13701 -2211)">
        <circle id="Ellipse_88-61" data-name="Ellipse 88" cx="5" cy="5" r="5" transform="translate(-13521 2391)" fill="#fff"/>
      </g>
      <g transform="translate(13731 -2211)">
        <circle id="Ellipse_88-62" data-name="Ellipse 88" cx="5" cy="5" r="5" transform="translate(-13521 2391)" fill="#fff"/>
      </g>
      <g transform="translate(13761 -2211)">
        <circle id="Ellipse_88-63" data-name="Ellipse 88" cx="5" cy="5" r="5" transform="translate(-13521 2391)" fill="#fff"/>
      </g>
      <g transform="translate(13521 -2181)">
        <circle id="Ellipse_88-64" data-name="Ellipse 88" cx="5" cy="5" r="5" transform="translate(-13521 2391)" fill="#fff"/>
      </g>
      <g transform="translate(13551 -2181)">
        <circle id="Ellipse_88-65" data-name="Ellipse 88" cx="5" cy="5" r="5" transform="translate(-13521 2391)" fill="#fff"/>
      </g>
      <g transform="translate(13581 -2181)">
        <circle id="Ellipse_88-66" data-name="Ellipse 88" cx="5" cy="5" r="5" transform="translate(-13521 2391)" fill="#fff"/>
      </g>
      <g transform="translate(13611 -2181)">
        <circle id="Ellipse_88-67" data-name="Ellipse 88" cx="5" cy="5" r="5" transform="translate(-13521 2391)" fill="#fff"/>
      </g>
      <g transform="translate(13641 -2181)">
        <circle id="Ellipse_88-68" data-name="Ellipse 88" cx="5" cy="5" r="5" transform="translate(-13521 2391)" fill="#fff"/>
      </g>
      <g transform="translate(13671 -2181)">
        <circle id="Ellipse_88-69" data-name="Ellipse 88" cx="5" cy="5" r="5" transform="translate(-13521 2391)" fill="#fff"/>
      </g>
      <g transform="translate(13701 -2181)">
        <circle id="Ellipse_88-70" data-name="Ellipse 88" cx="5" cy="5" r="5" transform="translate(-13521 2391)" fill="#fff"/>
      </g>
      <g transform="translate(13731 -2181)">
        <circle id="Ellipse_88-71" data-name="Ellipse 88" cx="5" cy="5" r="5" transform="translate(-13521 2391)" fill="#fff"/>
      </g>
      <g transform="translate(13761 -2181)">
        <circle id="Ellipse_88-72" data-name="Ellipse 88" cx="5" cy="5" r="5" transform="translate(-13521 2391)" fill="#fff"/>
      </g>
      <g transform="translate(13521 -2151)">
        <circle id="Ellipse_88-73" data-name="Ellipse 88" cx="5" cy="5" r="5" transform="translate(-13521 2391)" fill="#fff"/>
      </g>
      <g transform="translate(13551 -2151)">
        <circle id="Ellipse_88-74" data-name="Ellipse 88" cx="5" cy="5" r="5" transform="translate(-13521 2391)" fill="#fff"/>
      </g>
      <g transform="translate(13581 -2151)">
        <circle id="Ellipse_88-75" data-name="Ellipse 88" cx="5" cy="5" r="5" transform="translate(-13521 2391)" fill="#fff"/>
      </g>
      <g transform="translate(13611 -2151)">
        <circle id="Ellipse_88-76" data-name="Ellipse 88" cx="5" cy="5" r="5" transform="translate(-13521 2391)" fill="#fff"/>
      </g>
      <g transform="translate(13641 -2151)">
        <circle id="Ellipse_88-77" data-name="Ellipse 88" cx="5" cy="5" r="5" transform="translate(-13521 2391)" fill="#fff"/>
      </g>
      <g transform="translate(13671 -2151)">
        <circle id="Ellipse_88-78" data-name="Ellipse 88" cx="5" cy="5" r="5" transform="translate(-13521 2391)" fill="#fff"/>
      </g>
      <g transform="translate(13701 -2151)">
        <circle id="Ellipse_88-79" data-name="Ellipse 88" cx="5" cy="5" r="5" transform="translate(-13521 2391)" fill="#fff"/>
      </g>
      <g transform="translate(13731 -2151)">
        <circle id="Ellipse_88-80" data-name="Ellipse 88" cx="5" cy="5" r="5" transform="translate(-13521 2391)" fill="#fff"/>
      </g>
      <g transform="translate(13761 -2151)">
        <circle id="Ellipse_88-81" data-name="Ellipse 88" cx="5" cy="5" r="5" transform="translate(-13521 2391)" fill="#fff"/>
      </g>
    </g>
    <g id="Repeat_Grid_2" data-name="Repeat Grid 2" transform="translate(881 938)" opacity="0.1" clip-path="url(#clip-path)">
      <g transform="translate(13521 -2391)">
        <circle id="Ellipse_88-82" data-name="Ellipse 88" cx="5" cy="5" r="5" transform="translate(-13521 2391)" fill="#fff"/>
      </g>
      <g transform="translate(13551 -2391)">
        <circle id="Ellipse_88-83" data-name="Ellipse 88" cx="5" cy="5" r="5" transform="translate(-13521 2391)" fill="#fff"/>
      </g>
      <g transform="translate(13581 -2391)">
        <circle id="Ellipse_88-84" data-name="Ellipse 88" cx="5" cy="5" r="5" transform="translate(-13521 2391)" fill="#fff"/>
      </g>
      <g transform="translate(13611 -2391)">
        <circle id="Ellipse_88-85" data-name="Ellipse 88" cx="5" cy="5" r="5" transform="translate(-13521 2391)" fill="#fff"/>
      </g>
      <g transform="translate(13641 -2391)">
        <circle id="Ellipse_88-86" data-name="Ellipse 88" cx="5" cy="5" r="5" transform="translate(-13521 2391)" fill="#fff"/>
      </g>
      <g transform="translate(13671 -2391)">
        <circle id="Ellipse_88-87" data-name="Ellipse 88" cx="5" cy="5" r="5" transform="translate(-13521 2391)" fill="#fff"/>
      </g>
      <g transform="translate(13701 -2391)">
        <circle id="Ellipse_88-88" data-name="Ellipse 88" cx="5" cy="5" r="5" transform="translate(-13521 2391)" fill="#fff"/>
      </g>
      <g transform="translate(13731 -2391)">
        <circle id="Ellipse_88-89" data-name="Ellipse 88" cx="5" cy="5" r="5" transform="translate(-13521 2391)" fill="#fff"/>
      </g>
      <g transform="translate(13761 -2391)">
        <circle id="Ellipse_88-90" data-name="Ellipse 88" cx="5" cy="5" r="5" transform="translate(-13521 2391)" fill="#fff"/>
      </g>
      <g transform="translate(13521 -2361)">
        <circle id="Ellipse_88-91" data-name="Ellipse 88" cx="5" cy="5" r="5" transform="translate(-13521 2391)" fill="#fff"/>
      </g>
      <g transform="translate(13551 -2361)">
        <circle id="Ellipse_88-92" data-name="Ellipse 88" cx="5" cy="5" r="5" transform="translate(-13521 2391)" fill="#fff"/>
      </g>
      <g transform="translate(13581 -2361)">
        <circle id="Ellipse_88-93" data-name="Ellipse 88" cx="5" cy="5" r="5" transform="translate(-13521 2391)" fill="#fff"/>
      </g>
      <g transform="translate(13611 -2361)">
        <circle id="Ellipse_88-94" data-name="Ellipse 88" cx="5" cy="5" r="5" transform="translate(-13521 2391)" fill="#fff"/>
      </g>
      <g transform="translate(13641 -2361)">
        <circle id="Ellipse_88-95" data-name="Ellipse 88" cx="5" cy="5" r="5" transform="translate(-13521 2391)" fill="#fff"/>
      </g>
      <g transform="translate(13671 -2361)">
        <circle id="Ellipse_88-96" data-name="Ellipse 88" cx="5" cy="5" r="5" transform="translate(-13521 2391)" fill="#fff"/>
      </g>
      <g transform="translate(13701 -2361)">
        <circle id="Ellipse_88-97" data-name="Ellipse 88" cx="5" cy="5" r="5" transform="translate(-13521 2391)" fill="#fff"/>
      </g>
      <g transform="translate(13731 -2361)">
        <circle id="Ellipse_88-98" data-name="Ellipse 88" cx="5" cy="5" r="5" transform="translate(-13521 2391)" fill="#fff"/>
      </g>
      <g transform="translate(13761 -2361)">
        <circle id="Ellipse_88-99" data-name="Ellipse 88" cx="5" cy="5" r="5" transform="translate(-13521 2391)" fill="#fff"/>
      </g>
      <g transform="translate(13521 -2331)">
        <circle id="Ellipse_88-100" data-name="Ellipse 88" cx="5" cy="5" r="5" transform="translate(-13521 2391)" fill="#fff"/>
      </g>
      <g transform="translate(13551 -2331)">
        <circle id="Ellipse_88-101" data-name="Ellipse 88" cx="5" cy="5" r="5" transform="translate(-13521 2391)" fill="#fff"/>
      </g>
      <g transform="translate(13581 -2331)">
        <circle id="Ellipse_88-102" data-name="Ellipse 88" cx="5" cy="5" r="5" transform="translate(-13521 2391)" fill="#fff"/>
      </g>
      <g transform="translate(13611 -2331)">
        <circle id="Ellipse_88-103" data-name="Ellipse 88" cx="5" cy="5" r="5" transform="translate(-13521 2391)" fill="#fff"/>
      </g>
      <g transform="translate(13641 -2331)">
        <circle id="Ellipse_88-104" data-name="Ellipse 88" cx="5" cy="5" r="5" transform="translate(-13521 2391)" fill="#fff"/>
      </g>
      <g transform="translate(13671 -2331)">
        <circle id="Ellipse_88-105" data-name="Ellipse 88" cx="5" cy="5" r="5" transform="translate(-13521 2391)" fill="#fff"/>
      </g>
      <g transform="translate(13701 -2331)">
        <circle id="Ellipse_88-106" data-name="Ellipse 88" cx="5" cy="5" r="5" transform="translate(-13521 2391)" fill="#fff"/>
      </g>
      <g transform="translate(13731 -2331)">
        <circle id="Ellipse_88-107" data-name="Ellipse 88" cx="5" cy="5" r="5" transform="translate(-13521 2391)" fill="#fff"/>
      </g>
      <g transform="translate(13761 -2331)">
        <circle id="Ellipse_88-108" data-name="Ellipse 88" cx="5" cy="5" r="5" transform="translate(-13521 2391)" fill="#fff"/>
      </g>
      <g transform="translate(13521 -2301)">
        <circle id="Ellipse_88-109" data-name="Ellipse 88" cx="5" cy="5" r="5" transform="translate(-13521 2391)" fill="#fff"/>
      </g>
      <g transform="translate(13551 -2301)">
        <circle id="Ellipse_88-110" data-name="Ellipse 88" cx="5" cy="5" r="5" transform="translate(-13521 2391)" fill="#fff"/>
      </g>
      <g transform="translate(13581 -2301)">
        <circle id="Ellipse_88-111" data-name="Ellipse 88" cx="5" cy="5" r="5" transform="translate(-13521 2391)" fill="#fff"/>
      </g>
      <g transform="translate(13611 -2301)">
        <circle id="Ellipse_88-112" data-name="Ellipse 88" cx="5" cy="5" r="5" transform="translate(-13521 2391)" fill="#fff"/>
      </g>
      <g transform="translate(13641 -2301)">
        <circle id="Ellipse_88-113" data-name="Ellipse 88" cx="5" cy="5" r="5" transform="translate(-13521 2391)" fill="#fff"/>
      </g>
      <g transform="translate(13671 -2301)">
        <circle id="Ellipse_88-114" data-name="Ellipse 88" cx="5" cy="5" r="5" transform="translate(-13521 2391)" fill="#fff"/>
      </g>
      <g transform="translate(13701 -2301)">
        <circle id="Ellipse_88-115" data-name="Ellipse 88" cx="5" cy="5" r="5" transform="translate(-13521 2391)" fill="#fff"/>
      </g>
      <g transform="translate(13731 -2301)">
        <circle id="Ellipse_88-116" data-name="Ellipse 88" cx="5" cy="5" r="5" transform="translate(-13521 2391)" fill="#fff"/>
      </g>
      <g transform="translate(13761 -2301)">
        <circle id="Ellipse_88-117" data-name="Ellipse 88" cx="5" cy="5" r="5" transform="translate(-13521 2391)" fill="#fff"/>
      </g>
      <g transform="translate(13521 -2271)">
        <circle id="Ellipse_88-118" data-name="Ellipse 88" cx="5" cy="5" r="5" transform="translate(-13521 2391)" fill="#fff"/>
      </g>
      <g transform="translate(13551 -2271)">
        <circle id="Ellipse_88-119" data-name="Ellipse 88" cx="5" cy="5" r="5" transform="translate(-13521 2391)" fill="#fff"/>
      </g>
      <g transform="translate(13581 -2271)">
        <circle id="Ellipse_88-120" data-name="Ellipse 88" cx="5" cy="5" r="5" transform="translate(-13521 2391)" fill="#fff"/>
      </g>
      <g transform="translate(13611 -2271)">
        <circle id="Ellipse_88-121" data-name="Ellipse 88" cx="5" cy="5" r="5" transform="translate(-13521 2391)" fill="#fff"/>
      </g>
      <g transform="translate(13641 -2271)">
        <circle id="Ellipse_88-122" data-name="Ellipse 88" cx="5" cy="5" r="5" transform="translate(-13521 2391)" fill="#fff"/>
      </g>
      <g transform="translate(13671 -2271)">
        <circle id="Ellipse_88-123" data-name="Ellipse 88" cx="5" cy="5" r="5" transform="translate(-13521 2391)" fill="#fff"/>
      </g>
      <g transform="translate(13701 -2271)">
        <circle id="Ellipse_88-124" data-name="Ellipse 88" cx="5" cy="5" r="5" transform="translate(-13521 2391)" fill="#fff"/>
      </g>
      <g transform="translate(13731 -2271)">
        <circle id="Ellipse_88-125" data-name="Ellipse 88" cx="5" cy="5" r="5" transform="translate(-13521 2391)" fill="#fff"/>
      </g>
      <g transform="translate(13761 -2271)">
        <circle id="Ellipse_88-126" data-name="Ellipse 88" cx="5" cy="5" r="5" transform="translate(-13521 2391)" fill="#fff"/>
      </g>
      <g transform="translate(13521 -2241)">
        <circle id="Ellipse_88-127" data-name="Ellipse 88" cx="5" cy="5" r="5" transform="translate(-13521 2391)" fill="#fff"/>
      </g>
      <g transform="translate(13551 -2241)">
        <circle id="Ellipse_88-128" data-name="Ellipse 88" cx="5" cy="5" r="5" transform="translate(-13521 2391)" fill="#fff"/>
      </g>
      <g transform="translate(13581 -2241)">
        <circle id="Ellipse_88-129" data-name="Ellipse 88" cx="5" cy="5" r="5" transform="translate(-13521 2391)" fill="#fff"/>
      </g>
      <g transform="translate(13611 -2241)">
        <circle id="Ellipse_88-130" data-name="Ellipse 88" cx="5" cy="5" r="5" transform="translate(-13521 2391)" fill="#fff"/>
      </g>
      <g transform="translate(13641 -2241)">
        <circle id="Ellipse_88-131" data-name="Ellipse 88" cx="5" cy="5" r="5" transform="translate(-13521 2391)" fill="#fff"/>
      </g>
      <g transform="translate(13671 -2241)">
        <circle id="Ellipse_88-132" data-name="Ellipse 88" cx="5" cy="5" r="5" transform="translate(-13521 2391)" fill="#fff"/>
      </g>
      <g transform="translate(13701 -2241)">
        <circle id="Ellipse_88-133" data-name="Ellipse 88" cx="5" cy="5" r="5" transform="translate(-13521 2391)" fill="#fff"/>
      </g>
      <g transform="translate(13731 -2241)">
        <circle id="Ellipse_88-134" data-name="Ellipse 88" cx="5" cy="5" r="5" transform="translate(-13521 2391)" fill="#fff"/>
      </g>
      <g transform="translate(13761 -2241)">
        <circle id="Ellipse_88-135" data-name="Ellipse 88" cx="5" cy="5" r="5" transform="translate(-13521 2391)" fill="#fff"/>
      </g>
      <g transform="translate(13521 -2211)">
        <circle id="Ellipse_88-136" data-name="Ellipse 88" cx="5" cy="5" r="5" transform="translate(-13521 2391)" fill="#fff"/>
      </g>
      <g transform="translate(13551 -2211)">
        <circle id="Ellipse_88-137" data-name="Ellipse 88" cx="5" cy="5" r="5" transform="translate(-13521 2391)" fill="#fff"/>
      </g>
      <g transform="translate(13581 -2211)">
        <circle id="Ellipse_88-138" data-name="Ellipse 88" cx="5" cy="5" r="5" transform="translate(-13521 2391)" fill="#fff"/>
      </g>
      <g transform="translate(13611 -2211)">
        <circle id="Ellipse_88-139" data-name="Ellipse 88" cx="5" cy="5" r="5" transform="translate(-13521 2391)" fill="#fff"/>
      </g>
      <g transform="translate(13641 -2211)">
        <circle id="Ellipse_88-140" data-name="Ellipse 88" cx="5" cy="5" r="5" transform="translate(-13521 2391)" fill="#fff"/>
      </g>
      <g transform="translate(13671 -2211)">
        <circle id="Ellipse_88-141" data-name="Ellipse 88" cx="5" cy="5" r="5" transform="translate(-13521 2391)" fill="#fff"/>
      </g>
      <g transform="translate(13701 -2211)">
        <circle id="Ellipse_88-142" data-name="Ellipse 88" cx="5" cy="5" r="5" transform="translate(-13521 2391)" fill="#fff"/>
      </g>
      <g transform="translate(13731 -2211)">
        <circle id="Ellipse_88-143" data-name="Ellipse 88" cx="5" cy="5" r="5" transform="translate(-13521 2391)" fill="#fff"/>
      </g>
      <g transform="translate(13761 -2211)">
        <circle id="Ellipse_88-144" data-name="Ellipse 88" cx="5" cy="5" r="5" transform="translate(-13521 2391)" fill="#fff"/>
      </g>
      <g transform="translate(13521 -2181)">
        <circle id="Ellipse_88-145" data-name="Ellipse 88" cx="5" cy="5" r="5" transform="translate(-13521 2391)" fill="#fff"/>
      </g>
      <g transform="translate(13551 -2181)">
        <circle id="Ellipse_88-146" data-name="Ellipse 88" cx="5" cy="5" r="5" transform="translate(-13521 2391)" fill="#fff"/>
      </g>
      <g transform="translate(13581 -2181)">
        <circle id="Ellipse_88-147" data-name="Ellipse 88" cx="5" cy="5" r="5" transform="translate(-13521 2391)" fill="#fff"/>
      </g>
      <g transform="translate(13611 -2181)">
        <circle id="Ellipse_88-148" data-name="Ellipse 88" cx="5" cy="5" r="5" transform="translate(-13521 2391)" fill="#fff"/>
      </g>
      <g transform="translate(13641 -2181)">
        <circle id="Ellipse_88-149" data-name="Ellipse 88" cx="5" cy="5" r="5" transform="translate(-13521 2391)" fill="#fff"/>
      </g>
      <g transform="translate(13671 -2181)">
        <circle id="Ellipse_88-150" data-name="Ellipse 88" cx="5" cy="5" r="5" transform="translate(-13521 2391)" fill="#fff"/>
      </g>
      <g transform="translate(13701 -2181)">
        <circle id="Ellipse_88-151" data-name="Ellipse 88" cx="5" cy="5" r="5" transform="translate(-13521 2391)" fill="#fff"/>
      </g>
      <g transform="translate(13731 -2181)">
        <circle id="Ellipse_88-152" data-name="Ellipse 88" cx="5" cy="5" r="5" transform="translate(-13521 2391)" fill="#fff"/>
      </g>
      <g transform="translate(13761 -2181)">
        <circle id="Ellipse_88-153" data-name="Ellipse 88" cx="5" cy="5" r="5" transform="translate(-13521 2391)" fill="#fff"/>
      </g>
      <g transform="translate(13521 -2151)">
        <circle id="Ellipse_88-154" data-name="Ellipse 88" cx="5" cy="5" r="5" transform="translate(-13521 2391)" fill="#fff"/>
      </g>
      <g transform="translate(13551 -2151)">
        <circle id="Ellipse_88-155" data-name="Ellipse 88" cx="5" cy="5" r="5" transform="translate(-13521 2391)" fill="#fff"/>
      </g>
      <g transform="translate(13581 -2151)">
        <circle id="Ellipse_88-156" data-name="Ellipse 88" cx="5" cy="5" r="5" transform="translate(-13521 2391)" fill="#fff"/>
      </g>
      <g transform="translate(13611 -2151)">
        <circle id="Ellipse_88-157" data-name="Ellipse 88" cx="5" cy="5" r="5" transform="translate(-13521 2391)" fill="#fff"/>
      </g>
      <g transform="translate(13641 -2151)">
        <circle id="Ellipse_88-158" data-name="Ellipse 88" cx="5" cy="5" r="5" transform="translate(-13521 2391)" fill="#fff"/>
      </g>
      <g transform="translate(13671 -2151)">
        <circle id="Ellipse_88-159" data-name="Ellipse 88" cx="5" cy="5" r="5" transform="translate(-13521 2391)" fill="#fff"/>
      </g>
      <g transform="translate(13701 -2151)">
        <circle id="Ellipse_88-160" data-name="Ellipse 88" cx="5" cy="5" r="5" transform="translate(-13521 2391)" fill="#fff"/>
      </g>
      <g transform="translate(13731 -2151)">
        <circle id="Ellipse_88-161" data-name="Ellipse 88" cx="5" cy="5" r="5" transform="translate(-13521 2391)" fill="#fff"/>
      </g>
      <g transform="translate(13761 -2151)">
        <circle id="Ellipse_88-162" data-name="Ellipse 88" cx="5" cy="5" r="5" transform="translate(-13521 2391)" fill="#fff"/>
      </g>
    </g>
  </g>
</svg>
