<svg width="188" height="174" viewBox="0 0 188 174" fill="none" xmlns="http://www.w3.org/2000/svg">
<path d="M4.19249 19.0586C3.03244 19.6756 1.92043 20.2992 0.870392 20.9281C0.30188 21.2687 0 22.0248 0 22.7919C0 32.5302 4.13564 89.3831 15.9769 110.97C23.0264 123.822 46.2555 137.51 57.4231 140.992C57.5621 141.035 57.704 141.057 57.8461 141.057C57.9879 141.057 58.1301 141.035 58.2688 140.992C59.9644 140.463 61.9388 139.698 64.0915 138.738C62.3609 138.176 4.21466 20.6505 4.19249 19.0586Z" fill="#ACC7DE"/>
<path d="M99.7162 110.97C111.557 89.383 115.693 32.5301 115.693 22.7918C115.693 22.0247 115.391 21.2686 114.823 20.928C97.0393 10.275 62.0332 1.15627 58.2503 0.0578985C57.9843 -0.0192995 57.7099 -0.0192995 57.4436 0.0578985C53.8841 1.09127 22.6817 9.22629 4.19336 19.0585C4.21553 20.6505 4.2431 22.2642 4.2775 23.8712C4.54044 36.1513 8.83185 89.0805 19.7174 108.925C26.0458 120.462 47.4372 133.086 57.847 136.65C60.2975 137.489 62.3618 138.176 64.0923 138.738C76.1189 133.372 93.7368 121.871 99.7162 110.97Z" fill="#F3F8FF"/>
<path d="M47.8086 64.7262C47.8086 64.7262 47.8086 55.0621 47.8086 50.9615C47.8086 43.2416 54.0764 36.9834 61.8083 36.9834C69.5402 36.9834 75.808 43.2416 75.808 50.9615V64.7262C75.808 75.028 70.3152 66.2311 70.3152 64.7262C70.3152 63.524 70.3152 51.9037 70.3152 50.9615C70.3152 46.278 66.4992 42.4677 61.8085 42.4677C57.1178 42.4677 53.3018 46.278 53.3018 50.9615V63.9247L47.8086 64.7262Z" fill="#CFDEED"/>
<path d="M53.3014 60.2676C51.2476 60.4859 49.4138 60.7676 47.8086 61.0703V64.726L53.3014 63.9245V60.2676Z" fill="#ACC7DE"/>
<path d="M43.4978 65.708C42.5822 65.9568 41.8296 66.1897 41.2527 66.3822C40.4054 66.665 39.8359 67.4582 39.8359 68.3502V91.5227C39.8359 92.4148 40.4055 93.2078 41.2527 93.4906C44.1169 94.4469 51.2357 96.3893 61.8072 96.3893C72.3787 96.3893 79.4974 94.4469 82.3617 93.4906C83.209 93.2078 83.7785 92.4146 83.7785 91.5227V90.5086C80.1484 91.4949 43.4978 65.708 43.4978 65.708Z" fill="#5085B4"/>
<path d="M82.3619 66.383C79.4976 65.4267 72.3787 63.4844 61.8074 63.4844C53.3653 63.4844 47.1281 64.7227 43.498 65.7088V87.8675C43.498 88.7596 44.0677 89.5526 44.9148 89.8354C47.779 90.7917 54.8978 92.7341 65.4693 92.7341C73.9114 92.7341 80.1487 91.4957 83.7787 90.5096V68.351C83.7787 67.459 83.2091 66.666 82.3619 66.383Z" fill="#ACC7DE"/>
<rect width="4.34416" height="16.9836" transform="matrix(0.682674 -0.730724 0.731777 0.681544 50.3203 77.0381)" fill="#F3F8FF"/>
<rect width="4.34463" height="20.1411" transform="matrix(-0.731777 -0.681544 0.682674 -0.730724 63.8262 87.459)" fill="#F3F8FF"/>
<ellipse rx="43.4434" ry="43.4494" transform="matrix(0.675664 -0.737209 0.738251 0.674526 75.6719 71.5572)" fill="#ACC7DE" fill-opacity="0.4"/>
<path fill-rule="evenodd" clip-rule="evenodd" d="M112.612 104.491C131.3 84.1003 129.895 52.4445 109.473 33.7854C89.0509 15.1262 57.346 16.5296 38.658 36.9199C19.97 57.3102 21.3755 88.966 41.7975 107.625C62.2194 126.284 93.9242 124.881 112.612 104.491ZM105.484 97.9778C120.57 81.5181 119.435 55.9646 102.95 40.9025C86.4651 25.8403 60.872 26.9731 45.7864 43.4328C30.7009 59.8924 31.8355 85.4459 48.3207 100.508C64.8059 115.57 90.3989 114.437 105.484 97.9778Z" fill="#5085B4"/>
<rect width="16.8947" height="22.8807" transform="matrix(0.675664 -0.737209 0.738251 0.674526 103.785 107.051)" fill="#5085B4"/>
<rect width="24.1352" height="83.278" transform="matrix(0.675664 -0.737209 0.738251 0.674526 110.213 117.827)" fill="#ACC7DE"/>
</svg>
