<svg width="716" height="566" viewBox="0 0 716 566" fill="none" xmlns="http://www.w3.org/2000/svg">
<path d="M149.417 513.18H89.8164V513.63H149.417V513.18Z" fill="#EBEBEB"/>
<path d="M292.576 499.559H214.203V500.008H292.576V499.559Z" fill="#EBEBEB"/>
<path d="M88.0138 496.47H0.640625V496.92H88.0138V496.47Z" fill="#EBEBEB"/>
<path d="M413.495 502.56H351.793V503.009H413.495V502.56Z" fill="#EBEBEB"/>
<path d="M715.82 502.56H702.434V503.009H715.82V502.56Z" fill="#EBEBEB"/>
<path d="M516.913 502.56H429.52V503.009H516.913V502.56Z" fill="#EBEBEB"/>
<path d="M662.54 510.157H493.977V510.607H662.54V510.157Z" fill="#EBEBEB"/>
<path d="M351.484 565.483C543.946 565.483 699.967 556.433 699.967 545.271C699.967 534.108 543.946 525.059 351.484 525.059C159.021 525.059 3 534.108 3 545.271C3 556.433 159.021 565.483 351.484 565.483Z" fill="#707070" fill-opacity="0.1"/>
<path d="M257.653 14.1638L125.576 185.841L480.769 97.4881L282.934 7.79835C274.053 3.77222 263.572 6.41142 257.653 14.1638Z" fill="#EBEBEB"/>
<path d="M124.002 187L257.359 13.6583C263.519 5.59071 274.277 2.88487 283.523 7.07344L482.002 97.5L124.002 187ZM274.537 6.58475C268.407 6.58475 262.458 9.39333 258.52 14.5509L258.518 14.5537L127.723 184.565L478.834 97.2269L282.918 8.40762C280.206 7.17756 277.352 6.58475 274.537 6.58475Z" fill="#E0E0E0"/>
<path d="M519.356 309.717L190.22 391.535C182.222 393.523 174.127 388.651 172.138 380.654L123.893 186.572L481.992 97.5542L530.238 291.636C532.226 299.633 527.354 307.729 519.356 309.717Z" fill="#F0F0F0"/>
<path d="M459.945 108.181L335.884 234.936L148.321 192.73L126.867 93.2716C124.397 82.5982 130.943 71.9165 141.574 69.2736L412.835 1.84202C423.589 -0.831542 434.476 5.71995 437.148 16.4742L459.945 108.181Z" fill="white"/>
<path d="M318.846 224.966L171.531 378.925C173.72 387.724 182.627 393.083 191.425 390.895L518.03 309.665C526.828 307.476 532.188 298.569 530 289.77L529.694 288.545L337.06 220.621C330.661 218.365 323.536 220.064 318.846 224.966Z" fill="#E0E0E0"/>
<path d="M271.78 83.9674L165.656 110.367L168.353 121.208L274.477 94.8077L271.78 83.9674Z" fill="#E0E0E0"/>
<path d="M407.94 79.2505L172.488 137.822L175.533 150.06L410.984 91.4881L407.94 79.2505Z" fill="#E0E0E0"/>
<path d="M415.382 109.167L179.93 167.739L182.974 179.977L418.426 121.405L415.382 109.167Z" fill="#E0E0E0"/>
<path d="M420.352 148.79L412.98 156.167L215.317 207.844L189.487 201.8L188.512 198.999L423.21 140.627L424.219 144.683L420.352 148.79Z" fill="#E0E0E0"/>
<path d="M369.792 200.293L280.74 222.44L253.52 216.214L386.603 183.115L369.792 200.293Z" fill="#E0E0E0"/>
<path d="M313.474 230.583C313.483 230.592 313.368 230.732 313.133 230.995C312.87 231.285 312.522 231.667 312.081 232.151C311.112 233.189 309.735 234.663 307.979 236.544C304.361 240.372 299.18 245.852 292.792 252.611C279.942 266.153 262.18 284.848 242.414 305.359C222.645 325.879 204.557 344.269 191.341 357.456C184.735 364.052 179.365 369.363 175.626 373.006C173.778 374.799 172.331 376.203 171.312 377.192C170.836 377.643 170.46 377.998 170.176 378.267C169.916 378.507 169.78 378.624 169.77 378.614C169.76 378.604 169.88 378.468 170.12 378.211C170.39 377.928 170.749 377.556 171.202 377.082C172.197 376.069 173.61 374.632 175.414 372.795C179.116 369.05 184.418 363.687 190.955 357.074C204.071 343.791 222.093 325.344 241.86 304.826C261.582 284.305 279.436 265.725 292.399 252.237C298.861 245.549 304.102 240.125 307.761 236.338C309.564 234.498 310.974 233.058 311.968 232.043C312.432 231.581 312.799 231.215 313.076 230.939C313.33 230.694 313.465 230.573 313.474 230.583Z" fill="#FAFAFA"/>
<path d="M529.697 288.542C529.627 288.741 488.546 274.483 437.955 256.699C387.344 238.909 346.387 224.33 346.457 224.131C346.527 223.932 387.598 238.186 438.209 255.977C488.802 273.761 529.766 288.343 529.697 288.542Z" fill="#FAFAFA"/>
<path d="M465.846 102.08C465.855 102.089 465.765 102.207 465.576 102.427C465.358 102.677 465.079 102.996 464.73 103.395C463.937 104.274 462.83 105.502 461.423 107.064C458.48 110.261 454.287 114.817 449.121 120.43C438.686 131.673 424.156 147.099 407.879 163.917C391.595 180.739 376.645 195.76 365.737 206.544C360.288 211.883 355.865 216.217 352.763 219.257C351.245 220.712 350.051 221.857 349.198 222.675C348.811 223.036 348.501 223.325 348.257 223.55C348.043 223.744 347.928 223.839 347.919 223.831C347.909 223.821 348.005 223.708 348.203 223.495C348.433 223.255 348.724 222.948 349.091 222.565C349.92 221.722 351.08 220.542 352.553 219.044C355.616 215.962 359.979 211.571 365.355 206.16C376.164 195.279 391.05 180.201 407.33 163.383C423.602 146.569 438.191 131.205 448.727 120.059C453.966 114.517 458.221 110.017 461.205 106.86C462.658 105.341 463.801 104.145 464.617 103.289C464.99 102.911 465.287 102.61 465.519 102.373C465.724 102.171 465.836 102.07 465.846 102.08Z" fill="#FAFAFA"/>
<path d="M313.476 230.583C313.473 230.596 313.304 230.566 312.979 230.495C312.617 230.412 312.142 230.301 311.542 230.163C310.236 229.844 308.389 229.391 306.035 228.814C301.259 227.615 294.333 225.941 285.763 223.924C268.627 219.866 244.869 214.642 218.607 208.953C192.337 203.263 168.586 197.952 151.477 193.759C142.919 191.676 136.012 189.919 131.258 188.631C128.917 187.996 127.083 187.496 125.785 187.144C125.194 186.975 124.726 186.841 124.367 186.738C124.05 186.642 123.888 186.588 123.891 186.575C123.895 186.563 124.062 186.592 124.387 186.663C124.749 186.747 125.225 186.857 125.824 186.995C127.13 187.314 128.977 187.767 131.331 188.343C136.107 189.541 143.032 191.215 151.602 193.233C168.738 197.29 192.499 202.515 218.769 208.205C245.031 213.893 268.778 219.203 285.887 223.397C294.444 225.481 301.352 227.238 306.107 228.526C308.448 229.163 310.282 229.662 311.58 230.014C312.171 230.183 312.641 230.317 312.999 230.42C313.318 230.515 313.48 230.569 313.476 230.583Z" fill="#FAFAFA"/>
<path d="M459.948 108.181C459.948 108.181 459.809 107.731 459.575 106.842C459.339 105.933 458.999 104.614 458.553 102.891C457.667 99.3955 456.369 94.2742 454.699 87.6836C451.38 74.451 446.585 55.3346 440.661 31.7186C439.922 28.7648 439.166 25.74 438.393 22.6482C438.006 21.1024 437.616 19.5384 437.22 17.959C437.026 17.1673 436.831 16.3714 436.58 15.6047C436.374 14.8185 436.063 14.0658 435.736 13.3145C434.456 10.2938 432.263 7.63138 429.579 5.55303C426.847 3.54855 423.561 2.09886 420.05 1.72807C418.302 1.46601 416.512 1.58449 414.739 1.79916C412.985 2.10304 411.2 2.59231 409.406 3.03279C405.815 3.92909 402.168 4.83794 398.467 5.76072C391.064 7.60629 383.446 9.50622 375.633 11.4536C344.377 19.2331 310.017 27.7849 273.952 36.7618C237.868 45.7206 203.495 54.2543 172.229 62.0171C164.413 63.9547 156.79 65.8435 149.384 67.6793C147.533 68.1379 145.694 68.5937 143.87 69.0453C142.043 69.5179 140.23 69.8845 138.577 70.6526C136.904 71.3649 135.337 72.3002 133.963 73.4502C132.552 74.557 131.356 75.8965 130.329 77.3225C129.265 78.7346 128.527 80.3376 127.878 81.9379C127.308 83.5715 126.896 85.2498 126.749 86.9463C126.341 90.36 127.28 93.6427 127.951 96.899C129.345 103.399 130.682 109.638 131.958 115.594C137.042 139.407 141.157 158.678 144.006 172.019C145.41 178.671 146.5 183.84 147.243 187.368C147.603 189.111 147.877 190.445 148.067 191.363C148.248 192.264 148.322 192.731 148.322 192.731C148.322 192.731 148.196 192.276 147.99 191.38C147.784 190.464 147.484 189.136 147.092 187.4C146.316 183.879 145.178 178.72 143.715 172.082C140.81 158.755 136.614 139.5 131.43 115.711C130.138 109.759 128.784 103.524 127.374 97.0286C126.703 93.8128 125.725 90.4172 126.137 86.8919C126.284 85.1411 126.705 83.4099 127.29 81.7232C127.954 80.07 128.716 78.4168 129.809 76.9573C130.867 75.4825 132.098 74.097 133.553 72.9511C134.971 71.7621 136.588 70.7919 138.315 70.0532C140.028 69.2544 141.904 68.8725 143.706 68.4014C145.53 67.9469 147.367 67.4883 149.218 67.0269C156.621 65.1814 164.242 63.2814 172.055 61.3341C203.315 53.5532 237.684 45 273.762 36.0203C309.833 27.0642 344.199 18.5319 375.459 10.7705C383.275 8.83295 390.896 6.94417 398.302 5.10836C402.004 4.19115 405.653 3.28788 409.245 2.39716C411.045 1.95946 412.804 1.47716 414.64 1.16074C416.472 0.940496 418.321 0.8248 420.124 1.09801C423.748 1.48971 427.134 2.98958 429.945 5.06375C432.71 7.21041 434.961 9.96065 436.272 13.0761C436.607 13.8511 436.926 14.6275 437.137 15.436C437.395 16.2347 437.587 17.0293 437.778 17.8196C438.168 19.4004 438.556 20.9644 438.938 22.5116C439.703 25.6062 440.45 28.6324 441.18 31.5889C447.004 55.2301 451.719 74.366 454.982 87.6126C456.592 94.2184 457.844 99.3509 458.697 102.855C459.111 104.586 459.426 105.911 459.645 106.824C459.861 107.717 459.948 108.181 459.948 108.181Z" fill="#E0E0E0"/>
<path d="M356.415 298.852C356.365 299.057 354.724 298.833 352.751 298.352C350.778 297.869 349.219 297.312 349.271 297.107C349.321 296.901 350.96 297.125 352.934 297.607C354.906 298.09 356.465 298.647 356.415 298.852Z" fill="#707070"/>
<path d="M367.825 301.639C367.775 301.844 366.78 301.779 365.603 301.49C364.427 301.203 363.514 300.803 363.562 300.597C363.613 300.392 364.608 300.457 365.784 300.746C366.962 301.034 367.875 301.434 367.825 301.639Z" fill="#707070"/>
<path d="M320.778 62.5315C320.716 62.7364 319.101 62.4213 317.136 61.9669C315.172 61.5083 313.583 61.0818 313.618 60.8699C313.65 60.6636 315.316 60.757 317.31 61.2212C319.302 61.6812 320.84 62.3321 320.778 62.5315Z" fill="#707070"/>
<path d="M334.255 68.3173C334.147 68.5013 332.651 67.8168 330.847 66.915C329.045 66.0103 327.601 65.2213 327.683 65.0234C327.762 64.831 329.36 65.3119 331.19 66.2291C333.02 67.145 334.361 68.1374 334.255 68.3173Z" fill="#707070"/>
<path d="M345.957 77.187C345.805 77.3389 344.53 76.2991 343 74.9832C341.473 73.6645 340.26 72.5522 340.388 72.3793C340.512 72.2121 341.949 73.0624 343.501 74.4019C345.054 75.7401 346.105 77.0406 345.957 77.187Z" fill="#707070"/>
<path d="M354.873 88.8254C354.685 88.9285 353.753 87.5736 352.642 85.8939C351.536 84.2114 350.659 82.8217 350.827 82.6893C350.991 82.5596 352.155 83.7598 353.282 85.473C354.413 87.1833 355.055 88.7278 354.873 88.8254Z" fill="#707070"/>
<path d="M359.937 102.58C359.725 102.62 359.251 101.046 358.7 99.11C358.154 97.1711 357.733 95.5848 357.934 95.5081C358.127 95.4328 358.88 96.9271 359.436 98.9023C359.998 100.875 360.14 102.542 359.937 102.58Z" fill="#707070"/>
<path d="M360.686 117.216C360.473 117.192 360.486 115.549 360.531 113.538C360.581 111.525 360.648 109.883 360.863 109.869C361.071 109.855 361.348 111.504 361.298 113.556C361.25 115.606 360.892 117.241 360.686 117.216Z" fill="#707070"/>
<path d="M356.873 131.358C356.68 131.265 357.23 129.719 357.908 127.826C358.592 125.934 359.157 124.393 359.366 124.446C359.566 124.496 359.325 126.153 358.628 128.085C357.935 130.02 357.06 131.45 356.873 131.358Z" fill="#707070"/>
<path d="M348.367 143.253C348.22 143.094 349.31 141.867 350.629 140.352C351.953 138.841 353.017 137.594 353.195 137.716C353.367 137.832 352.562 139.307 351.206 140.855C349.854 142.408 348.505 143.406 348.367 143.253Z" fill="#707070"/>
<path d="M336.07 151.181C335.989 150.98 337.443 150.218 339.223 149.282C341.006 148.352 342.461 147.593 342.579 147.774C342.695 147.945 341.4 149.01 339.577 149.961C337.758 150.916 336.145 151.373 336.07 151.181Z" fill="#707070"/>
<path d="M321.758 154.253C321.755 154.037 323.386 153.853 325.379 153.609C327.375 153.371 329.003 153.167 329.051 153.379C329.098 153.58 327.512 154.127 325.47 154.37C323.431 154.619 321.758 154.46 321.758 154.253Z" fill="#707070"/>
<path d="M307.408 151.54C307.496 151.345 309.052 151.859 310.974 152.438C312.893 153.023 314.474 153.46 314.438 153.674C314.406 153.878 312.726 153.773 310.752 153.171C308.777 152.576 307.32 151.73 307.408 151.54Z" fill="#707070"/>
<path d="M297.245 141.448C297.453 141.384 298.091 142.873 299.24 144.49C300.369 146.119 301.48 147.324 301.326 147.488C301.198 147.639 299.806 146.648 298.61 144.926C297.395 143.21 297.043 141.496 297.245 141.448Z" fill="#707070"/>
<path d="M303.428 130.032C303.488 130.256 301.911 130.736 300.329 131.877C298.729 133.001 297.89 134.407 297.69 134.301C297.498 134.244 298.11 132.51 299.881 131.256C301.634 130.002 303.405 129.843 303.428 130.032Z" fill="#707070"/>
<path d="M316.026 135.263C315.831 135.372 314.943 133.996 313.494 132.665C312.067 131.331 310.563 130.662 310.648 130.45C310.694 130.261 312.438 130.638 314.016 132.103C315.576 133.547 316.208 135.184 316.026 135.263Z" fill="#707070"/>
<path d="M316.499 149.492C316.296 149.403 316.814 147.854 317.179 145.9C317.558 143.947 317.647 142.318 317.867 142.309C318.069 142.292 318.329 143.99 317.931 146.044C317.545 148.098 316.68 149.583 316.499 149.492Z" fill="#707070"/>
<path d="M306.948 160.439C306.825 160.259 308.089 159.211 309.61 157.905C311.136 156.604 312.334 155.493 312.497 155.635C312.656 155.769 311.679 157.148 310.109 158.486C308.547 159.828 307.061 160.61 306.948 160.439Z" fill="#707070"/>
<path d="M293.906 167.206C293.822 167.012 295.245 166.17 297.087 165.326C298.928 164.481 300.498 163.95 300.593 164.139C300.687 164.328 299.264 165.17 297.412 166.02C295.559 166.869 293.989 167.4 293.906 167.206Z" fill="#707070"/>
<path d="M280.818 173.868C280.699 173.692 282.029 172.696 283.787 171.643C285.559 170.614 287.141 170.076 287.222 170.248C287.325 170.458 285.906 171.299 284.163 172.311C282.433 173.347 280.936 174.043 280.818 173.868Z" fill="#707070"/>
<path d="M269.708 183.456C269.552 183.319 270.519 181.958 271.98 180.524C273.439 179.087 274.818 178.145 274.952 178.304C275.091 178.467 273.954 179.656 272.517 181.071C271.078 182.483 269.87 183.598 269.708 183.456Z" fill="#707070"/>
<path d="M261.279 195.479C261.093 195.383 261.711 193.833 262.784 192.09C263.855 190.345 264.959 189.095 265.127 189.216C265.302 189.34 264.49 190.772 263.437 192.492C262.38 194.208 261.468 195.578 261.279 195.479Z" fill="#707070"/>
<path d="M255.926 209.143C255.724 209.092 255.959 207.441 256.595 205.495C257.228 203.547 258.008 202.073 258.201 202.152C258.4 202.233 257.946 203.814 257.323 205.732C256.698 207.648 256.134 209.194 255.926 209.143Z" fill="#707070"/>
<path d="M254.015 223.685C253.807 223.688 253.623 222.028 253.765 219.987C253.903 217.945 254.309 216.328 254.515 216.357C254.727 216.388 254.666 218.03 254.529 220.039C254.39 222.049 254.229 223.684 254.015 223.685Z" fill="#707070"/>
<path d="M255.931 238.227C255.728 238.286 255.209 236.711 254.775 234.709C254.294 232.714 254.267 231.043 254.475 231.019C254.687 230.994 255.051 232.597 255.526 234.557C255.954 236.524 256.135 238.169 255.931 238.227Z" fill="#707070"/>
<path d="M261.6 251.754C261.42 251.86 260.429 250.518 259.519 248.685C258.604 246.852 258.135 245.25 258.328 245.172C258.526 245.091 259.304 246.54 260.205 248.345C261.101 250.15 261.785 251.646 261.6 251.754Z" fill="#707070"/>
<path d="M270.423 263.498C270.274 263.644 268.993 262.574 267.672 261.012C266.346 259.453 265.501 258.014 265.67 257.89C265.843 257.763 266.949 258.979 268.257 260.516C269.557 262.056 270.576 263.349 270.423 263.498Z" fill="#707070"/>
<path d="M281.723 272.842C281.613 273.019 280.115 272.282 278.464 271.072C276.81 269.866 275.652 268.664 275.786 268.505C275.924 268.341 277.286 269.265 278.915 270.453C280.543 271.644 281.837 272.661 281.723 272.842Z" fill="#707070"/>
<path d="M294.965 279.173C294.902 279.373 293.267 279.034 291.368 278.266C289.468 277.502 288.054 276.614 288.147 276.427C288.242 276.235 289.785 276.804 291.655 277.555C293.523 278.312 295.03 278.97 294.965 279.173Z" fill="#707070"/>
<path d="M302.358 281.043C302.32 281.251 302.231 281.41 302.16 281.396C302.089 281.384 302.061 281.204 302.099 280.996C302.136 280.788 302.226 280.629 302.297 280.643C302.368 280.656 302.396 280.836 302.358 281.043Z" fill="#707070"/>
<path d="M291.661 244.58L276.422 239.574L273.308 249.054L288.547 254.06L291.661 244.58Z" fill="#75A1C7"/>
<g opacity="0.3">
<path opacity="0.3" d="M291.661 244.58L276.422 239.574L273.308 249.054L288.547 254.06L291.661 244.58Z" fill="black"/>
</g>
<path d="M291.659 244.563C291.73 244.757 287.812 246.366 282.824 248.194L282.559 248.292L282.388 248.066C282.307 247.96 282.221 247.846 282.134 247.732C278.81 243.344 276.253 239.684 276.422 239.556C276.591 239.428 279.422 242.881 282.745 247.269C282.831 247.383 282.918 247.497 282.999 247.603L282.562 247.475C287.555 245.662 291.588 244.369 291.659 244.563Z" fill="#75A1C7"/>
<g opacity="0.1">
<g opacity="0.1">
<path opacity="0.1" d="M291.659 244.563C291.73 244.757 287.812 246.366 282.824 248.194L282.559 248.292L282.388 248.066C282.307 247.96 282.221 247.846 282.134 247.732C278.81 243.344 276.253 239.684 276.422 239.556C276.591 239.428 279.422 242.881 282.745 247.269C282.831 247.383 282.918 247.497 282.999 247.603L282.562 247.475C287.555 245.662 291.588 244.369 291.659 244.563Z" fill="black"/>
</g>
</g>
<path d="M280.825 245.369C280.918 245.559 279.309 246.534 277.235 247.548C275.16 248.561 273.402 249.229 273.309 249.038C273.215 248.847 274.822 247.873 276.899 246.859C278.973 245.846 280.731 245.18 280.825 245.369Z" fill="#75A1C7"/>
<g opacity="0.1">
<g opacity="0.1">
<path opacity="0.1" d="M280.825 245.369C280.918 245.559 279.309 246.534 277.235 247.548C275.16 248.561 273.402 249.229 273.309 249.038C273.215 248.847 274.822 247.873 276.899 246.859C278.973 245.846 280.731 245.18 280.825 245.369Z" fill="black"/>
</g>
</g>
<path d="M288.818 254.135C288.624 254.218 287.765 252.631 286.865 250.604C285.941 248.524 285.329 246.75 285.613 246.768C285.824 246.78 286.681 248.263 287.566 250.299C288.451 252.332 289.012 254.05 288.818 254.135Z" fill="#75A1C7"/>
<g opacity="0.1">
<g opacity="0.1">
<path opacity="0.1" d="M288.818 254.135C288.624 254.218 287.765 252.631 286.865 250.604C285.941 248.524 285.329 246.75 285.613 246.768C285.824 246.78 286.681 248.263 287.566 250.299C288.451 252.332 289.012 254.05 288.818 254.135Z" fill="black"/>
</g>
</g>
<path d="M353.821 281.736L314.617 268.857L306.605 293.247L345.81 306.125L353.821 281.736Z" fill="#75A1C7"/>
<path d="M353.812 281.72C353.83 281.769 353.207 282.048 352.064 282.513C350.776 283.017 349.142 283.656 347.185 284.422C343.046 286.005 337.295 288.152 330.876 290.498L330.611 290.595L330.439 290.37C330.233 290.098 330.01 289.804 329.787 289.51C325.51 283.866 321.674 278.732 318.928 274.992C317.636 273.205 316.556 271.712 315.707 270.54C314.96 269.477 314.567 268.875 314.608 268.843C314.65 268.811 315.124 269.353 315.944 270.358C316.843 271.492 317.989 272.936 319.359 274.664C322.217 278.32 326.121 283.403 330.398 289.047C330.621 289.342 330.844 289.635 331.05 289.908L330.614 289.78C337.036 287.441 342.818 285.378 347.002 283.924C348.993 283.249 350.654 282.685 351.963 282.242C353.138 281.86 353.793 281.672 353.812 281.72Z" fill="#055DA9"/>
<g opacity="0.2">
<g opacity="0.2">
<path opacity="0.2" d="M353.812 281.72C353.83 281.769 353.207 282.048 352.064 282.513C350.776 283.017 349.142 283.656 347.185 284.422C343.046 286.005 337.295 288.152 330.876 290.498L330.611 290.595L330.439 290.37C330.233 290.098 330.01 289.804 329.787 289.51C325.51 283.866 321.674 278.732 318.928 274.992C317.636 273.205 316.556 271.712 315.707 270.54C314.96 269.477 314.567 268.875 314.608 268.843C314.65 268.811 315.124 269.353 315.944 270.358C316.843 271.492 317.989 272.936 319.359 274.664C322.217 278.32 326.121 283.403 330.398 289.047C330.621 289.342 330.844 289.635 331.05 289.908L330.614 289.78C337.036 287.441 342.818 285.378 347.002 283.924C348.993 283.249 350.654 282.685 351.963 282.242C353.138 281.86 353.793 281.672 353.812 281.72Z" fill="black"/>
</g>
</g>
<path d="M325.928 283.789C326.021 283.979 321.767 286.247 316.428 288.853C311.087 291.461 306.685 293.42 306.591 293.229C306.498 293.039 310.751 290.771 316.092 288.165C321.431 285.559 325.835 283.599 325.928 283.789Z" fill="#055DA9"/>
<g opacity="0.2">
<g opacity="0.2">
<path opacity="0.2" d="M325.928 283.789C326.021 283.979 321.767 286.247 316.428 288.853C311.087 291.461 306.685 293.42 306.591 293.229C306.498 293.039 310.751 290.771 316.092 288.165C321.431 285.559 325.835 283.599 325.928 283.789Z" fill="black"/>
</g>
</g>
<path d="M345.665 304.814C345.494 304.889 343.726 301.205 341.717 296.587C339.707 291.968 338.217 288.164 338.388 288.089C338.559 288.014 340.327 291.697 342.337 296.316C344.345 300.935 345.836 304.74 345.665 304.814Z" fill="#055DA9"/>
<g opacity="0.2">
<g opacity="0.2">
<path opacity="0.2" d="M345.665 304.814C345.494 304.889 343.726 301.205 341.717 296.587C339.707 291.968 338.217 288.164 338.388 288.089C338.559 288.014 340.327 291.697 342.337 296.316C344.345 300.935 345.836 304.74 345.665 304.814Z" fill="black"/>
</g>
</g>
<path d="M316.77 274.832C314.045 276.835 310.211 276.249 308.208 273.523C306.207 270.798 306.792 266.965 309.517 264.962C312.244 262.959 316.076 263.546 318.079 266.271C320.082 268.997 319.496 272.829 316.77 274.832Z" fill="#055CA8"/>
<path d="M317.01 268.777C317.066 268.878 315.226 270.017 312.899 271.323C312.561 271.511 312.233 271.692 311.917 271.868L311.741 271.965L311.644 271.792C310.597 269.938 309.879 268.532 309.964 268.482C310.049 268.433 310.909 269.759 311.993 271.59L311.72 271.515C312.037 271.335 312.361 271.151 312.697 270.96C315.022 269.655 316.954 268.677 317.01 268.777Z" fill="white"/>
<path d="M328.643 248.854L308.104 242.106L303.906 254.884L324.446 261.631L328.643 248.854Z" fill="#75A1C7"/>
<g opacity="0.2">
<path opacity="0.2" d="M328.643 248.854L308.104 242.106L303.906 254.884L324.446 261.631L328.643 248.854Z" fill="black"/>
</g>
<path d="M328.636 248.837C328.646 248.862 328.32 249.009 327.72 249.253C327.045 249.516 326.19 249.852 325.164 250.252C322.996 251.081 319.982 252.206 316.62 253.436L316.481 253.486L316.392 253.367C316.283 253.225 316.167 253.071 316.05 252.917C313.81 249.961 311.8 247.27 310.361 245.311C309.684 244.375 309.118 243.592 308.675 242.978C308.283 242.422 308.078 242.107 308.099 242.091C308.121 242.074 308.37 242.357 308.799 242.885C309.27 243.479 309.871 244.236 310.587 245.14C312.084 247.056 314.129 249.718 316.371 252.676C316.488 252.831 316.604 252.984 316.712 253.128L316.484 253.061C319.849 251.836 322.878 250.754 325.07 249.993C326.113 249.639 326.984 249.343 327.67 249.112C328.282 248.91 328.626 248.811 328.636 248.837Z" fill="#055DA9"/>
<g opacity="0.2">
<g opacity="0.2">
<path opacity="0.2" d="M328.636 248.837C328.646 248.862 328.32 249.009 327.72 249.253C327.045 249.516 326.19 249.852 325.164 250.252C322.996 251.081 319.982 252.206 316.62 253.436L316.481 253.486L316.392 253.367C316.283 253.225 316.167 253.071 316.05 252.917C313.81 249.961 311.8 247.27 310.361 245.311C309.684 244.375 309.118 243.592 308.675 242.978C308.283 242.422 308.078 242.107 308.099 242.091C308.121 242.074 308.37 242.357 308.799 242.885C309.27 243.479 309.871 244.236 310.587 245.14C312.084 247.056 314.129 249.718 316.371 252.676C316.488 252.831 316.604 252.984 316.712 253.128L316.484 253.061C319.849 251.836 322.878 250.754 325.07 249.993C326.113 249.639 326.984 249.343 327.67 249.112C328.282 248.91 328.626 248.811 328.636 248.837Z" fill="#055DA9"/>
</g>
</g>
<path d="M314.033 249.921C314.082 250.021 311.853 251.209 309.056 252.573C306.259 253.94 303.952 254.965 303.903 254.867C303.854 254.768 306.083 253.579 308.881 252.214C311.677 250.848 313.985 249.82 314.033 249.921Z" fill="#055DA9"/>
<g opacity="0.2">
<g opacity="0.2">
<path opacity="0.2" d="M314.033 249.921C314.082 250.021 311.853 251.209 309.056 252.573C306.259 253.94 303.952 254.965 303.903 254.867C303.854 254.768 306.083 253.579 308.881 252.214C311.677 250.848 313.985 249.82 314.033 249.921Z" fill="#055DA9"/>
</g>
</g>
<path d="M324.811 261.736C324.709 261.781 323.659 259.594 322.468 256.852C321.274 254.11 320.391 251.852 320.492 251.807C320.594 251.763 321.644 253.95 322.836 256.692C324.029 259.434 324.913 261.692 324.811 261.736Z" fill="#055DA9"/>
<g opacity="0.2">
<g opacity="0.2">
<path opacity="0.2" d="M324.811 261.736C324.709 261.781 323.659 259.594 322.468 256.852C321.274 254.11 320.391 251.852 320.492 251.807C320.594 251.763 321.644 253.95 322.836 256.692C324.029 259.434 324.913 261.692 324.811 261.736Z" fill="#055DA9"/>
</g>
</g>
<path d="M163.673 88.854C159.719 104.438 143.88 113.867 128.295 109.912C112.711 105.958 103.283 90.1183 107.237 74.5341C111.192 58.9499 127.031 49.5213 142.615 53.4759C158.199 57.4291 167.628 73.2684 163.673 88.854Z" fill="#5085B4"/>
<path d="M146.256 65.9142C146.763 66.1121 143.451 75.8571 138.858 87.6777C138.183 89.3894 137.531 91.044 136.898 92.6498L136.547 93.5391L135.667 93.2004C126.226 89.5567 119.336 86.5639 119.499 86.1276C119.662 85.6927 126.825 87.9564 136.339 91.4036L135.11 91.9542C135.726 90.3429 136.363 88.6799 137.019 86.9626C141.614 75.1434 145.748 65.7176 146.256 65.9142Z" fill="white"/>
<path d="M521.46 500.783C526.552 498.155 532.549 497.814 538.202 498.749C541.24 499.251 544.405 500.16 546.473 502.442C548.54 504.723 548.932 508.738 546.558 510.698C545.146 511.865 543.175 512.042 541.343 512.021C536.917 511.969 532.006 511.19 528.47 513.852C526.453 515.372 525.109 517.898 522.698 518.645C520.338 519.375 517.675 517.983 516.424 515.854C515.172 513.724 515.131 511.062 515.714 508.663C515.716 508.661 516.33 503.43 521.46 500.783Z" fill="#5085B4"/>
<path d="M509.8 478.26C512.914 482.708 518.966 481.235 521.772 478.521C524.578 475.807 525.764 471.872 526.845 468.119C529.312 459.546 531.799 450.553 529.964 441.824C529.416 439.214 528.441 436.611 526.606 434.674C524.772 432.738 521.952 431.587 519.373 432.267C516.322 433.073 514.425 436.063 513.054 438.905C509.024 447.262 506.892 456.527 506.86 465.805C506.844 470.139 507.355 474.683 509.8 478.26Z" fill="#5085B4"/>
<path d="M501.247 484.643C504.627 480.63 505.27 474.778 503.765 469.75C502.261 464.724 498.861 460.447 494.944 456.956C490.351 452.863 484.952 449.676 479.149 447.636C476.866 446.833 474.456 446.199 472.046 446.429C469.636 446.659 467.209 447.891 466.084 450.035C464.422 453.204 466.015 457.05 467.74 460.187C470.777 465.714 474.249 471.001 478.113 475.984C481.223 479.993 484.785 483.948 489.523 485.758C494.262 487.571 499.184 487.357 501.696 484.07" fill="#5085B4"/>
<path d="M509.592 545.351C509.651 545.354 509.745 544.634 509.874 543.33C510.017 541.859 510.197 540.012 510.41 537.815C510.667 535.494 511.007 532.733 511.651 529.725C512.294 526.725 513.3 523.475 514.591 520.176C515.929 516.899 517.56 513.921 519.467 511.537C521.36 509.144 523.561 507.412 525.631 506.413C527.692 505.394 529.543 504.98 530.822 504.796C532.111 504.663 532.833 504.562 532.833 504.504C532.833 504.447 532.11 504.438 530.785 504.472C529.472 504.56 527.546 504.892 525.373 505.882C523.193 506.849 520.856 508.608 518.872 511.05C516.87 513.483 515.179 516.527 513.818 519.863C512.504 523.218 511.513 526.502 510.9 529.567C510.288 532.627 510.007 535.419 509.825 537.76C509.649 540.101 509.584 541.999 509.552 543.309C509.52 544.622 509.535 545.348 509.592 545.351Z" fill="#707070"/>
<path d="M509.971 541.106C510.001 541.105 510.017 540.781 510.026 540.168C510.024 539.464 510.022 538.576 510.019 537.486C510.012 535.16 510.013 531.792 510.139 527.632C510.345 519.315 511.06 507.834 512.444 495.215C513.838 482.592 515.684 471.237 517.368 463.089C517.765 461.047 518.166 459.208 518.544 457.6C518.904 455.987 519.21 454.597 519.507 453.471C519.762 452.412 519.969 451.549 520.133 450.864C520.267 450.265 520.325 449.947 520.298 449.939C520.27 449.93 520.158 450.233 519.971 450.818C519.767 451.493 519.509 452.343 519.192 453.387C518.847 454.502 518.494 455.884 518.09 457.49C517.669 459.093 517.227 460.926 516.79 462.965C514.955 471.101 513.012 482.472 511.615 495.122C510.228 507.767 509.605 519.281 509.549 527.62C509.5 531.789 509.588 535.164 509.695 537.492C509.762 538.58 509.817 539.468 509.858 540.172C509.904 540.787 509.943 541.108 509.971 541.106Z" fill="#707070"/>
<path d="M510.022 518.899C510.08 518.897 510.07 517.902 510.003 516.098C509.9 514.299 509.652 511.696 509.144 508.51C508.608 505.33 507.856 501.554 506.676 497.453C505.553 493.335 504.012 488.89 502.052 484.369C498.217 475.271 493.005 467.833 488.474 463.226C487.41 462.004 486.227 461.121 485.279 460.257C484.788 459.843 484.356 459.429 483.914 459.102C483.471 458.796 483.057 458.512 482.675 458.247C481.183 457.227 480.347 456.689 480.316 456.737C480.182 456.919 483.657 458.965 488.047 463.633C492.417 468.292 497.483 475.68 501.287 484.701C503.23 489.184 504.783 493.587 505.937 497.665C507.149 501.727 507.955 505.464 508.563 508.613C509.141 511.767 509.476 514.343 509.678 516.127C509.845 517.91 509.965 518.9 510.022 518.899Z" fill="#707070"/>
<path d="M298.016 335.136H356.37L379.488 270.562H376.249L353.331 331.984L298.016 332.297V335.136Z" fill="#455A64"/>
<path d="M272.223 343.289L274.387 545.53H280.319L277.907 341.793L272.223 343.289Z" fill="#707070"/>
<path d="M397.15 341.321C396.35 345.182 402.501 546 402.501 546H408.105L403.57 341.321H397.15Z" fill="#707070"/>
<path d="M465.384 335.138H217.219V345.361H237.698L224.375 544.879L230.205 545.195L243.545 345.361H444.5L454.239 545.282H460.084L450.345 345.361H465.384V335.138Z" fill="#707070"/>
<path d="M325.319 537.931L325.377 522.596L296.655 522.304L296.332 544.736L298.112 544.869C306.034 545.39 338.426 546.958 343.74 545.407C349.667 543.676 325.319 537.931 325.319 537.931Z" fill="#75A1C7"/>
<path d="M306.758 544.619C306.374 542.216 305.062 539.972 303.155 538.458C301.248 536.944 298.891 536.131 296.463 536.302L296.375 544.329L306.758 544.619Z" fill="#F5F5F5"/>
<path d="M337.214 541.161C337.214 541.161 345.742 543.716 344.66 545.114C343.579 546.512 310.785 546.158 296.334 544.735L296.387 544.094L334.635 544.833C334.635 544.834 335.541 541.214 337.214 541.161Z" fill="#F5F5F5"/>
<path d="M381.883 522.446L375.627 508.445L349.328 519.995L358.263 540.574L359.94 539.962C367.374 537.178 397.543 525.281 401.748 521.679C406.439 517.665 381.883 522.446 381.883 522.446Z" fill="#75A1C7"/>
<path d="M367.707 536.182C366.367 534.15 364.249 532.644 361.889 532.049C359.529 531.454 357.045 531.684 354.902 532.837L358.125 540.19L367.707 536.182Z" fill="#F5F5F5"/>
<path d="M394.051 520.497C394.051 520.497 402.874 519.316 402.465 521.035C402.055 522.754 372.02 535.924 358.263 540.574L358.047 539.967L393.212 524.905C393.212 524.906 392.548 521.234 394.051 520.497Z" fill="#F5F5F5"/>
<path d="M121.2 419.985L100.462 264.988C99.9067 260.843 103.33 257.248 107.497 257.601L157.486 261.823C162.092 262.212 165.744 265.87 166.126 270.475L178.299 417.225L121.2 419.985Z" fill="#9EBDD8"/>
<path opacity="0.2" d="M122.2 419.986L101.462 264.989C100.907 260.844 104.33 257.249 108.497 257.602L158.486 261.824C163.092 262.213 166.744 265.871 167.126 270.476L179.299 417.226L122.2 419.986Z" fill="black"/>
<path d="M169.437 192.194C169.019 186.294 167.469 180.537 166.612 174.684C165.755 168.831 165.628 162.658 167.939 157.212C170.552 151.055 176.116 146.446 182.349 144.024C188.584 141.602 195.448 141.195 202.111 141.769C203.31 141.872 204.538 142.016 205.609 142.566C206.679 143.117 207.573 144.162 207.612 145.365C207.651 146.568 206.576 147.786 205.384 147.622C207.918 147.973 210.476 148.33 212.872 149.226C213.826 149.583 214.81 150.08 215.295 150.974C215.846 151.992 215.592 153.293 214.96 154.261C214.33 155.23 213.38 155.938 212.449 156.625C213.618 156.255 214.894 157.26 215.158 158.457C215.425 159.654 214.917 160.902 214.202 161.899C213.487 162.895 212.564 163.728 211.827 164.709C208.812 168.718 209.403 174.282 210.135 179.245" fill="#707070"/>
<path d="M169.982 226.826L198.152 226.317C198.529 223.055 199.077 210.379 199.077 210.379C199.077 210.379 210.851 209.284 211.715 197.633C212.578 185.981 212.209 159.079 212.209 159.079C199.068 152.445 183.367 153.442 171.17 161.686L169.359 162.91L169.982 226.826Z" fill="#FFDDCE"/>
<path d="M208.286 179.299C207.632 178.627 207.646 177.554 208.317 176.9C208.987 176.246 210.062 176.26 210.716 176.931C211.369 177.601 211.356 178.676 210.685 179.329C210.013 179.983 208.94 179.969 208.286 179.299Z" fill="#707070"/>
<path d="M211.274 176.467C211.079 176.658 209.988 175.705 208.383 175.598C206.779 175.468 205.56 176.249 205.396 176.032C205.315 175.934 205.52 175.581 206.052 175.226C206.575 174.872 207.455 174.554 208.456 174.628C209.455 174.702 210.279 175.145 210.744 175.572C211.218 176.004 211.369 176.383 211.274 176.467Z" fill="#707070"/>
<path d="M192.685 176.725C193.452 177.265 193.636 178.323 193.096 179.089C192.557 179.856 191.499 180.04 190.732 179.501C189.966 178.961 189.782 177.903 190.321 177.138C190.861 176.37 191.919 176.186 192.685 176.725Z" fill="#707070"/>
<path d="M193.743 176.806C193.548 176.997 192.456 176.045 190.852 175.938C189.248 175.807 188.029 176.589 187.865 176.371C187.784 176.274 187.987 175.921 188.52 175.566C189.043 175.212 189.922 174.894 190.923 174.968C191.923 175.042 192.746 175.485 193.212 175.911C193.687 176.342 193.838 176.721 193.743 176.806Z" fill="#707070"/>
<path d="M199.375 190.453C199.372 190.326 200.377 190.187 202.006 190.063C202.429 190.043 202.765 189.968 202.809 189.743C202.9 189.494 202.766 189.035 202.584 188.522C202.236 187.435 201.884 186.334 201.514 185.181C200.047 180.424 199.053 176.507 199.294 176.433C199.535 176.359 200.921 180.153 202.388 184.911C202.733 186.072 203.063 187.179 203.388 188.274C203.512 188.769 203.77 189.354 203.511 190.035C203.373 190.375 203.027 190.605 202.745 190.661C202.462 190.728 202.225 190.714 202.023 190.711C200.39 190.668 199.378 190.58 199.375 190.453Z" fill="#707070"/>
<path d="M194.041 191.905C192.428 190.806 198.497 194.637 201.776 194.679C201.776 194.679 199.716 197.561 196.429 196.123C193.018 194.63 194.041 191.905 194.041 191.905Z" fill="white"/>
<path d="M199.104 210.212C199.104 210.212 191.698 210.357 184.168 204.954C184.168 204.954 187.244 213.569 198.945 213.235L199.104 210.212Z" fill="#CCB1A5"/>
<path d="M168.988 171.749L169.597 186.873C169.597 186.873 174.9 185.261 175.256 185.107C175.613 184.952 175.156 166.584 175.156 166.584C175.156 166.584 174.413 159.656 178.932 158.013C183.68 156.286 185.751 159.734 192.481 160.868C214.689 164.609 213.158 157.795 213.158 157.795C213.158 157.795 215.959 154.804 210.257 151.509C204.366 148.105 190.289 147.107 182.48 149.796C167.108 155.087 166.227 160.334 166.227 164.978C166.225 171.47 168.988 171.749 168.988 171.749Z" fill="#707070"/>
<path d="M171.602 173.255C171.35 173.159 162.951 172.067 163.744 181.985C164.537 191.903 174.291 187.822 174.285 187.536C174.28 187.25 171.602 173.255 171.602 173.255Z" fill="#FFDDCE"/>
<path d="M170.977 184.298C170.931 184.27 170.814 184.433 170.532 184.591C170.258 184.744 169.775 184.872 169.243 184.721C168.164 184.419 167.149 182.826 166.958 181.043C166.861 180.143 166.98 179.267 167.244 178.531C167.489 177.782 167.917 177.238 168.437 177.101C168.951 176.938 169.352 177.224 169.495 177.493C169.65 177.759 169.602 177.963 169.657 177.975C169.686 177.999 169.856 177.793 169.743 177.388C169.686 177.195 169.551 176.97 169.303 176.799C169.049 176.625 168.691 176.553 168.327 176.623C167.566 176.737 166.934 177.496 166.644 178.306C166.314 179.121 166.158 180.107 166.267 181.117C166.49 183.111 167.663 184.899 169.13 185.199C169.842 185.325 170.407 185.068 170.688 184.81C170.978 184.539 171.013 184.314 170.977 184.298Z" fill="#CCB1A5"/>
<path d="M282.305 306.95C282.305 306.95 296.183 306.285 299.075 307.546C303.908 309.654 318.258 332.159 317.534 332.163C315.367 332.176 310.893 332.143 310.893 332.143L288.556 323.688L283.307 325.018L282.305 306.95Z" fill="#FFDDCE"/>
<path d="M342.242 371.548C342.242 371.548 383.99 516.024 384.05 515.282C384.11 514.54 346.666 533.306 346.666 533.306L321.379 428.841L342.242 371.548Z" fill="#5085B4"/>
<path d="M345.842 534.191L385.354 514.91L383.638 509.634L343.82 528.937L345.842 534.191Z" fill="#055CA8"/>
<path d="M147.66 361.508C148.011 353.85 143.66 403.502 181.823 404.82C220.026 406.14 297.968 405.555 297.968 405.555L288.838 531.466H334.623L344.191 397.57C344.191 397.57 349.066 358.765 322.517 353.811C305.897 350.709 202.566 349.711 202.566 349.711L147.66 361.508Z" fill="#75A1C7"/>
<path d="M287.797 531.738H336.012V524.24L287.797 524.299V531.738Z" fill="#055CA8"/>
<path d="M301.29 526.794C301.08 526.773 300.915 526.698 300.922 526.625C300.929 526.553 301.106 526.511 301.317 526.532C301.527 526.553 301.692 526.628 301.685 526.7C301.678 526.771 301.501 526.815 301.29 526.794Z" fill="#455A64"/>
<path d="M214.267 301.469C214.267 301.469 209.597 251.442 201.301 229.539L202.954 228.297L200.484 219.676L169.455 215.912L169.931 222.643C165.281 224.896 161.381 228.349 159.319 232.73C148.204 256.349 153.684 283.914 147.757 335.011C147.757 335.011 140.821 358.974 147.991 366.471L215.685 350.693L212.455 335.247C242.006 334.682 290.597 329.249 290.597 329.249L289.242 301.292C289.244 301.293 216.644 301.728 214.267 301.469Z" fill="#707070"/>
<path d="M200.421 219.634C200.622 219.569 201.626 222.079 202.663 225.242C202.894 226.046 203.229 226.735 203.28 227.602C203.298 228.027 203.141 228.479 202.883 228.769C202.631 229.064 202.328 229.242 202.045 229.355C200.874 229.716 200.208 229.459 200.204 229.403C200.177 229.262 200.936 229.277 201.819 228.863C202.245 228.63 202.642 228.211 202.576 227.63C202.523 227.047 202.171 226.269 201.936 225.482C200.898 222.317 200.221 219.7 200.421 219.634Z" fill="#E0E0E0"/>
<path d="M207.822 256.886C207.822 257.098 195.345 257.27 179.957 257.27C164.564 257.27 152.09 257.098 152.09 256.886C152.09 256.674 164.564 256.503 179.957 256.503C195.345 256.503 207.822 256.674 207.822 256.886Z" fill="#263238"/>
<path d="M204.913 242.79C204.913 243.001 193.853 243.173 180.214 243.173C166.57 243.173 155.512 243.001 155.512 242.79C155.512 242.578 166.57 242.406 180.214 242.406C193.853 242.406 204.913 242.578 204.913 242.79Z" fill="#263238"/>
<path d="M200.84 230.387C200.84 230.599 191.691 230.771 180.409 230.771C169.122 230.771 159.977 230.599 159.977 230.387C159.977 230.175 169.124 230.004 180.409 230.004C191.691 230.004 200.84 230.175 200.84 230.387Z" fill="#263238"/>
<path d="M200.433 221.645C200.433 221.857 193.424 222.028 184.78 222.028C176.134 222.028 169.125 221.857 169.125 221.645C169.125 221.433 176.132 221.262 184.78 221.262C193.424 221.262 200.433 221.433 200.433 221.645Z" fill="#263238"/>
<path d="M209.791 270.439C209.791 270.651 196.592 270.822 180.315 270.822C164.031 270.822 150.836 270.651 150.836 270.439C150.836 270.227 164.032 270.056 180.315 270.056C196.592 270.056 209.791 270.227 209.791 270.439Z" fill="#263238"/>
<path d="M212.191 284.056C212.191 284.268 198.456 284.44 181.515 284.44C164.569 284.44 150.836 284.268 150.836 284.056C150.836 283.844 164.569 283.673 181.515 283.673C198.456 283.673 212.191 283.846 212.191 284.056Z" fill="#263238"/>
<path d="M213.7 296.61C213.7 296.822 199.626 296.993 182.269 296.993C164.906 296.993 150.836 296.822 150.836 296.61C150.836 296.398 164.906 296.227 182.269 296.227C199.626 296.228 213.7 296.399 213.7 296.61Z" fill="#263238"/>
<path d="M282.31 310.333C282.31 310.544 252.616 310.716 215.996 310.716C179.362 310.716 149.676 310.544 149.676 310.333C149.676 310.121 179.364 309.949 215.996 309.949C252.616 309.949 282.31 310.121 282.31 310.333Z" fill="#263238"/>
<path d="M282.811 321.326C282.811 321.538 252.893 321.709 215.994 321.709C179.083 321.709 149.172 321.538 149.172 321.326C149.172 321.114 179.084 320.942 215.994 320.942C252.892 320.942 282.811 321.114 282.811 321.326Z" fill="#263238"/>
<path d="M211.44 334.875C211.44 335.086 197.143 335.258 179.513 335.258C161.875 335.258 147.582 335.086 147.582 334.875C147.582 334.663 161.875 334.491 179.513 334.491C197.143 334.493 211.44 334.664 211.44 334.875Z" fill="#263238"/>
<path d="M214.689 347.444C214.689 347.656 199.148 347.827 179.981 347.827C160.808 347.827 145.27 347.656 145.27 347.444C145.27 347.232 160.808 347.061 179.981 347.061C199.148 347.062 214.689 347.233 214.689 347.444Z" fill="#263238"/>
<path d="M155.575 350.774C155.363 350.774 155.191 326.396 155.191 296.33C155.191 266.254 155.363 241.88 155.575 241.88C155.787 241.88 155.958 266.253 155.958 296.33C155.958 326.396 155.785 350.774 155.575 350.774Z" fill="#263238"/>
<path d="M172.329 349.431C172.117 349.431 171.945 319.629 171.945 282.876C171.945 246.11 172.117 216.314 172.329 216.314C172.541 216.314 172.712 246.11 172.712 282.876C172.712 319.63 172.541 349.431 172.329 349.431Z" fill="#263238"/>
<path d="M190.829 347.441C190.617 347.441 190.445 318.71 190.445 283.277C190.445 247.83 190.617 219.105 190.829 219.105C191.041 219.105 191.212 247.83 191.212 283.277C191.211 318.71 191.039 347.441 190.829 347.441Z" fill="#263238"/>
<path d="M206.36 350.729C206.148 350.729 205.977 328.177 205.977 300.365C205.977 272.542 206.148 249.995 206.36 249.995C206.572 249.995 206.743 272.542 206.743 300.365C206.743 328.178 206.572 350.729 206.36 350.729Z" fill="#263238"/>
<path d="M222.825 301.406C222.931 301.412 222.981 303.284 222.978 306.305C222.975 309.327 222.918 313.497 222.808 318.101C222.698 322.707 222.556 326.876 222.413 329.894C222.271 332.912 222.132 334.78 222.026 334.78C221.92 334.78 221.868 332.912 221.871 329.891C221.874 326.869 221.931 322.694 222.041 318.083C222.151 313.474 222.294 309.3 222.436 306.282C222.578 303.264 222.719 301.401 222.825 301.406Z" fill="#263238"/>
<path d="M240.319 301.99C240.425 301.996 240.478 303.749 240.481 306.58C240.482 309.412 240.432 313.317 240.329 317.632C240.226 321.946 240.089 325.852 239.952 328.679C239.816 331.505 239.678 333.255 239.572 333.255C239.466 333.255 239.412 331.505 239.41 328.674C239.409 325.843 239.459 321.932 239.562 317.612C239.665 313.294 239.802 309.385 239.938 306.557C240.076 303.73 240.214 301.985 240.319 301.99Z" fill="#263238"/>
<path d="M257.822 301.684C257.928 301.689 257.982 303.39 257.986 306.133C257.99 308.878 257.943 312.664 257.843 316.845C257.742 321.029 257.61 324.813 257.475 327.554C257.339 330.294 257.203 331.991 257.098 331.991C256.992 331.991 256.938 330.294 256.934 327.551C256.93 324.808 256.977 321.015 257.077 316.827C257.178 312.641 257.31 308.851 257.445 306.111C257.581 303.37 257.716 301.678 257.822 301.684Z" fill="#263238"/>
<path d="M275.356 301.185C275.462 301.19 275.518 302.841 275.523 305.503C275.529 308.165 275.484 311.84 275.387 315.898C275.289 319.955 275.16 323.628 275.026 326.288C274.893 328.948 274.758 330.592 274.652 330.592C274.546 330.592 274.49 328.946 274.485 326.285C274.479 323.623 274.524 319.944 274.621 315.879C274.719 311.817 274.85 308.14 274.982 305.481C275.116 302.821 275.252 301.18 275.356 301.185Z" fill="#263238"/>
<path d="M208.189 307.703C208.012 307.611 208.964 305.564 210.809 303.509C212.645 301.446 214.573 300.27 214.685 300.435C214.817 300.614 213.153 302.024 211.38 304.019C209.597 306.003 208.381 307.816 208.189 307.703Z" fill="#263238"/>
<path d="M212.2 308.04C212.006 308.078 211.666 306.096 212.504 303.837C213.323 301.571 214.864 300.279 214.988 300.433C215.156 300.585 213.974 302.009 213.223 304.101C212.445 306.182 212.427 308.033 212.2 308.04Z" fill="#263238"/>
<path d="M283.521 329.102C283.311 329.122 282.597 323.131 281.928 315.723C281.259 308.313 280.887 302.293 281.099 302.274C281.309 302.255 282.023 308.245 282.692 315.655C283.36 323.062 283.732 329.084 283.521 329.102Z" fill="#263238"/>
<path d="M284.465 307.552C284.526 307.651 284.074 307.926 284.024 308.624C283.999 308.955 284.086 309.377 284.36 309.642C284.618 309.912 285.092 309.975 285.534 309.787C285.974 309.593 286.253 309.204 286.231 308.831C286.225 308.45 285.976 308.099 285.718 307.89C285.173 307.451 284.665 307.591 284.635 307.48C284.558 307.416 285.146 306.98 286.013 307.437C286.406 307.657 286.857 308.095 286.936 308.783C287.028 309.486 286.518 310.212 285.839 310.491C285.173 310.796 284.293 310.672 283.844 310.124C283.396 309.596 283.384 308.967 283.492 308.531C283.75 307.584 284.47 307.452 284.465 307.552Z" fill="#263238"/>
<path d="M214.183 301.333C214.185 301.324 214.303 301.327 214.533 301.343C214.791 301.363 215.127 301.389 215.559 301.423C216.461 301.522 217.805 301.605 219.561 301.665C223.071 301.812 228.227 301.879 234.788 301.825C247.909 301.734 266.654 301.253 289.122 300.363L289.451 300.35L289.468 300.679C289.903 309.363 290.378 318.853 290.877 328.807L290.893 329.124L290.601 329.179C287.03 329.857 283.432 330.13 279.734 330.508C276.042 330.828 272.281 331.156 268.463 331.488C260.823 332.109 252.947 332.694 244.922 333.264C234.83 333.945 224.975 334.61 215.463 335.253L215.439 335.254L215.414 335.253C206.875 334.702 198.574 331.638 192.781 326.008C189.853 323.258 187.664 319.876 186.207 316.347C184.714 312.823 183.773 309.214 182.906 305.721C179.463 291.726 177.295 279.087 175.598 268.55C174.756 263.28 174.049 258.526 173.44 254.367C172.859 250.209 172.209 246.645 172.209 243.68C172.167 240.722 172.804 238.441 173.579 237.102C174.346 235.751 174.998 235.242 174.998 235.242C175.043 235.277 174.414 235.815 173.699 237.166C172.976 238.505 172.392 240.751 172.474 243.677C172.513 246.603 173.2 250.153 173.819 254.31C174.482 258.465 175.239 263.207 176.08 268.472C177.843 278.992 180.065 291.607 183.544 305.563C184.421 309.045 185.366 312.621 186.841 316.078C188.284 319.545 190.412 322.809 193.276 325.494C198.933 330.972 207.063 333.97 215.464 334.503H215.417C224.926 333.856 234.781 333.186 244.871 332.5C252.891 331.898 260.764 331.308 268.404 330.734C272.22 330.406 275.978 330.084 279.667 329.766C283.338 329.4 287.005 329.114 290.427 328.473L290.153 328.843C289.677 318.889 289.223 309.398 288.807 300.713L289.152 301.028C266.672 301.853 247.922 302.237 234.791 302.215C228.227 302.212 223.067 302.084 219.553 301.871C217.795 301.779 216.451 301.662 215.549 301.529C215.118 301.474 214.784 301.43 214.527 301.397C214.297 301.362 214.182 301.341 214.183 301.333Z" fill="#263238"/>
<path d="M214.175 301.333C214.124 301.347 213.873 300.566 213.461 299.146C213.046 297.726 212.488 295.658 211.828 293.098C210.501 287.976 208.829 280.862 207.049 272.993C205.269 265.123 203.627 258.008 202.401 252.867C201.815 250.397 201.33 248.347 200.958 246.776C200.625 245.335 200.466 244.532 200.517 244.518C200.569 244.504 200.825 245.282 201.246 246.701C201.672 248.118 202.243 250.181 202.926 252.736C204.288 257.849 206.015 264.953 207.795 272.824C209.56 280.626 211.157 287.684 212.353 292.971C212.919 295.445 213.389 297.498 213.75 299.074C214.072 300.515 214.227 301.319 214.175 301.333Z" fill="#263238"/>
<path d="M200.516 220.215C200.568 220.225 200.515 220.773 200.373 221.755C200.231 222.738 200.002 224.154 199.702 225.902C199.521 226.782 199.46 227.713 199.116 228.795C198.937 229.313 198.543 229.928 197.865 230.147C197.202 230.356 196.563 230.203 195.997 230.09C193.693 229.617 191.181 229.004 188.568 228.289C183.339 226.852 178.679 225.342 175.293 224.301C173.732 223.811 172.397 223.393 171.288 223.046C170.343 222.746 169.826 222.557 169.84 222.505C169.854 222.454 170.396 222.547 171.366 222.759C172.335 222.975 173.731 223.318 175.444 223.781C178.874 224.69 183.563 226.118 188.77 227.55C191.374 228.262 193.865 228.894 196.145 229.4C196.711 229.531 197.243 229.635 197.657 229.506C198.069 229.384 198.35 229.012 198.522 228.567C198.84 227.668 198.964 226.647 199.17 225.799C199.538 224.065 199.849 222.663 200.08 221.698C200.312 220.734 200.465 220.205 200.516 220.215Z" fill="#263238"/>
<path d="M176.129 413.191L185.867 545.437L189.944 544.488L188.43 415.983L176.129 413.191Z" fill="#707070"/>
<path d="M134.837 417.79L105.246 545.279H110.597L152.959 417.79H134.837Z" fill="#707070"/>
<path d="M213.107 417.79L253.476 545.279H257.801L225.723 417.79H213.107Z" fill="#707070"/>
<path d="M218.515 426.355L128.047 485.465V488.709L221.036 426.355H218.515Z" fill="#707070"/>
<path d="M141.738 426.354L239.775 492.313V487.267L144.622 423.472L141.738 426.354Z" fill="#707070"/>
<path d="M121.315 419.986L237.877 417.872C242.282 417.792 245.656 413.928 245.142 409.553C244.696 405.754 241.445 402.909 237.622 402.971L119.406 404.871L121.315 419.986Z" fill="#9EBDD8"/>
<g opacity="0.2">
<path opacity="0.2" d="M121.315 419.986L237.877 417.872C242.282 417.792 245.656 413.928 245.142 409.553C244.696 405.754 241.445 402.909 237.622 402.971L119.406 404.871L121.315 419.986Z" fill="black"/>
</g>
<path d="M109.441 329.881L121.198 419.985L213.108 417.789L212.873 363.066C212.998 353.964 205.217 346.754 196.151 347.571L126.064 353.893L116.84 258.39L107.527 257.604C103.35 257.251 99.9235 260.863 100.496 265.017L109.441 329.881Z" fill="#9EBDD8"/>
<path d="M304.159 33.6357L290.381 44.1306L291.052 64.1754L278.43 54.1544L271.463 60.1204L244.977 27.4243L304.159 33.6357Z" fill="#75A1C7"/>
<path d="M285.2 48.3979C285.221 49.0113 291.052 64.1745 291.052 64.1745L278.43 54.1535L285.2 48.3979Z" fill="#75A1C7"/>
<g opacity="0.3">
<path opacity="0.3" d="M285.2 48.3979C285.221 49.0113 291.052 64.1745 291.052 64.1745L278.43 54.1535L285.2 48.3979Z" fill="black"/>
</g>
<path d="M244.977 27.4243L285.2 48.3989L291.052 64.1754L290.381 44.1306L244.977 27.4243Z" fill="#75A1C7"/>
<path opacity="0.1" d="M244.977 27.4243L285.2 48.3989L291.052 64.1754L290.381 44.1306L244.977 27.4243Z" fill="black"/>
</svg>

