<svg width="791" height="584" viewBox="0 0 791 584" fill="none" xmlns="http://www.w3.org/2000/svg">
<path d="M711.741 543.482H659.342V543.878H711.741V543.482Z" fill="#EBEBEB"/>
<path d="M523.989 547.774H510.236V548.17H523.989V547.774Z" fill="#EBEBEB"/>
<path d="M657.762 528.793H627.4V529.188H657.762V528.793Z" fill="#EBEBEB"/>
<path d="M151.325 531.45H82.9941V531.846H151.325V531.45Z" fill="#EBEBEB"/>
<path d="M175.421 531.45H165.402V531.846H175.421V531.45Z" fill="#EBEBEB"/>
<path d="M356.186 538.13H207.99V538.525H356.186V538.13Z" fill="#EBEBEB"/>
<path d="M374.958 447.464H69.4754C64.4968 447.464 60.4453 443.414 60.4453 438.434V9.03006C60.4453 4.0515 64.4968 0 69.4754 0H374.958C379.935 0 383.986 4.0515 383.986 9.03006V438.436C383.986 443.414 379.935 447.464 374.958 447.464ZM69.4754 0.3955C64.7135 0.3955 60.8408 4.26824 60.8408 9.03006V438.436C60.8408 443.197 64.7135 447.07 69.4754 447.07H374.958C379.718 447.07 383.591 443.197 383.591 438.436V9.03006C383.591 4.26982 379.718 0.3955 374.958 0.3955H69.4754Z" fill="#EBEBEB"/>
<path d="M717.133 447.464H411.652C406.673 447.464 402.623 443.414 402.623 438.434V9.03006C402.623 4.0515 406.675 0 411.652 0H717.133C722.113 0 726.163 4.0515 726.163 9.03006V438.436C726.164 443.414 722.113 447.464 717.133 447.464ZM411.652 0.3955C406.891 0.3955 403.019 4.26824 403.019 9.03006V438.436C403.019 443.197 406.891 447.07 411.652 447.07H717.133C721.894 447.07 725.767 443.197 725.767 438.436V9.03006C725.767 4.26982 721.894 0.3955 717.133 0.3955H411.652Z" fill="#EBEBEB"/>
<path d="M791 518.021H0V518.416H791V518.021Z" fill="#EBEBEB"/>
<path d="M400.197 373.949H263.5V501.322H400.197V373.949Z" fill="#E6E6E6"/>
<path d="M285.236 505.323H267.791V516.453H285.236V505.323Z" fill="#E0E0E0"/>
<path d="M677.778 373.949H400.203V500.087H677.778V373.949Z" fill="#E6E6E6"/>
<path d="M698.968 364.566H681.521V516.454H698.968V364.566Z" fill="#E6E6E6"/>
<path d="M534.06 383.99H413.727V494.197H534.06V383.99Z" fill="#F5F5F5"/>
<path d="M434.049 494.197H466.17L477.752 383.99H445.631L434.049 494.197Z" fill="#FAFAFA"/>
<path d="M474.391 494.197H480.784L492.367 383.99H485.972L474.391 494.197Z" fill="#FAFAFA"/>
<path d="M396.851 383.99H276.518V494.197H396.851V383.99Z" fill="#F5F5F5"/>
<path d="M672.575 383.99H552.242V494.197H672.575V383.99Z" fill="#F5F5F5"/>
<path d="M677.071 364.566H672.418H405.003H404.695H400.352H395.7H267.833H263.182H258.529V516.454H267.833V507.943H395.7H405.003H672.42V516.454H681.724V364.566H677.071ZM267.833 378.314H395.7V431.069H267.833V378.314ZM267.833 494.194V438.925H395.7V494.194H267.833ZM534.06 494.194H405.003V378.314H534.06V494.194ZM672.42 494.194H543.364V438.925H672.42V494.194ZM672.42 431.069H543.364V378.314H672.42V431.069Z" fill="#F0F0F0"/>
<path d="M338.66 397.055C338.66 400.143 336.157 402.645 333.069 402.645C329.981 402.645 327.479 400.143 327.479 397.055C327.479 393.967 329.981 391.464 333.069 391.464C336.157 391.464 338.66 393.967 338.66 397.055Z" fill="#EBEBEB"/>
<path d="M333.069 402.645C330.815 402.645 328.883 401.303 327.999 399.381C327.673 400.091 327.479 400.874 327.479 401.706C327.479 404.794 329.981 407.297 333.069 407.297C336.157 407.297 338.66 404.794 338.66 401.706C338.66 400.874 338.466 400.091 338.14 399.381C337.255 401.303 335.324 402.645 333.069 402.645Z" fill="#E0E0E0"/>
<path d="M333.069 467.602C336.157 467.602 338.66 465.099 338.66 462.012C338.66 458.924 336.157 456.421 333.069 456.421C329.982 456.421 327.479 458.924 327.479 462.012C327.479 465.099 329.982 467.602 333.069 467.602Z" fill="#EBEBEB"/>
<path d="M333.069 467.603C330.815 467.603 328.883 466.262 327.999 464.338C327.673 465.048 327.479 465.831 327.479 466.663C327.479 469.751 329.981 472.254 333.069 472.254C336.157 472.254 338.66 469.751 338.66 466.663C338.66 465.83 338.466 465.047 338.14 464.338C337.255 466.262 335.324 467.603 333.069 467.603Z" fill="#E0E0E0"/>
<path d="M620.725 397.055C620.725 400.143 618.222 402.645 615.134 402.645C612.046 402.645 609.543 400.143 609.543 397.055C609.543 393.967 612.046 391.464 615.134 391.464C618.222 391.464 620.725 393.967 620.725 397.055Z" fill="#EBEBEB"/>
<path d="M615.134 402.644C612.879 402.644 610.948 401.302 610.063 399.38C609.736 400.09 609.543 400.873 609.543 401.705C609.543 404.793 612.046 407.296 615.134 407.296C618.222 407.296 620.725 404.793 620.725 401.705C620.725 400.873 620.53 400.09 620.204 399.38C619.32 401.302 617.39 402.644 615.134 402.644Z" fill="#E0E0E0"/>
<path d="M522.701 442.314C522.701 445.402 520.198 447.905 517.11 447.905C514.022 447.905 511.52 445.402 511.52 442.314C511.52 439.226 514.022 436.724 517.11 436.724C520.197 436.724 522.701 439.226 522.701 442.314Z" fill="#EBEBEB"/>
<path d="M517.11 447.906C514.854 447.906 512.924 446.564 512.04 444.641C511.713 445.351 511.52 446.134 511.52 446.966C511.52 450.054 514.022 452.557 517.11 452.557C520.198 452.557 522.701 450.054 522.701 446.966C522.701 446.132 522.506 445.349 522.181 444.641C521.296 446.564 519.365 447.906 517.11 447.906Z" fill="#E0E0E0"/>
<path d="M615.134 467.602C618.221 467.602 620.725 465.099 620.725 462.012C620.725 458.924 618.221 456.421 615.134 456.421C612.046 456.421 609.543 458.924 609.543 462.012C609.543 465.099 612.046 467.602 615.134 467.602Z" fill="#EBEBEB"/>
<path d="M615.134 467.602C612.879 467.602 610.948 466.261 610.063 464.337C609.736 465.047 609.543 465.83 609.543 466.662C609.543 469.751 612.046 472.253 615.134 472.253C618.222 472.253 620.725 469.751 620.725 466.662C620.725 465.829 620.53 465.046 620.204 464.337C619.32 466.261 617.39 467.602 615.134 467.602Z" fill="#E0E0E0"/>
<path opacity="0.1" d="M212.09 35.541H105.215V194.839H212.09V35.541Z" fill="black"/>
<path d="M207.752 31.2041H100.877V190.502H207.752V31.2041Z" fill="#EBEBEB"/>
<path d="M202.548 44.6748H110.42V181.992H202.548V44.6748Z" fill="#F5F5F5"/>
<path d="M179.435 97.0134C179.435 107.222 171.16 115.497 160.951 115.497C150.742 115.497 142.467 107.222 142.467 97.0134C142.467 86.8047 150.742 78.5293 160.951 78.5293C171.16 78.5293 179.435 86.8047 179.435 97.0134Z" fill="#E0E0E0"/>
<path d="M139.877 145.929L155.284 127.497L160.949 145.929H139.877Z" fill="#EBEBEB"/>
<path d="M126.865 65.0089C113.93 86.0716 123.286 112.225 137.98 129.403C140.237 132.041 144.034 128.215 141.791 125.592C128.67 110.253 119.921 86.6127 131.519 67.7283C133.337 64.7653 128.678 62.0553 126.865 65.0089Z" fill="#EBEBEB"/>
<path d="M190.706 63.7334L180.826 73.8345L190.706 82.295L199.687 73.0134L190.706 63.7334Z" fill="#EBEBEB"/>
<path d="M207.748 31.2041L212.084 35.5404V194.838H105.209L100.873 190.504H207.748V31.2041Z" fill="#E0E0E0"/>
<path d="M85.5449 361.502C85.5449 348.034 101.393 336.63 123.279 332.732L101.645 306.895H178.075L156.441 332.732C178.328 336.631 194.176 348.034 194.176 361.502C194.176 376.335 174.956 484.8 149.613 508.693L157.608 518.243H122.113L130.108 508.693C104.765 484.8 85.5449 376.335 85.5449 361.502Z" fill="#F0F0F0"/>
<path d="M169.143 472.716C160.026 466.096 153.744 452.383 153.744 436.492C153.744 414.141 166.139 396.022 181.429 396.022C184.027 396.022 186.53 396.582 188.912 397.56C184.533 420.362 177.648 449.415 169.143 472.716Z" fill="#E0E0E0"/>
<path d="M102.116 339.789C112.29 345.772 119.482 360.308 119.482 377.322C119.482 398.105 108.761 415.206 94.9641 417.506C89.0222 391.044 85.5449 367.808 85.5449 361.502C85.5449 352.977 91.903 345.28 102.116 339.789Z" fill="#E6E6E6"/>
<path d="M654.037 213.488C653.626 214.453 653.025 215.307 652.297 216.019C651.901 216.43 651.459 216.794 650.984 217.095C649.718 217.918 648.263 218.36 646.792 218.313C644.656 218.25 642.963 216.114 642.615 214.184C642.267 212.222 643.216 210.118 644.925 209.074L645.747 210.419C644.608 211.131 643.944 212.586 644.181 213.899C644.419 215.212 645.605 216.699 646.839 216.747C649.165 216.81 651.585 215.181 652.582 212.855C653.499 210.704 652.993 208.489 651.221 206.749C649.592 205.167 647.741 204.486 645.7 204.755C642.726 205.119 639.53 207.508 637.521 210.799C633.582 217.269 633.851 224.847 634.753 230.067C635.37 233.548 636.43 236.838 637.743 240.018C638.012 240.683 638.296 241.347 638.597 241.996C639.704 244.511 640.938 246.947 642.141 249.352C645.415 255.886 648.785 262.609 649.782 270.329C649.876 271.025 649.956 271.753 650.003 272.481C650.051 273.177 650.082 273.857 650.098 274.553C650.114 275.012 650.13 275.487 650.13 275.945C650.209 292.968 642.014 308.455 628.535 316.793C628.425 316.223 628.314 315.669 628.203 315.116C640.59 307.142 648.389 292.335 648.532 276.499C648.532 276.325 648.548 276.135 648.548 275.945C648.548 275.423 648.532 274.885 648.516 274.363C648.5 273.778 648.469 273.177 648.421 272.591C648.389 272.243 648.374 271.895 648.326 271.547C648.2 270.171 647.978 268.842 647.693 267.529C646.396 261.359 643.628 255.838 640.733 250.064C639.056 246.71 637.347 243.309 635.939 239.733C635.306 238.151 634.737 236.522 634.246 234.845C633.819 233.374 633.471 231.871 633.202 230.336C631.826 222.474 632.854 215.434 636.161 209.976C638.423 206.29 642.077 203.6 645.494 203.189C647.409 202.936 649.212 203.363 650.842 204.423C651.3 204.708 651.743 205.056 652.155 205.467C652.218 205.499 652.265 205.562 652.329 205.61C654.559 207.793 655.208 210.735 654.037 213.488Z" fill="#E6E6E6"/>
<path d="M648.284 271.564C645.543 266.157 640.207 261.085 636.393 260.256L636.728 258.709C641.022 259.642 646.717 264.974 649.697 270.849L648.284 271.564Z" fill="#E6E6E6"/>
<path d="M649.96 276.446L648.378 276.494C648.271 272.817 649.823 269.137 652.531 266.65L653.601 267.815C651.228 269.996 649.867 273.222 649.96 276.446Z" fill="#E6E6E6"/>
<path d="M635.9 239.76C633.537 236.253 629.855 231.809 625.801 227.566L626.945 226.475C628.892 228.511 633.79 233.796 637.213 238.877L635.9 239.76Z" fill="#E6E6E6"/>
<path d="M639.195 236.559L637.066 241.468L638.518 242.097L640.646 237.188L639.195 236.559Z" fill="#E6E6E6"/>
<path d="M656.796 219.026C654.431 218.778 652.143 217.933 650.182 216.583L651.077 215.278C652.824 216.479 654.858 217.231 656.962 217.452L656.796 219.026Z" fill="#E6E6E6"/>
<path d="M652.233 200.183L650.338 205.955L651.841 206.449L653.736 200.677L652.233 200.183Z" fill="#E6E6E6"/>
<path d="M646.447 224.601C647.665 224.05 649.277 224.131 650.143 225.151C651.155 226.342 650.741 228.152 650.16 229.605C648.714 233.219 644 243.458 639.07 239.184C634.413 235.145 642.69 226.297 646.447 224.601Z" fill="#E6E6E6"/>
<path d="M629.879 226.015C630.6 227.141 630.755 228.747 629.873 229.752C628.841 230.925 626.99 230.78 625.47 230.418C621.683 229.513 610.868 226.339 614.379 220.84C617.694 215.645 627.655 222.546 629.879 226.015Z" fill="#E6E6E6"/>
<path d="M641.179 254.628C636.695 248.011 626.778 243.991 617.909 245.196C613.745 245.763 613.176 252.034 614.437 255.397C615.698 258.762 619.056 261.505 622.908 263.169C626.9 264.895 631.747 265.564 635.719 264.168C639.689 262.771 643.36 257.847 641.179 254.628Z" fill="#E6E6E6"/>
<path d="M670.131 254.316C665.401 253.675 660.391 253.38 656.047 255.355C651.703 257.333 648.363 262.264 649.701 266.846C650.695 270.247 654.014 272.348 657.539 271.974C661.063 271.603 664.085 269.329 666.646 266.88C668.339 265.262 669.975 263.438 670.603 261.182C671.232 258.928 672.45 254.631 670.131 254.316Z" fill="#E6E6E6"/>
<path d="M652.043 203.812C651.247 202.069 650.708 200.144 650.965 198.245C651.223 196.347 652.415 194.496 654.223 193.862C656.031 193.229 658.358 194.17 658.875 196.015C659.44 198.025 658.781 200.641 657.347 202.159C655.914 203.68 654.054 204.377 652.043 203.812Z" fill="#E6E6E6"/>
<path d="M670.319 223.265C667.62 225.673 663.553 226.424 660.172 225.14C656.792 223.855 654.249 220.592 653.83 217.001C656.442 214.694 660.353 214.327 663.67 215.387C666.989 216.445 669.528 219.872 670.319 223.265Z" fill="#E6E6E6"/>
<path d="M651.737 361.562L655.123 365.612H640.062L643.464 361.562C636.424 354.934 630.507 332.96 627.264 316.792C627.153 316.222 627.042 315.668 626.932 315.115C625.413 307.331 624.559 301.161 624.559 299.121C624.559 293.394 631.282 288.553 640.568 286.908L631.393 275.944H663.808L654.632 286.908C663.919 288.553 670.642 293.394 670.642 299.121C670.642 305.401 662.497 351.422 651.737 361.562Z" fill="#F0F0F0"/>
<path d="M542.387 450.672H390.053C372.915 450.672 359.995 436.779 361.192 419.643L386.653 55.544C387.85 38.4062 402.715 24.5146 419.853 24.5146H572.187C589.325 24.5146 602.245 38.4078 601.047 55.544L575.586 419.643C574.387 436.781 559.524 450.672 542.387 450.672Z" fill="#5085B4"/>
<path d="M534.476 450.672H382.142C365.005 450.672 352.084 436.779 353.282 419.643L378.743 55.544C379.94 38.4062 394.805 24.5146 411.943 24.5146H564.277C581.414 24.5146 594.335 38.4078 593.137 55.544L567.676 419.643C566.477 436.781 551.614 450.672 534.476 450.672Z" fill="#263238"/>
<path d="M563.776 31.6348H524.182C521.589 31.6348 519.265 33.5616 518.756 36.134L518.511 37.3743C517.269 43.6564 511.594 48.3644 505.261 48.3644H467.619C461.287 48.3644 456.268 43.6564 455.906 37.3743L455.835 36.134C455.686 33.5616 453.631 31.6348 451.038 31.6348H411.443C398.238 31.6348 386.784 42.3402 385.86 55.5451L360.399 419.642C359.475 432.847 369.432 443.553 382.637 443.553H534.971C548.176 443.553 559.63 432.847 560.554 419.642L586.015 55.5451C586.939 42.3386 576.981 31.6348 563.776 31.6348Z" fill="#9EBDD8"/>
<path opacity="0.8" d="M586.37 55.5468L560.909 419.644C559.986 432.854 548.529 443.548 535.317 443.548H382.987C369.777 443.548 359.831 432.854 360.755 419.644L386.216 55.5468C387.139 42.3371 398.582 31.627 411.792 31.627H451.389C453.984 31.627 456.032 33.557 456.184 36.1357L456.257 37.3696C456.624 43.6502 461.642 48.3645 467.97 48.3645H505.606C511.95 48.3645 517.626 43.6502 518.857 37.3696L519.102 36.1357C519.614 33.557 521.948 31.627 524.542 31.627H564.124C577.334 31.6285 587.294 42.3387 586.37 55.5468Z" fill="white"/>
<path d="M563.617 375.887L560.558 419.645C559.634 432.855 548.177 443.549 534.966 443.549H382.635C369.425 443.549 359.479 432.855 360.403 419.645L363.463 375.887H563.617Z" fill="#9EBDD8"/>
<path opacity="0.5" d="M563.617 376.517L560.558 420.275C559.634 433.484 548.177 444.179 534.966 444.179H382.635C369.425 444.179 359.479 433.484 360.403 420.275L363.463 376.517H563.617Z" fill="white"/>
<g opacity="0.7">
<path opacity="0.7" d="M478.109 35.6693C477.992 37.3399 476.543 38.6957 474.873 38.6957C473.202 38.6957 471.941 37.3415 472.058 35.6693C472.175 33.9987 473.624 32.6445 475.295 32.6445C476.966 32.6445 478.227 33.9987 478.109 35.6693Z" fill="black"/>
<path opacity="0.7" d="M499.77 32.6445C498.575 32.6445 490.591 32.6445 489.397 32.6445C487.726 32.6445 486.277 33.9987 486.16 35.6693C486.043 37.3399 487.302 38.6957 488.974 38.6957C490.012 38.6957 498.31 38.6957 499.347 38.6957C501.018 38.6957 502.469 37.3415 502.584 35.6693C502.7 33.9987 501.44 32.6445 499.77 32.6445Z" fill="black"/>
</g>
<path d="M402.941 48.3051H406.145L406.37 45.1016H403.166L402.941 48.3051Z" fill="#5085B4"/>
<path d="M409.576 45.103L409.352 48.3065H412.555L412.778 45.103L413.003 41.8994H409.799L409.576 45.103Z" fill="#5085B4"/>
<path d="M416.432 38.6943L416.207 41.8979L415.983 45.1014L415.76 48.305H418.963L419.186 45.1014L419.411 41.8979L419.636 38.6943H416.432Z" fill="#5085B4"/>
<path d="M554.187 38.9072L554.022 41.2565H552.456L552.127 45.955H553.693L553.529 48.3043H567.624L568.281 38.9072H554.187ZM559.958 45.955H555.259L555.588 41.2565H560.287L559.958 45.955Z" fill="#5085B4"/>
<path d="M412.023 220.481H410.953C410.219 220.481 409.664 219.886 409.716 219.15L411.303 196.482C411.613 192.052 415.468 188.448 419.9 188.448L442.557 188.451C443.291 188.451 443.845 189.046 443.794 189.782L443.72 190.851C443.669 191.587 443.032 192.182 442.296 192.182L419.639 192.179C417.261 192.179 415.2 194.105 415.033 196.483L413.447 219.152C413.394 219.886 412.757 220.481 412.023 220.481Z" fill="#5085B4"/>
<path d="M497.957 314.033L498.031 312.963C498.083 312.229 498.719 311.633 499.455 311.633L522.109 311.631C524.485 311.631 526.546 309.704 526.714 307.328L528.302 284.664C528.355 283.93 528.991 283.334 529.726 283.334H530.796C531.53 283.334 532.085 283.929 532.033 284.664L530.444 307.328C530.134 311.764 526.285 315.36 521.849 315.36L499.195 315.362C498.46 315.363 497.904 314.767 497.957 314.033Z" fill="#5085B4"/>
<path d="M535.204 220.48H534.134C533.4 220.48 532.845 219.885 532.897 219.15L534.473 196.655C534.536 195.743 534.378 194.823 533.911 194.075C533.16 192.871 531.897 192.193 530.481 192.193L507.815 192.189C507.08 192.189 506.527 191.593 506.577 190.859L506.652 189.789C506.704 189.055 507.34 188.459 508.076 188.459L530.436 188.462C532.404 188.462 534.326 189.054 535.746 190.316C537.499 191.875 538.38 194.107 538.213 196.497L536.626 219.15C536.577 219.885 535.939 220.48 535.204 220.48Z" fill="#5085B4"/>
<path d="M411.014 315.365C408.627 315.365 406.471 314.329 405.041 312.47C403.883 310.961 403.427 308.999 403.565 307.03L405.131 284.663C405.183 283.929 405.819 283.333 406.555 283.333H407.624C408.36 283.333 408.914 283.928 408.861 284.663L407.286 307.18C407.222 308.09 407.381 309.007 407.849 309.754C408.6 310.956 409.863 311.635 411.277 311.635H411.279L433.945 311.633C434.681 311.633 435.235 312.228 435.183 312.964L435.108 314.033C435.058 314.767 434.42 315.364 433.684 315.364L411.018 315.365C411.018 315.365 411.016 315.365 411.014 315.365Z" fill="#5085B4"/>
<path d="M432.507 347.343C431.561 348.406 430.269 348.976 428.807 348.976C426.834 348.976 425.499 348.254 423.602 346.092C419.99 345.636 417.622 342.885 417.874 339.278C418.149 335.331 421.428 332.409 425.621 332.409C429.796 332.409 432.684 335.312 432.408 339.278C432.189 342.392 430.101 344.856 427.209 345.768C427.806 346.451 428.359 346.698 429.022 346.698C429.838 346.698 430.58 346.375 431.254 345.711L432.507 347.343ZM424.842 343.529C427.215 343.529 429.119 341.803 429.296 339.28C429.471 336.757 427.81 335.029 425.437 335.029C423.066 335.029 421.161 336.757 420.986 339.28C420.808 341.803 422.471 343.529 424.842 343.529Z" fill="#055CA8"/>
<path d="M442.73 345.922L440.426 342.221H440.274H437.599L437.341 345.922H434.268L435.196 332.641H440.945C444.494 332.641 446.585 334.48 446.376 337.459C446.237 339.453 445.128 340.913 443.35 341.652L446.03 345.922H442.73ZM440.599 335.143H438.094L437.772 339.772H440.276C442.155 339.772 443.165 338.901 443.266 337.458C443.367 335.996 442.478 335.143 440.599 335.143Z" fill="#055CA8"/>
<path d="M453.222 339.279C453.502 335.275 456.777 332.41 460.912 332.41C463.208 332.41 465.065 333.245 466.212 334.763L464.111 336.583C463.292 335.56 462.209 335.028 460.881 335.028C458.395 335.028 456.508 336.775 456.332 339.279C456.157 341.785 457.799 343.528 460.286 343.528C461.615 343.528 462.771 342.998 463.736 341.954L465.582 343.775C464.223 345.313 462.247 346.147 459.933 346.147C455.815 346.147 452.941 343.283 453.222 339.279Z" fill="#055CA8"/>
<path d="M466.856 339.279C467.131 335.332 470.409 332.41 474.603 332.41C478.778 332.41 481.667 335.313 481.39 339.279C481.113 343.245 477.816 346.148 473.641 346.148C469.451 346.147 466.581 343.226 466.856 339.279ZM478.28 339.279C478.455 336.756 476.793 335.028 474.421 335.028C472.05 335.028 470.145 336.756 469.969 339.279C469.792 341.804 471.455 343.528 473.826 343.528C476.198 343.528 478.103 341.803 478.28 339.279Z" fill="#055CA8"/>
<path d="M484.171 332.638H490.205C494.549 332.638 497.346 335.254 497.064 339.277C496.783 343.3 493.62 345.919 489.276 345.919H483.242L484.171 332.638ZM489.3 343.395C491.937 343.395 493.774 341.821 493.951 339.279C494.128 336.737 492.513 335.161 489.876 335.161H487.067L486.492 343.395H489.3Z" fill="#055CA8"/>
<path d="M509.385 343.454L509.212 345.922H498.928L499.856 332.641H509.893L509.72 335.107H502.737L502.536 337.991H508.703L508.535 340.381H502.369L502.153 343.455H509.385V343.454Z" fill="#055CA8"/>
<path d="M580.594 137.633L380.471 135.26L385.217 67.2344L585.547 67.2406L580.594 137.633Z" fill="#5085B4"/>
<path opacity="0.2" d="M361.059 418.048C360.593 424.712 362.916 430.728 367.024 435.051L579.316 38.0544C575.34 34.0858 569.821 31.6406 563.548 31.6406H411.879C398.732 31.6406 387.328 42.3019 386.409 55.4524L361.059 418.048Z" fill="white"/>
<path d="M434.686 79.2285L431.631 122.917" stroke="#E0E0E0" stroke-miterlimit="10"/>
<path d="M484.725 79.2285L481.67 122.917" stroke="#E0E0E0" stroke-miterlimit="10"/>
<path d="M534.766 79.2285L531.711 122.917" stroke="#E0E0E0" stroke-miterlimit="10"/>
<path d="M421.692 198.487L421.395 202.735H425.644L425.94 198.487H421.692Z" fill="#263238"/>
<path d="M425.933 198.487L425.637 202.735H429.884L430.182 198.487H425.933Z" fill="#263238"/>
<path d="M430.184 198.487L429.887 202.735H434.134L434.432 198.487H430.184Z" fill="#263238"/>
<path d="M434.426 198.487L434.129 202.735H438.377L438.674 198.487H434.426Z" fill="#263238"/>
<path d="M438.678 198.487L438.381 202.735H442.63L442.926 198.487H438.678Z" fill="#263238"/>
<path d="M442.927 198.487L442.631 202.735H446.879L447.176 198.487H442.927Z" fill="#263238"/>
<path d="M447.174 198.487L446.877 202.735H451.125L451.422 198.487H447.174Z" fill="#263238"/>
<path d="M464.169 198.487L463.871 202.735H468.119L468.416 198.487H464.169Z" fill="#263238"/>
<path d="M476.907 198.487L476.611 202.735H480.859L481.156 198.487H476.907Z" fill="#263238"/>
<path d="M481.159 198.487L480.861 202.735H485.109L485.406 198.487H481.159Z" fill="#263238"/>
<path d="M485.409 198.487L485.111 202.735H489.361L489.656 198.487H485.409Z" fill="#263238"/>
<path d="M489.659 198.487L489.363 202.735H493.611L493.908 198.487H489.659Z" fill="#263238"/>
<path d="M498.149 198.487L497.852 202.735H502.099L502.397 198.487H498.149Z" fill="#263238"/>
<path d="M502.399 198.487L502.102 202.735H506.351L506.647 198.487H502.399Z" fill="#263238"/>
<path d="M506.645 198.487L506.35 202.735H510.597L510.895 198.487H506.645Z" fill="#263238"/>
<path d="M510.901 198.487L510.604 202.735H514.851L515.149 198.487H510.901Z" fill="#263238"/>
<path d="M515.143 198.487L514.846 202.735H519.093L519.391 198.487H515.143Z" fill="#263238"/>
<path d="M519.385 198.487L519.088 202.735H523.337L523.633 198.487H519.385Z" fill="#263238"/>
<path d="M523.64 198.487L523.344 202.735H527.591L527.889 198.487H523.64Z" fill="#263238"/>
<path d="M421.39 202.733L421.094 206.981H425.341L425.639 202.733H421.39Z" fill="#263238"/>
<path d="M446.877 202.733L446.58 206.981H450.828L451.125 202.733H446.877Z" fill="#263238"/>
<path d="M459.622 202.733L459.324 206.981H463.572L463.869 202.733H459.622Z" fill="#263238"/>
<path d="M480.862 202.733L480.564 206.981H484.814L485.11 202.733H480.862Z" fill="#263238"/>
<path d="M485.106 202.733L484.811 206.981H489.058L489.356 202.733H485.106Z" fill="#263238"/>
<path d="M489.356 202.733L489.059 206.981H493.306L493.604 202.733H489.356Z" fill="#263238"/>
<path d="M497.852 202.733L497.555 206.981H501.804L502.1 202.733H497.852Z" fill="#263238"/>
<path d="M523.344 202.733L523.047 206.981H527.295L527.592 202.733H523.344Z" fill="#263238"/>
<path d="M421.094 206.983L420.797 211.231H425.045L425.342 206.983H421.094Z" fill="#263238"/>
<path d="M429.587 206.983L429.289 211.231H433.538L433.834 206.983H429.587Z" fill="#263238"/>
<path d="M433.835 206.983L433.539 211.231H437.787L438.084 206.983H433.835Z" fill="#263238"/>
<path d="M438.085 206.983L437.787 211.231H442.035L442.332 206.983H438.085Z" fill="#263238"/>
<path d="M446.581 206.983L446.283 211.231H450.532L450.828 206.983H446.581Z" fill="#263238"/>
<path d="M455.079 206.983L454.781 211.231H459.029L459.326 206.983H455.079Z" fill="#263238"/>
<path d="M467.821 206.983L467.523 211.231H471.771L472.069 206.983H467.821Z" fill="#263238"/>
<path d="M480.561 206.983L480.264 211.231H484.513L484.81 206.983H480.561Z" fill="#263238"/>
<path d="M497.555 206.983L497.258 211.231H501.507L501.804 206.983H497.555Z" fill="#263238"/>
<path d="M506.051 206.983L505.754 211.231H510.002L510.299 206.983H506.051Z" fill="#263238"/>
<path d="M510.299 206.983L510.002 211.231H514.251L514.547 206.983H510.299Z" fill="#263238"/>
<path d="M514.552 206.983L514.256 211.231H518.504L518.801 206.983H514.552Z" fill="#263238"/>
<path d="M523.049 206.983L522.752 211.231H527L527.297 206.983H523.049Z" fill="#263238"/>
<path d="M420.795 211.229L420.498 215.479H424.746L425.043 211.229H420.795Z" fill="#263238"/>
<path d="M429.288 211.229L428.992 215.479H433.24L433.537 211.229H429.288Z" fill="#263238"/>
<path d="M433.543 211.229L433.246 215.479H437.494L437.791 211.229H433.543Z" fill="#263238"/>
<path d="M437.786 211.229L437.488 215.479H441.736L442.033 211.229H437.786Z" fill="#263238"/>
<path d="M446.282 211.229L445.986 215.479H450.234L450.531 211.229H446.282Z" fill="#263238"/>
<path d="M459.028 211.229L458.73 215.479H462.98L463.276 211.229H459.028Z" fill="#263238"/>
<path d="M480.263 211.229L479.967 215.479H484.214L484.512 211.229H480.263Z" fill="#263238"/>
<path d="M484.518 211.229L484.221 215.479H488.468L488.766 211.229H484.518Z" fill="#263238"/>
<path d="M497.261 211.229L496.965 215.479H501.213L501.51 211.229H497.261Z" fill="#263238"/>
<path d="M505.754 211.229L505.457 215.479H509.706L510.002 211.229H505.754Z" fill="#263238"/>
<path d="M510.009 211.229L509.713 215.479H513.961L514.258 211.229H510.009Z" fill="#263238"/>
<path d="M514.253 211.229L513.955 215.479H518.203L518.5 211.229H514.253Z" fill="#263238"/>
<path d="M522.753 211.229L522.455 215.479H526.704L527 211.229H522.753Z" fill="#263238"/>
<path d="M420.495 215.48L420.197 219.728H424.445L424.742 215.48H420.495Z" fill="#263238"/>
<path d="M428.997 215.48L428.699 219.728H432.947L433.244 215.48H428.997Z" fill="#263238"/>
<path d="M433.243 215.48L432.945 219.728H437.193L437.49 215.48H433.243Z" fill="#263238"/>
<path d="M437.489 215.48L437.191 219.728H441.441L441.736 215.48H437.489Z" fill="#263238"/>
<path d="M445.987 215.48L445.689 219.728H449.937L450.235 215.48H445.987Z" fill="#263238"/>
<path d="M458.729 215.48L458.434 219.728H462.681L462.979 215.48H458.729Z" fill="#263238"/>
<path d="M471.473 215.48L471.176 219.728H475.425L475.722 215.48H471.473Z" fill="#263238"/>
<path d="M475.719 215.48L475.422 219.728H479.67L479.967 215.48H475.719Z" fill="#263238"/>
<path d="M479.971 215.48L479.674 219.728H483.921L484.219 215.48H479.971Z" fill="#263238"/>
<path d="M484.221 215.48L483.924 219.728H488.171L488.469 215.48H484.221Z" fill="#263238"/>
<path d="M496.961 215.48L496.664 219.728H500.912L501.209 215.48H496.961Z" fill="#263238"/>
<path d="M505.461 215.48L505.164 219.728H509.413L509.711 215.48H505.461Z" fill="#263238"/>
<path d="M509.704 215.48L509.406 219.728H513.654L513.951 215.48H509.704Z" fill="#263238"/>
<path d="M513.96 215.48L513.662 219.728H517.91L518.207 215.48H513.96Z" fill="#263238"/>
<path d="M522.45 215.48L522.154 219.728H526.402L526.699 215.48H522.45Z" fill="#263238"/>
<path d="M420.196 219.727L419.9 223.974H424.148L424.444 219.727H420.196Z" fill="#263238"/>
<path d="M445.69 219.727L445.393 223.974H449.64L449.938 219.727H445.69Z" fill="#263238"/>
<path d="M462.684 219.727L462.387 223.974H466.634L466.932 219.727H462.684Z" fill="#263238"/>
<path d="M466.93 219.727L466.633 223.974H470.882L471.178 219.727H466.93Z" fill="#263238"/>
<path d="M475.426 219.727L475.129 223.974H479.377L479.674 219.727H475.426Z" fill="#263238"/>
<path d="M479.674 219.727L479.377 223.974H483.625L483.922 219.727H479.674Z" fill="#263238"/>
<path d="M483.928 219.727L483.631 223.974H487.88L488.176 219.727H483.928Z" fill="#263238"/>
<path d="M488.169 219.727L487.873 223.974H492.121L492.418 219.727H488.169Z" fill="#263238"/>
<path d="M496.665 219.727L496.367 223.974H500.616L500.912 219.727H496.665Z" fill="#263238"/>
<path d="M522.159 219.727L521.861 223.974H526.109L526.406 219.727H522.159Z" fill="#263238"/>
<path d="M419.905 223.976L419.607 228.223H423.855L424.152 223.976H419.905Z" fill="#263238"/>
<path d="M424.155 223.976L423.857 228.223H428.105L428.402 223.976H424.155Z" fill="#263238"/>
<path d="M428.399 223.976L428.102 228.223H432.349L432.647 223.976H428.399Z" fill="#263238"/>
<path d="M432.649 223.976L432.352 228.223H436.601L436.898 223.976H432.649Z" fill="#263238"/>
<path d="M436.895 223.976L436.598 228.223H440.845L441.143 223.976H436.895Z" fill="#263238"/>
<path d="M441.141 223.976L440.844 228.223H445.091L445.389 223.976H441.141Z" fill="#263238"/>
<path d="M445.397 223.976L445.1 228.223H449.349L449.645 223.976H445.397Z" fill="#263238"/>
<path d="M453.889 223.976L453.592 228.223H457.839L458.137 223.976H453.889Z" fill="#263238"/>
<path d="M462.383 223.976L462.086 228.223H466.335L466.631 223.976H462.383Z" fill="#263238"/>
<path d="M470.879 223.976L470.582 228.223H474.83L475.127 223.976H470.879Z" fill="#263238"/>
<path d="M479.372 223.976L479.074 228.223H483.323L483.619 223.976H479.372Z" fill="#263238"/>
<path d="M487.874 223.976L487.576 228.223H491.824L492.121 223.976H487.874Z" fill="#263238"/>
<path d="M496.372 223.976L496.074 228.223H500.323L500.621 223.976H496.372Z" fill="#263238"/>
<path d="M500.614 223.976L500.316 228.223H504.564L504.861 223.976H500.614Z" fill="#263238"/>
<path d="M504.868 223.976L504.57 228.223H508.818L509.115 223.976H504.868Z" fill="#263238"/>
<path d="M509.114 223.976L508.816 228.223H513.066L513.362 223.976H509.114Z" fill="#263238"/>
<path d="M513.364 223.976L513.068 228.223H517.316L517.613 223.976H513.364Z" fill="#263238"/>
<path d="M517.612 223.976L517.314 228.223H521.562L521.86 223.976H517.612Z" fill="#263238"/>
<path d="M521.854 223.976L521.557 228.223H525.804L526.102 223.976H521.854Z" fill="#263238"/>
<path d="M453.596 228.223L453.299 232.472H457.546L457.844 228.223H453.596Z" fill="#263238"/>
<path d="M470.583 228.223L470.285 232.472H474.533L474.83 228.223H470.583Z" fill="#263238"/>
<path d="M474.836 228.223L474.539 232.472H478.788L479.084 228.223H474.836Z" fill="#263238"/>
<path d="M487.573 228.223L487.275 232.472H491.523L491.82 228.223H487.573Z" fill="#263238"/>
<path d="M419.307 232.473L419.01 236.72H423.257L423.555 232.473H419.307Z" fill="#263238"/>
<path d="M423.557 232.473L423.26 236.72H427.509L427.806 232.473H423.557Z" fill="#263238"/>
<path d="M427.807 232.473L427.51 236.72H431.757L432.055 232.473H427.807Z" fill="#263238"/>
<path d="M436.305 232.473L436.008 236.72H440.255L440.553 232.473H436.305Z" fill="#263238"/>
<path d="M440.547 232.473L440.25 236.72H444.499L444.797 232.473H440.547Z" fill="#263238"/>
<path d="M444.797 232.473L444.5 236.72H448.748L449.045 232.473H444.797Z" fill="#263238"/>
<path d="M449.049 232.473L448.752 236.72H453L453.297 232.473H449.049Z" fill="#263238"/>
<path d="M453.292 232.473L452.994 236.72H457.243L457.539 232.473H453.292Z" fill="#263238"/>
<path d="M466.04 232.473L465.742 236.72H469.99L470.287 232.473H466.04Z" fill="#263238"/>
<path d="M470.286 232.473L469.988 236.72H474.238L474.533 232.473H470.286Z" fill="#263238"/>
<path d="M474.534 232.473L474.238 236.72H478.486L478.783 232.473H474.534Z" fill="#263238"/>
<path d="M487.28 232.473L486.982 236.72H491.232L491.528 232.473H487.28Z" fill="#263238"/>
<path d="M491.524 232.473L491.229 236.72H495.476L495.774 232.473H491.524Z" fill="#263238"/>
<path d="M495.78 232.473L495.482 236.72H499.73L500.028 232.473H495.78Z" fill="#263238"/>
<path d="M512.766 232.473L512.469 236.72H516.716L517.014 232.473H512.766Z" fill="#263238"/>
<path d="M427.506 236.719L427.209 240.966H431.457L431.754 236.719H427.506Z" fill="#263238"/>
<path d="M431.756 236.719L431.459 240.966H435.708L436.004 236.719H431.756Z" fill="#263238"/>
<path d="M436.007 236.719L435.711 240.966H439.959L440.254 236.719H436.007Z" fill="#263238"/>
<path d="M448.747 236.719L448.449 240.966H452.698L452.994 236.719H448.747Z" fill="#263238"/>
<path d="M453.001 236.719L452.705 240.966H456.953L457.25 236.719H453.001Z" fill="#263238"/>
<path d="M457.249 236.719L456.951 240.966H461.199L461.496 236.719H457.249Z" fill="#263238"/>
<path d="M465.745 236.719L465.447 240.966H469.696L469.992 236.719H465.745Z" fill="#263238"/>
<path d="M469.987 236.719L469.691 240.966H473.939L474.237 236.719H469.987Z" fill="#263238"/>
<path d="M486.981 236.719L486.686 240.966H490.933L491.231 236.719H486.981Z" fill="#263238"/>
<path d="M495.479 236.719L495.182 240.966H499.429L499.727 236.719H495.479Z" fill="#263238"/>
<path d="M520.967 236.719L520.67 240.966H524.918L525.215 236.719H520.967Z" fill="#263238"/>
<path d="M427.213 240.967L426.916 245.214H431.164L431.461 240.967H427.213Z" fill="#263238"/>
<path d="M444.2 240.967L443.902 245.214H448.15L448.447 240.967H444.2Z" fill="#263238"/>
<path d="M448.45 240.967L448.152 245.214H452.402L452.699 240.967H448.45Z" fill="#263238"/>
<path d="M461.194 240.967L460.896 245.214H465.146L465.442 240.967H461.194Z" fill="#263238"/>
<path d="M469.692 240.967L469.395 245.214H473.642L473.94 240.967H469.692Z" fill="#263238"/>
<path d="M478.188 240.967L477.891 245.214H482.14L482.436 240.967H478.188Z" fill="#263238"/>
<path d="M495.182 240.967L494.885 245.214H499.134L499.43 240.967H495.182Z" fill="#263238"/>
<path d="M499.427 240.967L499.131 245.214H503.379L503.676 240.967H499.427Z" fill="#263238"/>
<path d="M503.68 240.967L503.383 245.214H507.63L507.928 240.967H503.68Z" fill="#263238"/>
<path d="M512.172 240.967L511.875 245.214H516.124L516.42 240.967H512.172Z" fill="#263238"/>
<path d="M516.421 240.967L516.125 245.214H520.373L520.67 240.967H516.421Z" fill="#263238"/>
<path d="M520.667 240.967L520.369 245.214H524.617L524.914 240.967H520.667Z" fill="#263238"/>
<path d="M418.419 245.215L418.121 249.464H422.369L422.666 245.215H418.419Z" fill="#263238"/>
<path d="M422.667 245.215L422.369 249.464H426.617L426.914 245.215H422.667Z" fill="#263238"/>
<path d="M426.917 245.215L426.619 249.464H430.868L431.164 245.215H426.917Z" fill="#263238"/>
<path d="M435.415 245.215L435.117 249.464H439.365L439.662 245.215H435.415Z" fill="#263238"/>
<path d="M456.655 245.215L456.357 249.464H460.605L460.902 245.215H456.655Z" fill="#263238"/>
<path d="M460.901 245.215L460.604 249.464H464.853L465.15 245.215H460.901Z" fill="#263238"/>
<path d="M469.397 245.215L469.1 249.464H473.347L473.645 245.215H469.397Z" fill="#263238"/>
<path d="M473.641 245.215L473.344 249.464H477.591L477.889 245.215H473.641Z" fill="#263238"/>
<path d="M477.891 245.215L477.594 249.464H481.843L482.14 245.215H477.891Z" fill="#263238"/>
<path d="M482.141 245.215L481.844 249.464H486.091L486.389 245.215H482.141Z" fill="#263238"/>
<path d="M490.635 245.215L490.338 249.464H494.587L494.883 245.215H490.635Z" fill="#263238"/>
<path d="M494.888 245.215L494.592 249.464H498.839L499.137 245.215H494.888Z" fill="#263238"/>
<path d="M499.131 245.215L498.834 249.464H503.082L503.379 245.215H499.131Z" fill="#263238"/>
<path d="M516.126 245.215L515.828 249.464H520.076L520.373 245.215H516.126Z" fill="#263238"/>
<path d="M426.622 249.463L426.326 253.711H430.574L430.871 249.463H426.622Z" fill="#263238"/>
<path d="M430.866 249.463L430.568 253.711H434.816L435.113 249.463H430.866Z" fill="#263238"/>
<path d="M443.608 249.463L443.312 253.711H447.56L447.858 249.463H443.608Z" fill="#263238"/>
<path d="M452.102 249.463L451.805 253.711H456.054L456.35 249.463H452.102Z" fill="#263238"/>
<path d="M460.599 249.463L460.303 253.711H464.55L464.848 249.463H460.599Z" fill="#263238"/>
<path d="M473.343 249.463L473.047 253.711H477.295L477.59 249.463H473.343Z" fill="#263238"/>
<path d="M486.09 249.463L485.793 253.711H490.042L490.338 249.463H486.09Z" fill="#263238"/>
<path d="M490.341 249.463L490.045 253.711H494.293L494.59 249.463H490.341Z" fill="#263238"/>
<path d="M494.592 249.463L494.295 253.711H498.543L498.84 249.463H494.592Z" fill="#263238"/>
<path d="M498.835 249.463L498.537 253.711H502.785L503.082 249.463H498.835Z" fill="#263238"/>
<path d="M507.331 249.463L507.035 253.711H511.283L511.58 249.463H507.331Z" fill="#263238"/>
<path d="M515.833 249.463L515.535 253.711H519.783L520.08 249.463H515.833Z" fill="#263238"/>
<path d="M520.075 249.463L519.777 253.711H524.027L524.322 249.463H520.075Z" fill="#263238"/>
<path d="M439.065 253.712L438.77 257.96H443.017L443.315 253.712H439.065Z" fill="#263238"/>
<path d="M447.563 253.712L447.266 257.96H451.513L451.811 253.712H447.563Z" fill="#263238"/>
<path d="M451.809 253.712L451.512 257.96H455.761L456.058 253.712H451.809Z" fill="#263238"/>
<path d="M460.307 253.712L460.01 257.96H464.257L464.555 253.712H460.307Z" fill="#263238"/>
<path d="M468.799 253.712L468.502 257.96H472.751L473.049 253.712H468.799Z" fill="#263238"/>
<path d="M485.793 253.712L485.496 257.96H489.745L490.043 253.712H485.793Z" fill="#263238"/>
<path d="M490.04 253.712L489.742 257.96H493.99L494.287 253.712H490.04Z" fill="#263238"/>
<path d="M494.288 253.712L493.99 257.96H498.238L498.535 253.712H494.288Z" fill="#263238"/>
<path d="M507.034 253.712L506.736 257.96H510.984L511.281 253.712H507.034Z" fill="#263238"/>
<path d="M519.776 253.712L519.48 257.96H523.728L524.026 253.712H519.776Z" fill="#263238"/>
<path d="M417.53 257.959L417.234 262.208H421.482L421.779 257.959H417.53Z" fill="#263238"/>
<path d="M430.276 257.959L429.979 262.208H434.228L434.524 257.959H430.276Z" fill="#263238"/>
<path d="M434.517 257.959L434.221 262.208H438.468L438.766 257.959H434.517Z" fill="#263238"/>
<path d="M438.768 257.959L438.471 262.208H442.718L443.016 257.959H438.768Z" fill="#263238"/>
<path d="M443.012 257.959L442.715 262.208H446.963L447.26 257.959H443.012Z" fill="#263238"/>
<path d="M447.266 257.959L446.969 262.208H451.218L451.514 257.959H447.266Z" fill="#263238"/>
<path d="M455.762 257.959L455.465 262.208H459.713L460.01 257.959H455.762Z" fill="#263238"/>
<path d="M460.01 257.959L459.713 262.208H463.961L464.258 257.959H460.01Z" fill="#263238"/>
<path d="M472.753 257.959L472.455 262.208H476.703L477 257.959H472.753Z" fill="#263238"/>
<path d="M485.499 257.959L485.203 262.208H489.451L489.748 257.959H485.499Z" fill="#263238"/>
<path d="M489.743 257.959L489.445 262.208H493.693L493.99 257.959H489.743Z" fill="#263238"/>
<path d="M493.995 257.959L493.697 262.208H497.946L498.242 257.959H493.995Z" fill="#263238"/>
<path d="M498.239 257.959L497.943 262.208H502.191L502.488 257.959H498.239Z" fill="#263238"/>
<path d="M510.985 257.959L510.688 262.208H514.937L515.233 257.959H510.985Z" fill="#263238"/>
<path d="M515.233 257.959L514.938 262.208H519.185L519.483 257.959H515.233Z" fill="#263238"/>
<path d="M519.485 257.959L519.188 262.208H523.435L523.733 257.959H519.485Z" fill="#263238"/>
<path d="M421.477 262.209L421.18 266.457H425.427L425.725 262.209H421.477Z" fill="#263238"/>
<path d="M425.719 262.209L425.422 266.457H429.671L429.967 262.209H425.719Z" fill="#263238"/>
<path d="M438.475 262.209L438.178 266.457H442.425L442.723 262.209H438.475Z" fill="#263238"/>
<path d="M446.968 262.209L446.672 266.457H450.92L451.217 262.209H446.968Z" fill="#263238"/>
<path d="M455.461 262.209L455.164 266.457H459.412L459.709 262.209H455.461Z" fill="#263238"/>
<path d="M459.713 262.209L459.416 266.457H463.665L463.961 262.209H459.713Z" fill="#263238"/>
<path d="M472.452 262.209L472.154 266.457H476.402L476.699 262.209H472.452Z" fill="#263238"/>
<path d="M480.954 262.209L480.656 266.457H484.904L485.201 262.209H480.954Z" fill="#263238"/>
<path d="M493.69 262.209L493.395 266.457H497.642L497.94 262.209H493.69Z" fill="#263238"/>
<path d="M502.194 262.209L501.896 266.457H506.144L506.442 262.209H502.194Z" fill="#263238"/>
<path d="M514.934 262.209L514.637 266.457H518.884L519.182 262.209H514.934Z" fill="#263238"/>
<path d="M416.934 266.456L416.637 270.704H420.884L421.182 266.456H416.934Z" fill="#263238"/>
<path d="M425.425 266.456L425.129 270.704H429.377L429.674 266.456H425.425Z" fill="#263238"/>
<path d="M438.174 266.456L437.877 270.704H442.126L442.422 266.456H438.174Z" fill="#263238"/>
<path d="M442.419 266.456L442.123 270.704H446.371L446.668 266.456H442.419Z" fill="#263238"/>
<path d="M446.676 266.456L446.379 270.704H450.627L450.924 266.456H446.676Z" fill="#263238"/>
<path d="M472.159 266.456L471.861 270.704H476.111L476.406 266.456H472.159Z" fill="#263238"/>
<path d="M484.903 266.456L484.605 270.704H488.853L489.151 266.456H484.903Z" fill="#263238"/>
<path d="M489.153 266.456L488.855 270.704H493.105L493.402 266.456H489.153Z" fill="#263238"/>
<path d="M493.395 266.456L493.098 270.704H497.345L497.643 266.456H493.395Z" fill="#263238"/>
<path d="M497.651 266.456L497.354 270.704H501.601L501.899 266.456H497.651Z" fill="#263238"/>
<path d="M501.893 266.456L501.596 270.704H505.843L506.141 266.456H501.893Z" fill="#263238"/>
<path d="M506.139 266.456L505.842 270.704H510.091L510.388 266.456H506.139Z" fill="#263238"/>
<path d="M450.622 270.704L450.324 274.952H454.573L454.869 270.704H450.622Z" fill="#263238"/>
<path d="M459.118 270.704L458.82 274.952H463.068L463.365 270.704H459.118Z" fill="#263238"/>
<path d="M467.612 270.704L467.314 274.952H471.564L471.86 270.704H467.612Z" fill="#263238"/>
<path d="M484.606 270.704L484.309 274.952H488.558L488.854 270.704H484.606Z" fill="#263238"/>
<path d="M501.595 270.704L501.299 274.952H505.546L505.842 270.704H501.595Z" fill="#263238"/>
<path d="M505.845 270.704L505.549 274.952H509.796L510.094 270.704H505.845Z" fill="#263238"/>
<path d="M514.338 270.704L514.041 274.952H518.29L518.586 270.704H514.338Z" fill="#263238"/>
<path d="M518.593 270.704L518.297 274.952H522.545L522.842 270.704H518.593Z" fill="#263238"/>
<path d="M416.343 274.952L416.047 279.201H420.295L420.59 274.952H416.343Z" fill="#263238"/>
<path d="M420.585 274.952L420.289 279.201H424.537L424.834 274.952H420.585Z" fill="#263238"/>
<path d="M424.837 274.952L424.539 279.201H428.787L429.084 274.952H424.837Z" fill="#263238"/>
<path d="M429.087 274.952L428.789 279.201H433.038L433.334 274.952H429.087Z" fill="#263238"/>
<path d="M433.329 274.952L433.033 279.201H437.281L437.578 274.952H433.329Z" fill="#263238"/>
<path d="M437.585 274.952L437.287 279.201H441.535L441.832 274.952H437.585Z" fill="#263238"/>
<path d="M441.827 274.952L441.529 279.201H445.777L446.074 274.952H441.827Z" fill="#263238"/>
<path d="M450.327 274.952L450.031 279.201H454.279L454.576 274.952H450.327Z" fill="#263238"/>
<path d="M454.571 274.952L454.273 279.201H458.521L458.819 274.952H454.571Z" fill="#263238"/>
<path d="M458.821 274.952L458.523 279.201H462.771L463.069 274.952H458.821Z" fill="#263238"/>
<path d="M471.565 274.952L471.268 279.201H475.515L475.813 274.952H471.565Z" fill="#263238"/>
<path d="M475.811 274.952L475.514 279.201H479.761L480.059 274.952H475.811Z" fill="#263238"/>
<path d="M480.061 274.952L479.764 279.201H484.013L484.309 274.952H480.061Z" fill="#263238"/>
<path d="M484.304 274.952L484.008 279.201H488.255L488.553 274.952H484.304Z" fill="#263238"/>
<path d="M492.805 274.952L492.508 279.201H496.755L497.053 274.952H492.805Z" fill="#263238"/>
<path d="M501.303 274.952L501.006 279.201H505.254L505.551 274.952H501.303Z" fill="#263238"/>
<path d="M505.545 274.952L505.248 279.201H509.496L509.793 274.952H505.545Z" fill="#263238"/>
<path d="M514.045 274.952L513.748 279.201H517.997L518.295 274.952H514.045Z" fill="#263238"/>
<path d="M518.297 274.952L518 279.201H522.248L522.545 274.952H518.297Z" fill="#263238"/>
<path d="M416.04 279.2L415.742 283.448H419.99L420.287 279.2H416.04Z" fill="#263238"/>
<path d="M441.53 279.2L441.232 283.448H445.482L445.778 279.2H441.53Z" fill="#263238"/>
<path d="M450.028 279.2L449.73 283.448H453.978L454.276 279.2H450.028Z" fill="#263238"/>
<path d="M467.018 279.2L466.721 283.448H470.968L471.266 279.2H467.018Z" fill="#263238"/>
<path d="M471.268 279.2L470.971 283.448H475.218L475.516 279.2H471.268Z" fill="#263238"/>
<path d="M475.514 279.2L475.217 283.448H479.466L479.762 279.2H475.514Z" fill="#263238"/>
<path d="M484.012 279.2L483.715 283.448H487.963L488.26 279.2H484.012Z" fill="#263238"/>
<path d="M501.006 279.2L500.709 283.448H504.957L505.254 279.2H501.006Z" fill="#263238"/>
<path d="M505.249 279.2L504.951 283.448H509.2L509.496 279.2H505.249Z" fill="#263238"/>
<path d="M513.743 279.2L513.447 283.448H517.695L517.992 279.2H513.743Z" fill="#263238"/>
<path d="M415.745 283.448L415.447 287.696H419.695L419.992 283.448H415.745Z" fill="#263238"/>
<path d="M424.239 283.448L423.941 287.696H428.191L428.486 283.448H424.239Z" fill="#263238"/>
<path d="M428.491 283.448L428.195 287.696H432.443L432.74 283.448H428.491Z" fill="#263238"/>
<path d="M432.739 283.448L432.441 287.696H436.689L436.986 283.448H432.739Z" fill="#263238"/>
<path d="M441.237 283.448L440.939 287.696H445.189L445.486 283.448H441.237Z" fill="#263238"/>
<path d="M449.729 283.448L449.432 287.696H453.679L453.977 283.448H449.729Z" fill="#263238"/>
<path d="M462.473 283.448L462.176 287.696H466.423L466.721 283.448H462.473Z" fill="#263238"/>
<path d="M466.719 283.448L466.422 287.696H470.67L470.967 283.448H466.719Z" fill="#263238"/>
<path d="M470.971 283.448L470.674 287.696H474.923L475.219 283.448H470.971Z" fill="#263238"/>
<path d="M475.216 283.448L474.92 287.696H479.168L479.465 283.448H475.216Z" fill="#263238"/>
<path d="M483.713 283.448L483.416 287.696H487.664L487.961 283.448H483.713Z" fill="#263238"/>
<path d="M487.958 283.448L487.66 287.696H491.909L492.205 283.448H487.958Z" fill="#263238"/>
<path d="M492.21 283.448L491.914 287.696H496.162L496.459 283.448H492.21Z" fill="#263238"/>
<path d="M496.458 283.448L496.16 287.696H500.408L500.705 283.448H496.458Z" fill="#263238"/>
<path d="M500.704 283.448L500.406 287.696H504.654L504.951 283.448H500.704Z" fill="#263238"/>
<path d="M504.956 283.448L504.658 287.696H508.907L509.205 283.448H504.956Z" fill="#263238"/>
<path d="M513.448 283.448L513.15 287.696H517.398L517.695 283.448H513.448Z" fill="#263238"/>
<path d="M415.448 287.695L415.15 291.943H419.398L419.696 287.695H415.448Z" fill="#263238"/>
<path d="M423.944 287.695L423.648 291.943H427.896L428.194 287.695H423.944Z" fill="#263238"/>
<path d="M428.188 287.695L427.891 291.943H432.138L432.436 287.695H428.188Z" fill="#263238"/>
<path d="M432.438 287.695L432.141 291.943H436.39L436.686 287.695H432.438Z" fill="#263238"/>
<path d="M440.938 287.695L440.643 291.943H444.89L445.188 287.695H440.938Z" fill="#263238"/>
<path d="M453.679 287.695L453.383 291.943H457.63L457.928 287.695H453.679Z" fill="#263238"/>
<path d="M457.926 287.695L457.629 291.943H461.877L462.174 287.695H457.926Z" fill="#263238"/>
<path d="M466.422 287.695L466.125 291.943H470.374L470.67 287.695H466.422Z" fill="#263238"/>
<path d="M479.17 287.695L478.873 291.943H483.121L483.418 287.695H479.17Z" fill="#263238"/>
<path d="M483.417 287.695L483.119 291.943H487.368L487.664 287.695H483.417Z" fill="#263238"/>
<path d="M496.157 287.695L495.859 291.943H500.107L500.404 287.695H496.157Z" fill="#263238"/>
<path d="M500.411 287.695L500.113 291.943H504.362L504.658 287.695H500.411Z" fill="#263238"/>
<path d="M504.657 287.695L504.361 291.943H508.609L508.906 287.695H504.657Z" fill="#263238"/>
<path d="M508.913 287.695L508.615 291.943H512.863L513.16 287.695H508.913Z" fill="#263238"/>
<path d="M415.147 291.944L414.85 296.194H419.099L419.395 291.944H415.147Z" fill="#263238"/>
<path d="M423.649 291.944L423.352 296.194H427.599L427.897 291.944H423.649Z" fill="#263238"/>
<path d="M427.891 291.944L427.594 296.194H431.841L432.139 291.944H427.891Z" fill="#263238"/>
<path d="M432.145 291.944L431.848 296.194H436.097L436.394 291.944H432.145Z" fill="#263238"/>
<path d="M440.639 291.944L440.342 296.194H444.589L444.887 291.944H440.639Z" fill="#263238"/>
<path d="M449.131 291.944L448.834 296.194H453.083L453.381 291.944H449.131Z" fill="#263238"/>
<path d="M470.379 291.944L470.082 296.194H474.33L474.627 291.944H470.379Z" fill="#263238"/>
<path d="M478.87 291.944L478.572 296.194H482.822L483.117 291.944H478.87Z" fill="#263238"/>
<path d="M500.112 291.944L499.816 296.194H504.064L504.361 291.944H500.112Z" fill="#263238"/>
<path d="M517.099 291.944L516.803 296.194H521.05L521.348 291.944H517.099Z" fill="#263238"/>
<path d="M414.852 296.192L414.557 300.44H418.804L419.102 296.192H414.852Z" fill="#263238"/>
<path d="M440.346 296.192L440.049 300.44H444.298L444.594 296.192H440.346Z" fill="#263238"/>
<path d="M448.837 296.192L448.541 300.44H452.789L453.086 296.192H448.837Z" fill="#263238"/>
<path d="M453.088 296.192L452.791 300.44H457.039L457.336 296.192H453.088Z" fill="#263238"/>
<path d="M461.581 296.192L461.285 300.44H465.533L465.829 296.192H461.581Z" fill="#263238"/>
<path d="M470.079 296.192L469.781 300.44H474.029L474.326 296.192H470.079Z" fill="#263238"/>
<path d="M474.327 296.192L474.029 300.44H478.279L478.574 296.192H474.327Z" fill="#263238"/>
<path d="M478.579 296.192L478.283 300.44H482.531L482.828 296.192H478.579Z" fill="#263238"/>
<path d="M482.823 296.192L482.525 300.44H486.773L487.071 296.192H482.823Z" fill="#263238"/>
<path d="M491.321 296.192L491.023 300.44H495.273L495.569 296.192H491.321Z" fill="#263238"/>
<path d="M499.821 296.192L499.523 300.44H503.771L504.069 296.192H499.821Z" fill="#263238"/>
<path d="M504.063 296.192L503.766 300.44H508.013L508.311 296.192H504.063Z" fill="#263238"/>
<path d="M512.559 296.192L512.264 300.44H516.511L516.809 296.192H512.559Z" fill="#263238"/>
<path d="M414.557 300.441L414.26 304.689H418.507L418.805 300.441H414.557Z" fill="#263238"/>
<path d="M418.799 300.441L418.502 304.689H422.75L423.047 300.441H418.799Z" fill="#263238"/>
<path d="M423.055 300.441L422.758 304.689H427.007L427.303 300.441H423.055Z" fill="#263238"/>
<path d="M427.3 300.441L427.004 304.689H431.252L431.549 300.441H427.3Z" fill="#263238"/>
<path d="M431.551 300.441L431.254 304.689H435.502L435.799 300.441H431.551Z" fill="#263238"/>
<path d="M435.797 300.441L435.5 304.689H439.748L440.045 300.441H435.797Z" fill="#263238"/>
<path d="M440.04 300.441L439.742 304.689H443.991L444.289 300.441H440.04Z" fill="#263238"/>
<path d="M448.542 300.441L448.244 304.689H452.492L452.789 300.441H448.542Z" fill="#263238"/>
<path d="M452.792 300.441L452.494 304.689H456.742L457.039 300.441H452.792Z" fill="#263238"/>
<path d="M457.034 300.441L456.736 304.689H460.986L461.283 300.441H457.034Z" fill="#263238"/>
<path d="M461.29 300.441L460.992 304.689H465.24L465.537 300.441H461.29Z" fill="#263238"/>
<path d="M465.532 300.441L465.234 304.689H469.482L469.779 300.441H465.532Z" fill="#263238"/>
<path d="M469.778 300.441L469.48 304.689H473.73L474.026 300.441H469.778Z" fill="#263238"/>
<path d="M482.53 300.441L482.232 304.689H486.48L486.778 300.441H482.53Z" fill="#263238"/>
<path d="M486.772 300.441L486.475 304.689H490.724L491.02 300.441H486.772Z" fill="#263238"/>
<path d="M495.274 300.441L494.977 304.689H499.224L499.522 300.441H495.274Z" fill="#263238"/>
<path d="M512.264 300.441L511.967 304.689H516.214L516.512 300.441H512.264Z" fill="#263238"/>
<path d="M516.51 300.441L516.213 304.689H520.461L520.758 300.441H516.51Z" fill="#263238"/>
<path d="M198.778 264.195L206.041 268.051L197.691 277.827C197.691 277.827 192.479 274.301 192.243 268.916L198.778 264.195Z" fill="#FFDDCE"/>
<path d="M215.818 274.079L206.871 281.179L197.693 277.829L206.045 268.052L215.818 274.079Z" fill="#FFDDCE"/>
<path d="M237.978 114.473C238.157 115.353 238.767 115.971 239.343 115.854C239.918 115.737 240.239 114.93 240.06 114.051C239.881 113.171 239.27 112.552 238.695 112.669C238.12 112.785 237.799 113.593 237.978 114.473Z" fill="#707070"/>
<path d="M233.758 110.244C233.63 110.244 233.502 110.198 233.4 110.103C233.187 109.906 233.174 109.572 233.372 109.358C235.351 107.216 237.753 107.598 237.857 107.615C238.143 107.664 238.336 107.936 238.287 108.222C238.238 108.509 237.963 108.7 237.681 108.654C237.602 108.642 235.724 108.366 234.146 110.075C234.041 110.187 233.9 110.244 233.758 110.244Z" fill="#707070"/>
<path d="M394.27 583.972C224.866 583.972 87.5371 575.953 87.5371 566.059C87.5371 556.166 224.866 548.146 394.27 548.146C563.673 548.146 701.002 556.166 701.002 566.059C701.002 575.953 563.673 583.972 394.27 583.972Z" fill="#707070" fill-opacity="0.1"/>
<path d="M198.776 262.612L206.039 266.468L197.689 276.244C197.689 276.244 192.477 272.718 192.241 267.333L198.776 262.612Z" fill="#FFDDCE"/>
<path d="M215.814 272.496L206.867 279.596L197.689 276.245L206.041 266.469L215.814 272.496Z" fill="#FFDDCE"/>
<path d="M166.255 553.4C167.372 553.642 168.487 553.706 169.025 553.249C169.251 553.057 169.477 552.689 169.28 552.024C169.175 551.674 168.947 551.413 168.601 551.249C167.098 550.532 163.646 551.939 163.499 551.999C163.403 552.038 163.339 552.13 163.336 552.234C163.333 552.339 163.391 552.434 163.485 552.48C164.013 552.736 165.133 553.158 166.255 553.4ZM168.065 551.622C168.179 551.648 168.281 551.681 168.373 551.725C168.582 551.825 168.713 551.972 168.773 552.174C168.914 552.649 168.739 552.798 168.68 552.847C168.082 553.356 165.859 552.886 164.295 552.26C165.358 551.886 167.076 551.409 168.065 551.622Z" fill="#055CA8"/>
<path d="M163.54 552.501C163.583 552.511 163.627 552.509 163.67 552.497C164.928 552.13 167.619 550.217 167.652 548.956C167.658 548.727 167.578 548.312 166.978 548.103C166.589 547.967 166.197 547.999 165.811 548.197C164.323 548.956 163.384 552.038 163.344 552.169C163.316 552.262 163.341 552.362 163.409 552.43C163.447 552.465 163.491 552.49 163.54 552.501ZM166.69 548.567C166.728 548.575 166.768 548.586 166.806 548.599C167.132 548.712 167.127 548.872 167.125 548.94C167.106 549.687 165.33 551.187 164.028 551.794C164.354 550.905 165.097 549.151 166.049 548.665C166.268 548.553 166.478 548.521 166.69 548.567Z" fill="#055CA8"/>
<path d="M248.405 555.268C249.834 555.268 251.213 555.072 251.675 554.43C251.837 554.205 251.965 553.822 251.653 553.278C251.479 552.973 251.198 552.764 250.818 552.661C248.965 552.158 245.077 554.373 244.912 554.468C244.817 554.523 244.767 554.631 244.784 554.738C244.802 554.848 244.885 554.933 244.993 554.955C245.703 555.097 247.075 555.268 248.405 555.268ZM250.171 553.109C250.356 553.109 250.528 553.128 250.68 553.169C250.924 553.235 251.092 553.356 251.196 553.538C251.383 553.865 251.315 554.028 251.247 554.12C250.729 554.84 247.916 554.855 245.847 554.563C246.88 554.036 248.87 553.109 250.171 553.109Z" fill="#055CA8"/>
<path d="M245.044 554.959C245.081 554.959 245.117 554.952 245.152 554.936C246.495 554.333 249.156 551.927 248.952 550.669C248.904 550.373 248.694 550.006 247.971 549.932C247.43 549.877 246.941 550.03 246.509 550.384C245.093 551.547 244.794 554.543 244.782 554.672C244.772 554.765 244.815 554.857 244.891 554.91C244.935 554.944 244.99 554.959 245.044 554.959ZM247.759 550.449C247.811 550.449 247.863 550.452 247.917 550.457C248.392 550.505 248.422 550.691 248.431 550.753C248.553 551.508 246.747 553.4 245.375 554.222C245.517 553.347 245.914 551.553 246.843 550.791C247.123 550.562 247.425 550.449 247.759 550.449Z" fill="#055CA8"/>
<path d="M232.81 554.698H243.938L245.045 528.929H233.919L232.81 554.698Z" fill="#FFDDCE"/>
<path d="M151.14 549.545L162.015 551.901L172.934 527.899L162.059 525.545L151.14 549.545Z" fill="#FFDDCE"/>
<path d="M163.06 550.809L150.842 548.164C150.397 548.067 149.945 548.293 149.755 548.706L145.514 557.907C145.074 558.861 145.656 559.981 146.687 560.185C150.968 561.035 153.094 561.234 158.469 562.397C161.775 563.112 169.237 564.931 173.801 565.918C178.266 566.885 179.939 562.522 178.16 561.709C170.177 558.062 166.842 554.851 164.681 551.858C164.29 551.32 163.71 550.95 163.06 550.809Z" fill="#055CA8"/>
<path d="M243.863 553.41H231.711C231.256 553.41 230.863 553.727 230.764 554.17L228.566 564.06C228.339 565.085 229.117 566.057 230.167 566.039C234.551 565.965 240.885 565.707 246.394 565.707C252.836 565.707 258.4 566.058 265.955 566.058C270.524 566.058 271.791 561.44 269.879 561.021C261.173 559.116 254.067 558.912 246.544 554.276C245.725 553.774 244.823 553.41 243.863 553.41Z" fill="#055CA8"/>
<path opacity="0.2" d="M245.047 528.935L244.477 542.217H233.345L233.914 528.935H245.047Z" fill="black"/>
<path opacity="0.2" d="M162.055 525.551L172.936 527.906L167.302 540.278L156.421 537.922L162.055 525.551Z" fill="black"/>
<path d="M240.775 271.653C240.775 271.653 228.148 356.691 221.214 388.549C213.622 423.437 172.914 538.861 172.914 538.861L152.995 534.549C152.995 534.549 181.46 440.486 187.832 391.711C192.727 354.246 202.371 271.653 202.371 271.653H240.775Z" fill="#9EBDD8"/>
<path d="M177.686 532.209C177.772 532.228 173.973 539.412 173.973 539.412L151.563 534.56L153.451 527.822L177.686 532.209Z" fill="#055CA8"/>
<path opacity="0.3" d="M232.792 301.952C218.19 304.815 219.736 359.267 221.492 387.274C225.703 367.476 231.867 329.382 236.078 302.346C235.11 301.86 234.018 301.71 232.792 301.952Z" fill="#055CA8"/>
<path d="M261.878 271.653C261.878 271.653 263.411 354.851 262.201 388.783C260.941 424.079 248.613 539.647 248.613 539.647H229.763C229.763 539.647 229.072 426.142 228.234 391.477C227.319 353.688 222.757 271.653 222.757 271.653H261.878Z" fill="#9EBDD8"/>
<path d="M252.247 532.138C252.334 532.138 251.184 539.964 251.184 539.964H228.255L227.635 532.979L252.247 532.138Z" fill="#055CA8"/>
<path d="M339.966 173.42C339.966 173.42 343.129 160.084 343.636 157.98C347.604 151.718 351.074 145.153 354.014 138.347C354.014 138.347 347.132 123.619 345.313 121.784C342.149 119.537 328.464 110.282 332.546 116.879C334.073 118.805 335.388 120.889 336.469 123.097C336.469 123.097 327.911 119.679 327.483 120.107C327.056 120.534 334.365 127.542 334.365 127.542C334.365 127.542 327.863 127.4 327.468 128.95C327.072 130.5 333.669 132.589 333.669 132.589V138.031C333.669 138.031 331.059 138.774 332.467 140.182C333.875 141.59 338.637 142.144 338.637 142.144C337.271 143.666 336.291 145.493 335.779 147.473C335.267 149.452 335.238 151.525 335.694 153.518C334.713 159.135 333.163 167.756 333.163 167.756L339.966 173.42Z" fill="#FFDDCE"/>
<g style="mix-blend-mode:multiply">
<path d="M341.516 156.54C347.417 146.747 352.163 138.742 352.479 137.999C352.392 136.386 352.1 134.791 351.609 133.253C352.985 136.069 354.014 138.284 354.014 138.284C351.076 145.101 347.606 151.676 343.636 157.948C343.066 160.052 339.966 173.388 339.966 173.388L333.638 168.104C337.334 165.099 340.072 161.08 341.516 156.54Z" fill="#E5BBAA"/>
</g>
<g style="mix-blend-mode:multiply">
<path d="M339.96 131.086V118.209C342.191 119.617 344.279 121.041 345.307 121.753C345.845 122.4 346.317 123.099 346.715 123.841C346.715 123.841 351.271 136.228 346.715 138.316C342.159 140.404 339.96 131.086 339.96 131.086Z" fill="#FFDDCE"/>
</g>
<path d="M334.415 106.945C334.437 106.794 334.488 106.649 334.567 106.519C334.646 106.388 334.75 106.275 334.874 106.186C335.002 106.099 335.147 106.04 335.3 106.012C335.452 105.985 335.609 105.99 335.759 106.027L347.814 109.191C348.066 109.255 348.285 109.41 348.428 109.627C348.571 109.843 348.629 110.105 348.589 110.362L344.445 139.186C344.424 139.331 344.374 139.47 344.298 139.596C344.222 139.721 344.121 139.829 344.002 139.914C343.826 140.037 343.616 140.104 343.4 140.104H343.163L332.089 137.651C331.831 137.598 331.602 137.45 331.446 137.236C331.291 137.023 331.222 136.759 331.251 136.497L334.415 106.945Z" fill="#055DA9"/>
<path d="M344.251 144.215C344.251 144.215 339.41 133.678 337.733 130.53C336.056 127.382 341.514 129.898 348.048 137.365C349.313 141.905 348.886 146.255 344.251 144.215Z" fill="#FFDDCE"/>
<path d="M341.044 130.786C340.57 131.799 341.139 133.839 341.74 135.69C342.579 138.316 344.256 144.217 344.256 144.217C344.256 144.217 339.415 133.681 337.738 130.533C336.741 128.65 338.276 128.856 341.044 130.786Z" fill="#FFDDCE"/>
<path d="M236.082 161.429L234.674 149.627C234.674 149.627 243.945 142.888 245.068 139.518C246.191 136.149 243.106 127.226 243.106 127.226C244.117 126.183 244.875 124.922 245.321 123.54C245.638 121.832 240.006 115.092 240.006 115.092C240.006 115.092 232.713 105.094 232.096 104.762C233.37 112.082 234.121 119.483 234.342 126.91C234.342 126.91 232.428 120.677 228.615 119.411C224.803 118.145 230.688 132.795 232.096 134.171C228.799 138.839 225.036 143.159 220.863 147.064L216.117 142.318C215.833 147.65 213.871 161.413 213.871 161.413L236.082 161.429Z" fill="#FFDDCE"/>
<path d="M218.149 144.327C217.294 147.491 214.684 159.467 225.631 160.448C228.795 160.717 228.954 161.065 227.467 161.429H213.893C213.893 161.429 215.855 147.665 216.139 142.334L218.149 144.327Z" fill="#FFDDCE"/>
<path d="M243.1 167.314L239.16 157.743C239.16 157.743 229.906 158.075 222.882 158.487C219.311 158.829 215.708 158.578 212.219 157.743L208.153 167.314C208.153 167.314 227.375 171.538 243.1 167.314Z" fill="#729AC1"/>
<g style="mix-blend-mode:multiply" opacity="0.3">
<path d="M239.16 157.743L243.1 167.314C241.771 167.678 240.41 167.963 239.034 168.216L237.784 167.109C237.278 166.476 236.645 159.531 236.645 159.531L222.882 158.487C229.906 158.075 239.16 157.743 239.16 157.743Z" fill="#729AC1"/>
</g>
<path d="M175.439 321.464C175.733 324.357 175.733 327.272 175.439 330.165C171.785 336.05 171.5 339.151 175.439 343.913C179.378 348.674 179.647 351.49 182.321 352.614C184.994 353.737 185.406 357.676 188.411 352.614C191.417 347.551 187.399 316.623 187.399 316.623L175.439 321.464Z" fill="#FFDDCE"/>
<g style="mix-blend-mode:multiply">
<path d="M179.789 332.68L178.95 321.733L179.045 319.993L187.398 316.623C187.398 316.623 189.787 334.927 189.518 345.684C188.569 346.839 187.54 347.187 186.908 344.609C185.452 338.85 183.854 338.028 181.829 338.581C182.605 336.05 181.323 331.699 179.789 332.68Z" fill="#FFDDCE"/>
</g>
<path d="M178.947 179.115C178.947 179.115 169.249 255.478 168.917 285.219C168.585 314.961 168.917 322.57 168.917 322.57C168.917 322.57 181.826 325.086 189.483 323.962C193.691 322.839 194.814 297.859 194.814 297.859V188.1C194.814 188.1 187.221 174.906 178.947 179.115Z" fill="#5085B4"/>
<g style="mix-blend-mode:multiply" opacity="0.5">
<path d="M178.948 179.115C187.221 174.906 194.768 188.1 194.768 188.1V297.875C194.768 297.875 193.755 320.355 190.022 323.614C173.063 320.039 178.948 305.168 178.948 298.429C178.805 291.136 184.421 220.911 181.827 200.456C181.052 194.349 178.948 179.115 178.948 179.115Z" fill="#70A1CA"/>
</g>
<path d="M172.195 323.188C170.234 322.888 169.031 322.65 169.031 322.65C169.031 322.65 168.747 315.057 169.031 285.299C169.316 255.542 178.998 179.179 178.998 179.179C178.998 179.179 169.902 287.198 172.195 323.188Z" fill="#5085B4"/>
<path d="M330.552 157.916L346.104 169.639C346.104 169.639 326.123 231.969 323.37 237.854C320.618 243.739 272.003 201.848 272.003 201.848C272.003 201.848 269.899 255.336 269.471 269.653C269.044 283.97 273.695 310.532 273.695 310.532C273.695 310.532 228.434 317.065 216.838 318.331C205.242 319.596 182.319 309.899 182.319 309.899C182.319 309.899 185.894 254.323 186.1 246.524C186.306 238.725 189.264 203.572 184.629 194.096C179.994 184.62 179.582 181.883 178.949 179.146C178.317 176.41 210.589 163.706 210.589 163.706H241.692C241.692 163.706 270.167 169.686 273.063 171.474C275.958 173.261 311.806 207.148 311.806 207.148C311.806 207.148 326.977 154.404 330.552 157.916Z" fill="#5085B4"/>
<path d="M178.951 179.114C178.318 176.377 210.591 163.674 210.591 163.674H216.207C216.207 163.674 195.245 172.027 180.865 185.49C180.052 183.421 179.412 181.289 178.951 179.114Z" fill="#5085B4"/>
<path d="M182.317 309.867C182.317 309.867 185.893 254.291 186.098 246.492C186.098 244.768 186.336 241.746 186.526 237.854C186.526 259.56 186.526 285.046 186.415 294.221C186.098 311.37 187.206 309.82 202.52 316.622C195.64 314.831 188.891 312.574 182.317 309.867Z" fill="#5085B4"/>
<path d="M311.298 208.872L272.286 174.575L247.86 164.988C256.387 166.855 271.004 170.177 273.061 171.426C276.019 173.198 311.804 207.101 311.804 207.101C311.804 207.101 325.441 159.751 329.902 157.821L330.551 157.9C330.551 157.9 313.449 206.199 311.804 214.473C311.855 212.593 311.685 210.713 311.298 208.872Z" fill="#5085B4"/>
<g style="mix-blend-mode:multiply" opacity="0.5">
<path d="M237.786 315.578C256.406 306.513 261.089 288.526 262.528 274.715C264.411 256.601 268.224 198.479 268.224 198.479L272.02 201.848C272.02 201.848 269.916 255.336 269.489 269.653C269.062 283.97 273.697 310.532 273.697 310.532C273.697 310.532 254.349 313.284 237.786 315.578Z" fill="#729AC1"/>
</g>
<path d="M176.973 331.588C176.276 333.249 173.809 337.172 176.276 341.396C178.744 345.62 178.871 348.167 180.785 351.569C179.33 350.097 178.46 347.598 175.438 343.912C171.499 339.166 171.784 336.002 175.438 330.164C175.438 330.164 177.684 329.927 176.973 331.588Z" fill="#FFDDCE"/>
<path d="M216.143 142.333C216.143 142.333 204.325 128.855 202.522 120.707C200.718 112.56 207.727 102.467 211.65 98.5594C215.573 94.6518 220.082 88.5928 225.635 88.5928C227.802 88.5928 225.635 94.4145 225.635 94.4145C225.635 94.4145 232.422 90.2855 228.372 99.3345C236.013 98.0689 234.114 102.325 232.153 104.792C233.181 111.279 234.953 120.897 234.399 126.94C231.409 121.419 224.005 120.47 232.153 134.202C229.62 139.421 225.743 143.871 220.92 147.095L216.143 142.333Z" fill="#707070"/>
<g style="mix-blend-mode:multiply" opacity="0.5">
<path d="M243.099 138.964C244.364 135.8 243.099 127.226 243.099 127.226C243.099 127.226 246.184 136.148 245.06 139.518C243.937 142.887 234.667 149.627 234.667 149.627L233.828 143.868C233.828 143.868 241.833 142.191 243.099 138.964Z" fill="#CCB1A5"/>
</g>
</svg>

