<svg width="20" height="19" viewBox="0 0 20 19" fill="none" xmlns="http://www.w3.org/2000/svg">
<path d="M3.49805 11.5958C3.49805 11.5958 3.80405 12.8788 4.71005 13.0848" stroke="#707070" stroke-width="0.5" stroke-miterlimit="10"/>
<path d="M2.75586 7.46484L2.81886 7.52783C3.16579 7.87475 3.38897 8.32615 3.45403 8.81244C3.51908 9.29873 3.4224 9.79293 3.17886 10.2188V10.2188" stroke="#707070" stroke-width="0.5" stroke-miterlimit="10"/>
<path d="M9.64084 13.7149C9.43695 13.5842 9.20711 13.4994 8.96721 13.4663C8.72731 13.4332 8.48308 13.4526 8.25142 13.5231C8.01976 13.5937 7.80618 13.7137 7.62547 13.875C7.44477 14.0362 7.30125 14.2347 7.20483 14.4569" stroke="#707070" stroke-width="0.5" stroke-miterlimit="10"/>
<path d="M3.45801 8.84182C3.45801 8.84182 5.93401 9.58383 6.78201 8.31183C6.94119 8.06255 7.16557 7.86162 7.43083 7.7308C7.69609 7.59998 7.99211 7.54428 8.28677 7.56973C8.58144 7.59518 8.86351 7.70079 9.10242 7.87515C9.34132 8.04951 9.52793 8.28596 9.64201 8.55883" stroke="#707070" stroke-width="0.5" stroke-miterlimit="10"/>
<path d="M6.56982 3.43982C6.56982 3.43982 7.20583 5.20483 9.64183 4.42883" stroke="#707070" stroke-width="0.5" stroke-miterlimit="10"/>
<path d="M6.56999 6.19385C6.56999 6.19385 3.39199 6.40584 4.02799 3.01584C4.66399 -0.374156 9.64199 0.790838 9.64199 0.790838V17.7398C9.64199 17.7398 6.04199 18.7988 4.76899 16.2568C4.62244 15.9662 4.51261 15.6585 4.442 15.3408C4.31608 14.8714 4.30072 14.3792 4.39715 13.9029C4.49358 13.4266 4.69917 12.9791 4.99775 12.5956C5.29633 12.2121 5.67975 11.9031 6.11791 11.6929C6.55608 11.4826 7.03704 11.3768 7.52299 11.3838" stroke="#707070" stroke-width="0.5" stroke-miterlimit="10"/>
<path d="M3.98794 3.25781C1.19494 3.49981 1.69694 6.40579 1.69694 6.40579C0.957558 6.97439 0.467723 7.80778 0.330621 8.73038C0.193518 9.65298 0.41985 10.5928 0.961938 11.3518L1.06193 11.4908C1.00273 12.4387 1.28092 13.377 1.84721 14.1395C2.41349 14.902 3.23135 15.4395 4.15594 15.6568L4.55593 15.7508" stroke="#707070" stroke-width="0.5" stroke-miterlimit="10"/>
<path d="M10.595 5.76978H11.019C11.9181 5.76978 12.7803 6.12695 13.4161 6.7627C14.0518 7.39844 14.409 8.26071 14.409 9.15979C14.409 10.0589 14.0518 10.9211 13.4161 11.5569C12.7803 12.1926 11.9181 12.5498 11.019 12.5498H10.595" stroke="#707070" stroke-width="0.5" stroke-miterlimit="10"/>
<path d="M10.595 17.6348H11.866V15.4268C12.7466 15.2795 13.5861 14.9471 14.329 14.4518L15.895 15.8858L17.464 14.1628L15.996 12.8258C16.5024 12.1094 16.8542 11.2955 17.029 10.4358H18.852V8.1058H17.068C16.9109 7.16967 16.5448 6.28097 15.997 5.5058L17.206 4.1788L15.483 2.6098L14.328 3.87778C13.5841 3.38086 12.7432 3.04751 11.861 2.89978V0.685791H10.595" stroke="#707070" stroke-width="0.5" stroke-miterlimit="10"/>
</svg>
