<svg width="20" height="20" viewBox="0 0 20 20" fill="none" xmlns="http://www.w3.org/2000/svg">
<path d="M10.071 15.343H10.338V14.3C10.7942 14.2495 11.236 14.1095 11.638 13.888C12.0511 13.6609 12.3963 13.3278 12.638 12.923C12.8624 12.5433 12.9802 12.1101 12.979 11.669C13.0085 11.1687 12.8628 10.6737 12.567 10.269C12.312 9.94498 11.9775 9.69245 11.596 9.53604C11.1852 9.37818 10.7655 9.24462 10.339 9.13605V6.75305C10.4656 6.82315 10.5779 6.91644 10.67 7.02805C10.8208 7.21358 10.9127 7.43991 10.934 7.67804H12.877C12.8647 7.34164 12.7849 7.01114 12.6423 6.70621C12.4998 6.40127 12.2973 6.12813 12.047 5.90305C11.5605 5.50155 10.9664 5.25249 10.339 5.18704V4.02502H9.06099V5.17804C8.36591 5.24113 7.7071 5.5166 7.17399 5.96704C6.91324 6.19297 6.70612 6.47418 6.56773 6.79022C6.42934 7.10627 6.36316 7.44919 6.37399 7.79404C6.34673 8.29414 6.49219 8.78841 6.78599 9.19403C7.04201 9.52307 7.37897 9.78011 7.76399 9.94003C8.18803 10.1054 8.62226 10.2433 9.06399 10.353V12.805C8.84154 12.7298 8.64831 12.5867 8.51159 12.3958C8.37487 12.2049 8.30156 11.9758 8.30198 11.741H6.36099C6.35469 12.0815 6.42408 12.4192 6.56416 12.7296C6.70424 13.04 6.9115 13.3155 7.17099 13.536C7.71064 13.9663 8.36463 14.2288 9.05198 14.291V15.338H10.066L10.071 15.343ZM9.05699 8.75204C8.84992 8.67088 8.66096 8.54956 8.50099 8.39505C8.41436 8.30336 8.34698 8.19523 8.30284 8.07706C8.2587 7.95889 8.23868 7.83306 8.24399 7.70703C8.22993 7.42826 8.32704 7.1553 8.51399 6.94803C8.66264 6.79663 8.85076 6.68994 9.05699 6.64005V8.75204ZM10.836 12.493C10.6991 12.6415 10.5272 12.7532 10.336 12.818V10.744C10.5195 10.8217 10.6886 10.9299 10.836 11.064C10.9263 11.1524 10.9971 11.2588 11.0436 11.3763C11.0901 11.4938 11.1114 11.6198 11.106 11.746C11.1144 12.0206 11.0178 12.2881 10.836 12.494V12.493Z" stroke="#707070" stroke-width="0.5" stroke-miterlimit="10"/>
<path d="M19.11 10.7191V9.05707L17.845 8.78607C17.6811 7.30358 17.115 5.89409 16.208 4.71005L17.008 3.64606L15.833 2.47107L14.708 3.19907C13.5583 2.30633 12.1913 1.7364 10.748 1.54807L10.47 0.248047H8.808L8.623 1.54205C7.09802 1.73591 5.65843 2.35523 4.46899 3.32907L3.397 2.63507L2.222 3.81006L3.01601 4.86905C2.17729 6.02086 1.65401 7.3718 1.498 8.78806L0.25 9.05505V10.7171L1.535 10.9011C1.74604 12.3427 2.33808 13.7018 3.25 14.8381L2.55 15.9141L3.72501 17.0891L4.76801 16.3071C5.89837 17.1474 7.22656 17.6817 8.62399 17.8581L8.80299 19.11H10.465L10.734 17.8551C12.0517 17.6846 13.308 17.1955 14.394 16.4301L15.494 17.2561L16.669 16.0811L15.964 14.9911C16.9454 13.8267 17.5826 12.4117 17.804 10.9051L19.11 10.7191ZM9.672 16.6471C8.29821 16.6471 6.95527 16.2397 5.813 15.4764C4.67074 14.7132 3.78046 13.6284 3.25473 12.3592C2.729 11.09 2.59145 9.69337 2.85947 8.34598C3.12748 6.99859 3.78902 5.76091 4.76044 4.78949C5.73185 3.81807 6.96952 3.15653 8.31691 2.88852C9.6643 2.62051 11.0609 2.75806 12.3301 3.28378C13.5993 3.80951 14.6842 4.69981 15.4474 5.84207C16.2106 6.98434 16.618 8.32726 16.618 9.70105C16.6184 10.6135 16.439 11.517 16.0901 12.3601C15.7412 13.2032 15.2297 13.9692 14.5846 14.6146C13.9396 15.2599 13.1737 15.7718 12.3308 16.121C11.4879 16.4703 10.5844 16.6501 9.672 16.6501V16.6471Z" stroke="#707070" stroke-width="0.5" stroke-miterlimit="10"/>
</svg>
