<svg width="12" height="12" viewBox="0 0 12 12" fill="none" xmlns="http://www.w3.org/2000/svg">
<g clip-path="url(#clip0)">
<path d="M5.99398 9.04886C5.55197 9.04877 5.11527 8.95251 4.71418 8.76676C4.31309 8.58101 3.95722 8.31022 3.67125 7.97318C3.38528 7.63614 3.17606 7.24092 3.05811 6.81493C2.94017 6.38895 2.91631 5.9424 2.98821 5.50628C3.0601 5.07015 3.22601 4.6549 3.47444 4.28931C3.72287 3.92372 4.04787 3.61655 4.42689 3.38913C4.8059 3.16171 5.22986 3.01946 5.66935 2.97228C6.10884 2.92509 6.55332 2.97409 6.97198 3.11587C7.03086 3.13576 7.07942 3.17823 7.10699 3.23393C7.13456 3.28962 7.13887 3.35399 7.11898 3.41287C7.09909 3.47174 7.05662 3.52031 7.00092 3.54788C6.94523 3.57544 6.88086 3.57976 6.82198 3.55987C6.26853 3.37219 5.66771 3.37812 5.11807 3.57671C4.56843 3.77529 4.10258 4.15474 3.79688 4.65282C3.49119 5.15091 3.36381 5.73809 3.43562 6.31808C3.50742 6.89806 3.77416 7.43643 4.19209 7.84493C4.61003 8.25343 5.15436 8.50781 5.73583 8.56635C6.31731 8.62489 6.90143 8.48412 7.3924 8.16714C7.88338 7.85015 8.25208 7.37574 8.43806 6.82171C8.62404 6.26768 8.61625 5.66689 8.41598 5.11787C8.39476 5.05952 8.3976 4.99513 8.42385 4.93887C8.45011 4.88261 8.49763 4.83908 8.55598 4.81786C8.61433 4.79665 8.67872 4.79948 8.73498 4.82574C8.79124 4.85199 8.83476 4.89952 8.85598 4.95786C9.05366 5.50348 9.09205 6.09407 8.96668 6.66068C8.84132 7.2273 8.55737 7.74656 8.14797 8.15786C7.86564 8.44136 7.52991 8.66608 7.16018 8.81902C6.79046 8.97196 6.39409 9.05008 5.99398 9.04886Z" fill="#707070"/>
<path d="M7.031 11.9999H4.969C4.90694 11.9999 4.84742 11.9752 4.80354 11.9313C4.75966 11.8874 4.735 11.8279 4.735 11.7659V10.7659C4.31175 10.6541 3.90544 10.4859 3.527 10.2659L2.819 10.9739C2.79727 10.9956 2.77147 11.0128 2.74307 11.0246C2.71468 11.0364 2.68424 11.0424 2.6535 11.0424C2.62276 11.0424 2.59233 11.0364 2.56393 11.0246C2.53553 11.0128 2.50973 10.9956 2.488 10.9739L1.028 9.51286C1.00626 9.49113 0.989016 9.46533 0.97725 9.43694C0.965484 9.40854 0.959428 9.3781 0.959428 9.34736C0.959428 9.31663 0.965484 9.28619 0.97725 9.25779C0.989016 9.22939 1.00626 9.2036 1.028 9.18186L1.736 8.47386C1.51594 8.09543 1.34777 7.68912 1.236 7.26587H0.236002C0.205021 7.26613 0.174295 7.26024 0.145608 7.24854C0.116921 7.23683 0.0908432 7.21955 0.0688887 7.19769C0.0469342 7.17583 0.0295396 7.14982 0.0177144 7.12119C0.00588915 7.09255 -0.000131365 7.06185 2.17372e-06 7.03087V4.96887C2.17372e-06 4.90681 0.0246557 4.84729 0.0685392 4.8034C0.112423 4.75952 0.171942 4.73487 0.234002 4.73487H1.234C1.34593 4.3123 1.5141 3.90667 1.734 3.52887L1.024 2.81887C1.00226 2.79714 0.985016 2.77134 0.97325 2.74294C0.961484 2.71454 0.955428 2.68411 0.955428 2.65337C0.955428 2.62263 0.961484 2.59219 0.97325 2.5638C0.985016 2.5354 1.00226 2.5096 1.024 2.48787L2.487 1.02787C2.50873 1.00613 2.53453 0.988884 2.56293 0.977118C2.59133 0.965352 2.62176 0.959296 2.6525 0.959296C2.68324 0.959296 2.71368 0.965352 2.74207 0.977118C2.77047 0.988884 2.79627 1.00613 2.818 1.02787L3.53 1.73987C3.90592 1.52044 4.3095 1.35228 4.73 1.23987V0.23387C4.73 0.202716 4.73621 0.171873 4.74828 0.143152C4.76035 0.114431 4.77804 0.0884097 4.8003 0.0666141C4.82256 0.0448186 4.84895 0.0276878 4.87792 0.0162266C4.90689 0.00476546 4.93785 -0.000795374 4.969 -0.000129677H7.031C7.09306 -0.000129677 7.15258 0.0245238 7.19647 0.0684073C7.24035 0.112291 7.265 0.17181 7.265 0.23387V1.24287C7.6855 1.35531 8.08908 1.52346 8.465 1.74287L9.179 1.02887C9.20075 1.00698 9.22661 0.989607 9.2551 0.977752C9.28359 0.965897 9.31415 0.959794 9.345 0.959794C9.37586 0.959794 9.40641 0.965897 9.4349 0.977752C9.46339 0.989607 9.48925 1.00698 9.511 1.02887L10.969 2.48687C10.9907 2.5086 11.008 2.5344 11.0198 2.5628C11.0315 2.59119 11.0376 2.62163 11.0376 2.65237C11.0376 2.68311 11.0315 2.71354 11.0198 2.74194C11.008 2.77034 10.9907 2.79614 10.969 2.81787L10.255 3.53187C10.4744 3.90779 10.6426 4.31137 10.755 4.73187H11.764C11.7952 4.7316 11.826 4.73755 11.8549 4.74938C11.8837 4.76121 11.9099 4.77867 11.9318 4.80075C11.9538 4.82282 11.9712 4.84906 11.9829 4.87793C11.9946 4.9068 12.0004 4.93772 12 4.96887V7.03087C12 7.09293 11.9753 7.15245 11.9315 7.19633C11.8876 7.24021 11.8281 7.26487 11.766 7.26487H10.758C10.6456 7.68537 10.4774 8.08895 10.258 8.46486L10.97 9.17686C10.9917 9.1986 11.009 9.22439 11.0208 9.25279C11.0325 9.28119 11.0386 9.31163 11.0386 9.34236C11.0386 9.3731 11.0325 9.40354 11.0208 9.43194C11.009 9.46033 10.9917 9.48613 10.97 9.50786L9.513 10.9719C9.49127 10.9936 9.46547 11.0108 9.43707 11.0226C9.40868 11.0344 9.37824 11.0404 9.3475 11.0404C9.31676 11.0404 9.28633 11.0344 9.25793 11.0226C9.22953 11.0108 9.20373 10.9936 9.182 10.9719L8.472 10.2619C8.09418 10.4817 7.68856 10.6499 7.266 10.7619V11.7619C7.26653 11.793 7.26084 11.824 7.24926 11.8529C7.23768 11.8818 7.22043 11.9081 7.19855 11.9303C7.17666 11.9524 7.15056 11.97 7.12179 11.982C7.09302 11.9939 7.06216 12 7.031 11.9999ZM5.2 11.5309H6.8V10.5789C6.79986 10.5256 6.81792 10.4738 6.8512 10.4322C6.88448 10.3905 6.93098 10.3615 6.983 10.3499C7.47971 10.238 7.95335 10.0411 8.383 9.76786C8.42792 9.73931 8.48122 9.72692 8.53412 9.73274C8.58703 9.73855 8.63637 9.76223 8.674 9.79986L9.349 10.4749L10.476 9.34786L9.8 8.67186C9.76237 8.63423 9.73869 8.58489 9.73287 8.53199C9.72706 8.47908 9.73945 8.42578 9.768 8.38086C10.0401 7.951 10.236 7.47738 10.347 6.98087C10.3586 6.92884 10.3877 6.88234 10.4293 6.84906C10.4709 6.81579 10.5227 6.79772 10.576 6.79787H11.533V5.19987H10.575C10.5217 5.20001 10.4699 5.18195 10.4283 5.14867C10.3867 5.11539 10.3576 5.06889 10.346 5.01687C10.2347 4.5203 10.0385 4.04668 9.766 3.61687C9.73897 3.57223 9.72763 3.51984 9.73379 3.46802C9.73995 3.4162 9.76326 3.36792 9.8 3.33087L10.478 2.65287L9.348 1.52487L8.669 2.19987C8.63137 2.2375 8.58203 2.26118 8.52912 2.267C8.47622 2.27281 8.42292 2.26042 8.378 2.23187C7.9482 1.95938 7.47458 1.76317 6.978 1.65187C6.92757 1.63944 6.8827 1.61058 6.85048 1.56985C6.81825 1.52911 6.80049 1.47881 6.8 1.42687V0.46887H5.2V1.42587C5.20014 1.47918 5.18208 1.53093 5.1488 1.57258C5.11553 1.61422 5.06903 1.64325 5.017 1.65487C4.52049 1.76586 4.04687 1.96173 3.617 2.23387C3.57207 2.26166 3.51905 2.27343 3.46657 2.26725C3.4141 2.26108 3.36526 2.23733 3.328 2.19987L2.652 1.52387L1.525 2.65187L2.2 3.32687C2.23747 3.3646 2.26104 3.41392 2.26685 3.46678C2.27266 3.51963 2.26038 3.5729 2.232 3.61787C1.9588 4.04752 1.7619 4.52116 1.65 5.01787C1.63838 5.06989 1.60935 5.11639 1.56771 5.14967C1.52607 5.18295 1.47431 5.20101 1.421 5.20087H0.469002V6.79987H1.42C1.47331 6.79972 1.52507 6.81779 1.56671 6.85106C1.60835 6.88434 1.63738 6.93084 1.649 6.98287C1.76055 7.47952 1.95711 7.95316 2.23 8.38286C2.25856 8.42778 2.27095 8.48108 2.26513 8.53399C2.25931 8.58689 2.23563 8.63623 2.198 8.67386L1.526 9.34586L2.653 10.4729L3.325 9.79986C3.36264 9.76223 3.41198 9.73855 3.46488 9.73274C3.51778 9.72692 3.57109 9.73931 3.616 9.76786C4.04574 10.0407 4.51937 10.2372 5.016 10.3489C5.06803 10.3605 5.11453 10.3895 5.1478 10.4312C5.18108 10.4728 5.19914 10.5246 5.199 10.5779V11.5289L5.2 11.5309Z" fill="#707070"/>
<path d="M5.99702 7.64287C5.67246 7.64287 5.3552 7.54662 5.08533 7.36631C4.81547 7.18599 4.60514 6.92971 4.48093 6.62986C4.35673 6.33 4.32423 6.00005 4.38755 5.68172C4.45087 5.3634 4.60716 5.07101 4.83666 4.84151C5.06616 4.61202 5.35856 4.45572 5.67689 4.3924C5.99521 4.32908 6.32515 4.36158 6.62501 4.48579C6.92486 4.60999 7.18114 4.82032 7.36146 5.09019C7.54177 5.36005 7.63802 5.67731 7.63802 6.00187C7.63776 6.43701 7.46479 6.85426 7.1571 7.16195C6.84941 7.46964 6.43216 7.64261 5.99702 7.64287ZM5.99702 4.83088C5.76522 4.83088 5.53863 4.89961 5.34589 5.02839C5.15316 5.15717 5.00294 5.3402 4.91424 5.55436C4.82553 5.76851 4.80232 6.00417 4.84754 6.23151C4.89276 6.45886 5.00439 6.66769 5.1683 6.83159C5.3322 6.9955 5.54103 7.10713 5.76838 7.15235C5.99572 7.19757 6.23138 7.17436 6.44553 7.08565C6.65969 6.99695 6.84272 6.84673 6.9715 6.654C7.10028 6.46126 7.16903 6.23467 7.16903 6.00287C7.16824 5.69247 7.04444 5.39503 6.82476 5.17573C6.60508 4.95642 6.30742 4.83314 5.99702 4.83288V4.83088Z" fill="#707070"/>
<path d="M7.97801 4.25386C7.93157 4.25407 7.8861 4.24046 7.84742 4.21477C7.80874 4.18907 7.77858 4.15245 7.76078 4.10956C7.74298 4.06667 7.73836 4.01946 7.74748 3.97392C7.7566 3.92839 7.77905 3.8866 7.81199 3.85387L7.82301 3.84287C7.8669 3.79884 7.92649 3.77405 7.98866 3.77396C8.05083 3.77386 8.11047 3.79847 8.15449 3.84236C8.19852 3.88625 8.22331 3.94584 8.2234 4.00801C8.22349 4.07018 8.1989 4.12983 8.15501 4.17386L8.14399 4.18486C8.12224 4.20674 8.09637 4.2241 8.06788 4.23595C8.03939 4.24779 8.00886 4.25387 7.97801 4.25386Z" fill="#707070"/>
</g>
<defs>
<clipPath id="clip0">
<rect width="12" height="12" fill="white" transform="translate(0 -0.00012207)"/>
</clipPath>
</defs>
</svg>
