<svg width="18" height="21" viewBox="0 0 18 21" fill="none" xmlns="http://www.w3.org/2000/svg">
<path d="M10.3611 9.41443V10.3144C10.3611 10.3144 13.7711 11.2144 14.1301 11.7504" stroke="#707070" stroke-width="0.5" stroke-miterlimit="10"/>
<path d="M7.92792 9.47842L7.8479 10.4914C6.43339 10.4928 5.05399 10.9319 3.89893 11.7484" stroke="#707070" stroke-width="0.5" stroke-miterlimit="10"/>
<path d="M12.4711 5.51642C12.4246 5.50131 12.3754 5.49721 12.3271 5.50443C12.3271 5.49143 12.3271 5.47742 12.3351 5.46442C12.8741 3.13042 11.7961 0.97641 9.10406 0.97641C6.41206 0.97641 5.33405 2.95142 5.69305 5.46442C5.69805 5.50042 5.70507 5.53541 5.71307 5.57141C5.60929 5.70857 5.53808 5.86754 5.50481 6.03629C5.47155 6.20503 5.47709 6.37913 5.52105 6.54541C5.61505 7.08241 5.92906 7.47641 6.22106 7.42441C6.29043 7.411 6.35375 7.37599 6.40203 7.3244C6.40709 7.3632 6.40975 7.40228 6.41003 7.44141C6.49837 8.09081 6.81993 8.68591 7.31469 9.11572C7.80945 9.54554 8.44367 9.78072 9.09905 9.7774C9.76018 9.80284 10.4062 9.57597 10.9063 9.14276C11.4064 8.70955 11.723 8.10243 11.792 7.44443C11.7932 7.42056 11.7962 7.3968 11.8011 7.37341C11.812 7.38053 11.8233 7.38689 11.8351 7.39243C12.1171 7.49243 12.4871 7.14543 12.6611 6.62943C12.8351 6.11343 12.7531 5.61142 12.4711 5.51642Z" stroke="#707070" stroke-width="0.5" stroke-miterlimit="10"/>
<path d="M13.905 12.3904L14.9681 12.3754C15.1983 12.3754 15.4191 12.4669 15.5818 12.6297C15.7446 12.7925 15.8361 13.0132 15.8361 13.2434V19.5564" stroke="#707070" stroke-width="0.5" stroke-miterlimit="10"/>
<path d="M8.47607 12.4654L12.9181 12.4044" stroke="#707070" stroke-width="0.5" stroke-miterlimit="10"/>
<path d="M6.74097 12.3754H7.74897" stroke="#707070" stroke-width="0.5" stroke-miterlimit="10"/>
<path d="M2.19312 19.5554V13.2424C2.19312 13.0122 2.28458 12.7914 2.44736 12.6287C2.61014 12.4659 2.83092 12.3744 3.06113 12.3744H4.88611" stroke="#707070" stroke-width="0.5" stroke-miterlimit="10"/>
<path d="M0 20.0214H18" stroke="#707070" stroke-width="0.5" stroke-miterlimit="10"/>
<path d="M9 18.0214C9.55228 18.0214 10 17.5737 10 17.0214C10 16.4691 9.55228 16.0214 9 16.0214C8.44772 16.0214 8 16.4691 8 17.0214C8 17.5737 8.44772 18.0214 9 18.0214Z" stroke="#707070" stroke-width="0.5" stroke-miterlimit="10"/>
<path d="M12.335 5.46542C11.479 5.75042 10.335 4.84542 9.90796 4.46542C9.90025 4.45884 9.89051 4.45512 9.88037 4.4549C9.87023 4.45467 9.86035 4.45794 9.85236 4.46417C9.84436 4.47041 9.83874 4.47922 9.83649 4.48911C9.83423 4.49899 9.83546 4.50935 9.83997 4.51843L10.271 5.37943C9.71369 5.36944 9.16408 5.24734 8.65497 5.02042C8.21261 4.7782 7.82006 4.4545 7.49799 4.06641C7.48522 4.05108 7.46923 4.03877 7.45117 4.0303C7.43311 4.02184 7.41344 4.01746 7.39349 4.01746C7.37355 4.01746 7.35381 4.02184 7.33575 4.0303C7.3177 4.03877 7.3017 4.05108 7.28894 4.06641C6.99581 4.43608 6.75989 4.84767 6.58899 5.28741C6.44917 5.61176 6.33351 5.94601 6.24298 6.28741C6.24181 6.29327 6.23883 6.29862 6.2345 6.30273C6.23017 6.30685 6.22472 6.30955 6.21881 6.31042C6.2129 6.3113 6.20681 6.31033 6.20148 6.30765C6.19614 6.30496 6.19179 6.30068 6.18896 6.29541L5.68896 5.46741" stroke="#707070" stroke-width="0.5" stroke-miterlimit="10"/>
</svg>
