<svg xmlns="http://www.w3.org/2000/svg" width="20.588" height="25" viewBox="0 0 20.588 25"><defs><style>.a{fill:#055ca8;}</style></defs><g transform="translate(-46.973)"><g transform="translate(46.973)"><path class="a" d="M246.44,1.691a.44.44,0,0,0,.44-.44V.44a.44.44,0,0,0-.881,0v.81A.44.44,0,0,0,246.44,1.691Z" transform="translate(-236.146)"/><path class="a" d="M337.755,28.564a.44.44,0,0,0,.6-.166l.425-.752a.44.44,0,1,0-.766-.434l-.425.752A.44.44,0,0,0,337.755,28.564Z" transform="translate(-323.106 -25.8)"/><path class="a" d="M400.219,99.891a.438.438,0,0,0,.212-.055l.813-.449a.44.44,0,0,0-.426-.771l-.813.449a.44.44,0,0,0,.213.826Z" transform="translate(-382.063 -93.72)"/><path class="a" d="M426.8,199.147h-.86a.44.44,0,1,0,0,.881h.86a.44.44,0,0,0,0-.881Z" transform="translate(-406.655 -189.384)"/><path class="a" d="M145.292,28.4a.44.44,0,1,0,.767-.434l-.425-.752a.44.44,0,1,0-.767.434Z" transform="translate(-139.953 -25.801)"/><path class="a" d="M73.989,99.388l.813.449a.44.44,0,1,0,.426-.771l-.813-.449a.44.44,0,0,0-.426.771Z" transform="translate(-72.582 -93.72)"/><path class="a" d="M48.273,200.028a.44.44,0,1,0,0-.881h-.86a.44.44,0,1,0,0,.881Z" transform="translate(-46.973 -189.384)"/><path class="a" d="M73.392,86.35H72.181V83.306a.5.5,0,0,0-.494-.5H70.658V74.332a6.761,6.761,0,1,0-13.521,0V82.81H56.109a.5.5,0,0,0-.494.5V86.35H54.4a.5.5,0,0,0-.494.5v2.239a.5.5,0,0,0,.494.5H73.392a.5.5,0,0,0,.494-.5V86.845A.5.5,0,0,0,73.392,86.35ZM58.126,74.332a5.772,5.772,0,1,1,11.544,0V82.81H65.385V78.133a2.636,2.636,0,1,0-2.975,0V82.81H58.126Zm5.008,3.083a1.647,1.647,0,1,1,1.528,0,.5.5,0,0,0-.265.439V82.81h-1V77.853A.5.5,0,0,0,63.134,77.415ZM72.9,88.589h-18V87.341h6.766a.5.5,0,0,0,0-.991H56.6V83.8h14.59V86.35h-5.06a.5.5,0,0,0,0,.991H72.9Z" transform="translate(-53.604 -64.58)"/><path class="a" d="M247.044,447.088a.44.44,0,1,0-.175.542A.445.445,0,0,0,247.044,447.088Z" transform="translate(-236.334 -424.686)"/></g></g></svg>