<svg width="139" height="133" viewBox="0 0 139 133" fill="none" xmlns="http://www.w3.org/2000/svg">
<path d="M119.499 75.9192C119.499 75.9192 101.028 96.5714 101.028 107.021C101.028 117.47 109.122 128.66 119.499 128.66C127.532 128.66 138.929 127.432 138.929 116.376C138.929 104.015 131.807 97.171 119.499 75.9192Z" fill="#7E8B96"/>
<path d="M20.4011 75.9192C8.09302 97.171 0.970215 104.015 0.970215 116.376C0.970215 127.432 12.3678 128.66 20.4011 128.66C30.7772 128.66 38.8715 117.47 38.8715 107.021C38.8715 96.5712 20.4011 75.9192 20.4011 75.9192Z" fill="#7E8B96"/>
<path d="M119.499 99.375C119.499 99.375 108.782 103.467 108.782 117.943C108.782 124.626 112.92 128.66 119.499 128.66C127.532 128.66 138.929 127.432 138.929 116.376C138.929 104.015 119.499 99.375 119.499 99.375Z" fill="#ABABAB"/>
<path d="M20.4011 99.375C20.4011 99.375 0.970215 104.015 0.970215 116.376C0.970215 127.432 12.3678 128.66 20.4011 128.66C26.9798 128.66 31.1178 124.626 31.1178 117.943C31.1178 103.467 20.4011 99.375 20.4011 99.375Z" fill="#ABABAB"/>
<path d="M20.4011 128.66C20.4011 130.95 22.2748 132.824 24.5649 132.824H115.335C117.625 132.824 119.499 130.95 119.499 128.66L68.3163 125.884L20.4011 128.66Z" fill="#B8C9D9"/>
<path d="M119.499 128.66V126.576C119.499 125.432 118.563 124.497 117.419 124.497L69.9499 120.333L22.4802 124.497C21.3369 124.497 20.4011 125.432 20.4011 126.576V128.66H119.499Z" fill="#F5F8FC"/>
<path d="M69.9498 66.2037C46.4662 66.2037 32.1923 60.652 32.1923 60.652C32.1923 60.652 35.5208 41.1581 43.7542 29.6903C48.64 22.8854 56.5164 16.9714 69.9496 16.9714C83.3827 16.9714 91.2591 22.8854 96.1449 29.6903C104.378 41.1579 107.707 60.652 107.707 60.652C107.707 60.652 93.4334 66.2037 69.9498 66.2037Z" fill="#707070"/>
<path d="M91.0584 60.652L67.1917 65.2591L48.8409 60.652L46.9195 48.405C46.9195 48.405 32.192 18.4346 69.9495 18.4346C107.707 18.4346 92.9796 48.405 92.9796 48.405L91.0584 60.652Z" fill="#B8C9D9"/>
<path d="M53.9213 34.7876C46.2625 34.7876 42.7849 36.7276 42.7849 39.884C42.7849 47.6533 47.0547 52.3245 54.7135 52.3245C62.3723 52.3245 66.3646 48.4453 66.3646 40.676C66.3646 37.5196 61.5801 34.7876 53.9213 34.7876Z" fill="#E7B0B0"/>
<path d="M85.9784 34.7876C93.6372 34.7876 97.1147 36.7276 97.1147 39.884C97.1147 47.6533 92.8449 52.3245 85.1861 52.3245C77.5273 52.3245 73.5351 48.4453 73.5351 40.676C73.5354 37.5196 78.3195 34.7876 85.9784 34.7876Z" fill="#E7B0B0"/>
<path d="M85.1861 54.4065C76.619 54.4065 71.7755 49.8433 71.4687 41.5294C70.6585 41.3393 69.2411 41.3393 68.4309 41.5294C68.1241 49.8433 63.2806 54.4065 54.7135 54.4065C50.3943 54.4065 46.816 53.038 44.3652 50.449C41.9693 47.918 40.703 44.2647 40.703 39.8839C40.703 37.4709 42.0793 35.4795 44.5778 34.2761C46.7729 33.2194 49.8291 32.7056 53.9213 32.7056C60.3712 32.7056 65.3541 34.5698 67.4141 37.4997C68.1186 37.3243 68.9583 37.2241 69.9498 37.2241C70.9413 37.2241 71.781 37.3243 72.4855 37.4997C74.5455 34.5698 79.5284 32.7056 85.9783 32.7056C90.0705 32.7056 93.1267 33.2194 95.3218 34.2761C97.8206 35.4792 99.1966 37.4709 99.1966 39.8839C99.1966 44.2647 97.9303 47.9177 95.5344 50.449C93.0836 53.038 89.5053 54.4065 85.1861 54.4065ZM85.9783 36.8696C79.3069 36.8696 75.6172 39.1203 75.6172 40.6761C75.6172 47.2029 78.6579 50.2428 85.1864 50.2428C93.3246 50.2428 95.0331 44.6098 95.0331 39.8842C95.0328 37.9963 91.648 36.8696 85.9783 36.8696ZM53.9213 36.8696C48.2516 36.8696 44.8668 37.9966 44.8668 39.8842C44.8668 44.6098 46.575 50.2428 54.7135 50.2428C61.242 50.2428 64.2826 47.2029 64.2826 40.6761C64.2824 39.1203 60.593 36.8696 53.9213 36.8696Z" fill="#7E8B96"/>
<path d="M69.9498 25.299C83.383 25.299 91.6464 31.2129 96.6209 38.0179C105.004 49.4854 107.707 60.6521 107.707 60.6521C101.25 29.0644 99.2952 0 69.9498 0C40.6045 0 38.65 29.0644 32.1923 60.6521C32.1923 60.6521 34.8957 49.4857 43.2787 38.0179C48.2533 31.2129 56.5167 25.299 69.9498 25.299Z" fill="#ABABAB"/>
<path d="M115.335 124.496H24.5649C22.2748 124.496 20.4011 122.623 20.4011 120.333V64.8159C20.4011 62.5258 22.2748 60.6521 24.5649 60.6521H24.8361L119.499 119.879V120.333C119.499 122.623 117.625 124.496 115.335 124.496Z" fill="#B8C9D9"/>
<path d="M115.335 60.6521H74.2166C72.1672 62.1955 69.843 60.6521 69.843 60.6521H24.8361V115.715C24.8361 118.005 26.7098 119.879 28.9998 119.879H119.499V64.8159C119.499 62.5258 117.625 60.6521 115.335 60.6521Z" fill="#F5F8FC"/>
<path d="M69.8432 60.6521L60.1894 90.6881C59.986 91.3215 60.0973 92.0138 60.4892 92.5515C60.8812 93.0892 61.5063 93.407 62.1717 93.407H72.9172L65.8879 115.276C65.536 116.371 66.1383 117.543 67.2328 117.895C68.3268 118.247 69.4999 117.645 69.8518 116.551L77.7549 91.9622C77.9584 91.3287 77.8471 90.6364 77.4551 90.0988C77.0632 89.5611 76.4381 89.2432 75.7727 89.2432H65.0272L74.2166 60.6521H69.8432Z" fill="#B8C9D9"/>
</svg>
