<svg xmlns="http://www.w3.org/2000/svg" xmlns:xlink="http://www.w3.org/1999/xlink" width="823.063" height="317.166" viewBox="0 0 823.063 317.166">
  <defs>
    <linearGradient id="linear-gradient" x1="0.989" y1="0.5" x2="-0.022" y2="1" gradientUnits="objectBoundingBox">
      <stop offset="0" stop-color="#2592d1"/>
      <stop offset="0.1" stop-color="#2592d1"/>
      <stop offset="0.2" stop-color="#2089cb"/>
      <stop offset="0.3" stop-color="#1c7fc5"/>
      <stop offset="0.4" stop-color="#1775bf"/>
      <stop offset="0.5" stop-color="#136cba"/>
      <stop offset="0.6" stop-color="#1062b3"/>
      <stop offset="0.7" stop-color="#0e58ac"/>
      <stop offset="0.8" stop-color="#0d4ea4"/>
      <stop offset="0.9" stop-color="#0c449d"/>
      <stop offset="1" stop-color="#0b3a96"/>
    </linearGradient>
    <linearGradient id="linear-gradient-2" x1="0.5" y1="0" x2="0.5" xlink:href="#linear-gradient"/>
    <linearGradient id="linear-gradient-3" x1="0.995" y1="-0.023" x2="0.439" y2="0.956" xlink:href="#linear-gradient"/>
  </defs>
  <g id="plane" transform="translate(-549 -667.901)">
    <g id="clouds">
      <g id="Group_354" data-name="Group 354" transform="translate(1 20)" opacity="0.05">
        <path id="Union_1" data-name="Union 1" d="M-658-1198v-240c.363-.088.732-.172,1.1-.252q-.1-1.61-.1-3.248a51.5,51.5,0,0,1,51.5-51.5,51.473,51.473,0,0,1,44.424,25.431A68.314,68.314,0,0,1-530-1475c35.924,0,65.435,27.649,68.7,62.973A54.421,54.421,0,0,1-443.5-1415a54.253,54.253,0,0,1,31.295,9.875A75.562,75.562,0,0,1-391.5-1408a75.514,75.514,0,0,1,74.731,64.681,54.515,54.515,0,0,1,16.891,10.456A67.049,67.049,0,0,1-237-1377a66.519,66.519,0,0,1,46.3,18.707A67.368,67.368,0,0,1-138.5-1383a67.2,67.2,0,0,1,33.279,8.761A41.461,41.461,0,0,1-70.5-1393a41.42,41.42,0,0,1,32.179,15.292,41.5,41.5,0,0,1,16.327-18.447c0-.282-.006-.562-.006-.845,0-30.928,24.624-56,55-56a54.413,54.413,0,0,1,40.491,18.1A67.668,67.668,0,0,1,107.5-1444q2.319,0,4.588.167C113.515-1466.812,132.182-1485,155-1485c3.3,0,10,1.484,10,1.484l.063,85.141-.063.015V-1198Z" transform="translate(1206 2163)" fill="url(#linear-gradient)"/>
      </g>
      <g id="Group_353" data-name="Group 353" transform="translate(0 134)" opacity="0.3">
        <path id="Union_2" data-name="Union 2" d="M-155-1410H-321.5c-1.375.02-2.751.019-4.118,0H-657v-96.085h0c0-.139,0-.276,0-.415a51.5,51.5,0,0,1,51.5-51.5,51.27,51.27,0,0,1,25.543,6.771A68.825,68.825,0,0,1-522-1583a69.039,69.039,0,0,1,64.3,44.245q2.565-.243,5.2-.245a54.332,54.332,0,0,1,38.868,16.3A75.488,75.488,0,0,1-391.5-1526a75.537,75.537,0,0,1,72.41,54.052,54.256,54.256,0,0,1,18.508,4.106A67.077,67.077,0,0,1-237-1514a66.669,66.669,0,0,1,51.659,24.514A67.2,67.2,0,0,1-152.5-1498a67.328,67.328,0,0,1,49.965,22.115A41.42,41.42,0,0,1-70.5-1491a41.42,41.42,0,0,1,32.179,15.292A41.364,41.364,0,0,1-16.2-1497.054,54.912,54.912,0,0,1,33-1528a54.6,54.6,0,0,1,44,22.394A74.836,74.836,0,0,1,107.5-1512a70.517,70.517,0,0,1,58.5,31.23V-1410H-138.545c-2.551.047-5.132.067-7.728.067Q-150.621-1409.933-155-1410Zm-112.072-10.323,3.013-.351c-1.035-.172-2.053-.354-3.066-.547C-267.105-1420.922-267.088-1420.625-267.072-1420.323Z" transform="translate(1206 2261)" opacity="0.2" fill="url(#linear-gradient-2)"/>
      </g>
    </g>
    <g id="plane-2" data-name="plane">
      <path id="send" d="M101.393,0,0,57.034l32.4,12L82.382,22.18,44.367,73.466l.031.012-.038-.012v27.927l18.172-21.2,23.02,8.526Z" transform="translate(1126.728 667.901) rotate(13)" fill="url(#linear-gradient-3)"/>
      <path id="Path_589" data-name="Path 589" d="M-10309,6464s225.05,14.02,332.9-62.578c17.613-12.509,32.145-27.514,42-45.422,22.221-63-98.142-33-50.923,4,97.217,48,247.021-6,273.021-89" transform="translate(10859 -5485)" fill="none" stroke="#0b3a96" stroke-width="1" stroke-dasharray="5"/>
    </g>
  </g>
</svg>
