<svg width="202" height="202" viewBox="0 0 202 202" fill="none" xmlns="http://www.w3.org/2000/svg">
<path d="M162.212 61.2123C150.38 61.2123 140.788 51.6205 140.788 39.7881C140.788 17.8135 122.974 0 101 0C79.0258 0 61.2123 17.8135 61.2123 39.7877C61.2123 51.6201 51.6205 61.2119 39.7881 61.2119C17.8135 61.2123 0 79.0258 0 101C0 122.974 17.8135 140.788 39.7877 140.788C51.6201 140.788 61.2119 150.38 61.2119 162.212C61.2123 184.187 79.0258 202 101 202C122.974 202 140.788 184.187 140.788 162.212C140.788 150.38 150.38 140.788 162.212 140.788C184.187 140.788 202 122.974 202 101C202 79.0258 184.187 61.2123 162.212 61.2123Z" fill="url(#paint0_linear)" fill-opacity="0.4"/>
<path d="M178.345 149.384H23.6543V50.8563C23.6543 47.1063 26.6942 44.0664 30.4442 44.0664H171.556C175.306 44.0664 178.346 47.1063 178.346 50.8563V149.384H178.345Z" fill="#75A1C7"/>
<path d="M167.214 130.581H34.7871C33.6978 130.581 32.8145 129.697 32.8145 128.608V55.8438C32.8145 54.7544 33.6978 53.8711 34.7871 53.8711H167.214C168.303 53.8711 169.187 54.7544 169.187 55.8438V128.608C169.187 129.697 168.304 130.581 167.214 130.581Z" fill="white"/>
<path d="M156.91 130.58C161.213 126.241 163.872 120.27 163.872 113.677C163.872 102.924 156.803 93.8207 147.057 90.7651V69.5713H150.954C151.506 69.5713 151.954 69.1235 151.954 68.5719V61.971C151.954 61.4195 151.506 60.9717 150.954 60.9717H128.772C128.22 60.9717 127.772 61.4195 127.772 61.971V68.5719C127.772 69.1235 128.22 69.5713 128.772 69.5713H132.668V90.7647C122.922 93.8204 115.854 102.923 115.854 113.677C115.854 120.257 118.535 126.234 122.855 130.58H156.91V130.58Z" fill="#C8D9E9"/>
<path d="M150.197 124.284C154.427 124.284 157.856 120.855 157.856 116.625C157.856 112.395 154.427 108.966 150.197 108.966C145.967 108.966 142.538 112.395 142.538 116.625C142.538 120.855 145.967 124.284 150.197 124.284Z" fill="#FFD9D9"/>
<path d="M151.953 61.971V68.5719C151.953 69.1235 151.505 69.5713 150.953 69.5713H128.771C128.219 69.5713 127.771 69.1235 127.771 68.5719V61.971C127.771 61.4195 128.219 60.9717 128.771 60.9717H150.953C151.505 60.9717 151.953 61.4195 151.953 61.971Z" fill="#75A1C7"/>
<path d="M132.668 69.5693H147.057V74.0129H132.668V69.5693Z" fill="#75A1C7"/>
<path d="M156.903 130.58C160.07 127.388 162.351 123.316 163.333 118.759H116.4C117.391 123.31 119.684 127.385 122.861 130.58H156.903Z" fill="#E96867"/>
<path d="M146.935 125.185C148.193 125.185 149.212 124.165 149.212 122.908C149.212 121.65 148.193 120.631 146.935 120.631C145.678 120.631 144.658 121.65 144.658 122.908C144.658 124.165 145.678 125.185 146.935 125.185Z" fill="#FFD9D9"/>
<path d="M45.0898 130.583C40.7871 126.244 38.1279 120.273 38.1279 113.68C38.1279 102.927 45.1964 93.8237 54.9429 90.768V69.5742H51.0461C50.4945 69.5742 50.0467 69.1264 50.0467 68.5749V61.974C50.0467 61.4224 50.4945 60.9746 51.0461 60.9746H73.2286C73.7801 60.9746 74.2279 61.4224 74.2279 61.974V68.5749C74.2279 69.1264 73.7801 69.5742 73.2286 69.5742H69.3318V90.7676C79.0783 93.8233 86.1467 102.926 86.1467 113.68C86.1467 120.26 83.4655 126.237 79.1454 130.583L45.0898 130.583Z" fill="#C8D9E9"/>
<path d="M56.5405 124.285C61.6542 124.285 65.7998 120.14 65.7998 115.026C65.7998 109.912 61.6542 105.767 56.5405 105.767C51.4268 105.767 47.2812 109.912 47.2812 115.026C47.2812 120.14 51.4268 124.285 56.5405 124.285Z" fill="#F5F8FC"/>
<path d="M50.0449 61.973V68.5739C50.0449 69.1254 50.4927 69.5732 51.0443 69.5732H73.2268C73.7783 69.5732 74.2261 69.1254 74.2261 68.5739V61.973C74.2261 61.4214 73.7783 60.9736 73.2268 60.9736H51.0443C50.4923 60.9736 50.0449 61.4214 50.0449 61.973Z" fill="#75A1C7"/>
<path d="M54.9404 69.5713H69.329V74.0149H54.9404V69.5713Z" fill="#75A1C7"/>
<path d="M45.0961 130.582C41.9292 127.39 39.6484 123.318 38.666 118.761H85.5987C84.6084 123.312 82.3146 127.387 79.1378 130.582H45.0961Z" fill="#75A1C7" fill-opacity="0.5"/>
<path d="M56.5425 101.279C57.7999 101.279 58.8193 100.26 58.8193 99.0024C58.8193 97.745 57.7999 96.7256 56.5425 96.7256C55.285 96.7256 54.2656 97.745 54.2656 99.0024C54.2656 100.26 55.285 101.279 56.5425 101.279Z" fill="#F5F8FC"/>
<path d="M153.354 23.749H152.17V22.5654C152.17 21.4757 151.287 20.5928 150.197 20.5928C149.108 20.5928 148.225 21.4757 148.225 22.5654V23.749H147.041C145.952 23.749 145.068 24.632 145.068 25.7217C145.068 26.8114 145.952 27.6943 147.041 27.6943H148.225V28.8779C148.225 29.9676 149.108 30.8506 150.197 30.8506C151.287 30.8506 152.17 29.9676 152.17 28.8779V27.6943H153.354C154.443 27.6943 155.326 26.8114 155.326 25.7217C155.326 24.632 154.443 23.749 153.354 23.749Z" fill="#75A1C7"/>
<path d="M53.2031 182.273H52.0195V181.09C52.0195 180 51.1362 179.117 50.0469 179.117C48.9576 179.117 48.0742 180 48.0742 181.09V182.273H46.8906C45.8013 182.273 44.918 183.156 44.918 184.246C44.918 185.336 45.8013 186.219 46.8906 186.219H48.0742V187.402C48.0742 188.492 48.9576 189.375 50.0469 189.375C51.1362 189.375 52.0195 188.492 52.0195 187.402V186.219H53.2031C54.2924 186.219 55.1758 185.336 55.1758 184.246C55.1758 183.156 54.2924 182.273 53.2031 182.273Z" fill="#75A1C7"/>
<path d="M172.342 33.6112C171.837 33.6112 171.332 33.4187 170.947 33.0332L169.185 31.2721L167.424 33.0332C166.654 33.8038 165.405 33.8038 164.635 33.0332C163.864 32.2631 163.864 31.014 164.635 30.2439L167.791 27.0877C168.561 26.3171 169.81 26.3171 170.581 27.0877L173.737 30.2439C174.507 31.014 174.507 32.2631 173.737 33.0332C173.351 33.4187 172.847 33.6112 172.342 33.6112Z" fill="#E96867"/>
<path d="M38.9276 179.906C38.4226 179.906 37.918 179.714 37.5326 179.328L35.7714 177.567L34.0102 179.328C33.2397 180.099 31.991 180.099 31.2205 179.328C30.4499 178.558 30.4499 177.309 31.2205 176.539L34.3767 173.383C35.1472 172.612 36.3959 172.612 37.1664 173.383L40.3227 176.539C41.0932 177.309 41.0932 178.558 40.3227 179.328C39.9372 179.714 39.4322 179.906 38.9276 179.906Z" fill="#E96867"/>
<path d="M155.111 183.062C154.606 183.062 154.102 182.87 153.716 182.484L151.955 180.723L150.194 182.484C149.423 183.255 148.175 183.255 147.404 182.484C146.634 181.714 146.634 180.465 147.404 179.695L150.56 176.539C151.331 175.768 152.58 175.768 153.35 176.539L156.506 179.695C157.277 180.465 157.277 181.714 156.506 182.484C156.121 182.87 155.616 183.062 155.111 183.062Z" fill="#FFC101"/>
<path opacity="0.1" d="M190.161 154.637V164.583C190.161 166.761 188.398 168.528 186.216 168.528H15.7861C13.6044 168.528 11.8408 166.761 11.8408 164.583V154.637C11.8408 152.459 13.6044 150.691 15.7861 150.691H69.4444C70.0168 150.691 70.5613 150.94 70.9357 151.373L76.0153 157.241H125.987L131.066 151.373C131.441 150.94 131.985 150.691 132.558 150.691H186.216C188.398 150.691 190.161 152.459 190.161 154.637Z" fill="#2626BC"/>
<path opacity="0.1" d="M122.18 27.4009V38.9646C122.18 39.9308 121.396 40.7152 120.43 40.7152H81.5689C80.6027 40.7152 79.8184 39.9308 79.8184 38.9646V27.4009C79.8184 26.4347 80.6027 25.6504 81.5689 25.6504H120.43C121.396 25.6504 122.18 26.4347 122.18 27.4009Z" fill="#75A1C7"/>
<path d="M130.863 149.384C138.4 141.782 143.059 131.322 143.059 119.771C143.059 100.932 130.676 84.9855 113.602 79.6325V30.0628H120.429C121.395 30.0628 122.18 29.2785 122.18 28.3123V16.7486C122.18 15.7824 121.395 14.998 120.429 14.998H81.5678C80.6016 14.998 79.8173 15.7824 79.8173 16.7486V28.3123C79.8173 29.2785 80.6016 30.0628 81.5678 30.0628H88.3948V79.6325C71.3203 84.9855 58.9375 100.932 58.9375 119.771C58.9375 131.299 63.6352 141.771 71.2027 149.384H130.863Z" fill="#CFDEED"/>
<path opacity="0.5" d="M90.0393 138.351C97.4494 138.351 103.457 132.344 103.457 124.934C103.457 117.524 97.4494 111.517 90.0393 111.517C82.6292 111.517 76.6221 117.524 76.6221 124.934C76.6221 132.344 82.6292 138.351 90.0393 138.351Z" fill="#FFC101"/>
<path d="M122.18 16.7486V28.3123C122.18 29.2785 121.396 30.0628 120.43 30.0628H81.5689C80.6027 30.0628 79.8184 29.2785 79.8184 28.3123V16.7486C79.8184 15.7824 80.6027 14.998 81.5689 14.998H120.43C121.396 14.998 122.18 15.7824 122.18 16.7486Z" fill="#75A1C7"/>
<path d="M88.3955 30.0605H113.603V37.8454H88.3955V30.0605Z" fill="#75A1C7"/>
<path d="M130.85 149.384C136.398 143.792 140.394 136.659 142.115 128.675H59.8945C61.6293 136.648 65.648 143.787 71.2132 149.384H130.85Z" fill="#FFC101"/>
<g opacity="0.5">
<path d="M113.388 139.933C115.591 139.933 117.377 138.147 117.377 135.944C117.377 133.741 115.591 131.955 113.388 131.955C111.185 131.955 109.399 133.741 109.399 135.944C109.399 138.147 111.185 139.933 113.388 139.933Z" fill="white"/>
<path d="M125.508 122.261C126.927 122.261 128.078 121.111 128.078 119.692C128.078 118.273 126.927 117.122 125.508 117.122C124.089 117.122 122.938 118.273 122.938 119.692C122.938 121.111 124.089 122.261 125.508 122.261Z" fill="#FFC101"/>
<path d="M114.539 116.656C115.958 116.656 117.109 115.505 117.109 114.086C117.109 112.667 115.958 111.517 114.539 111.517C113.12 111.517 111.97 112.667 111.97 114.086C111.97 115.505 113.12 116.656 114.539 116.656Z" fill="#FFC101"/>
<path d="M119.439 108.017C122.791 108.017 125.508 105.301 125.508 101.949C125.508 98.5977 122.791 95.8809 119.439 95.8809C116.088 95.8809 113.371 98.5977 113.371 101.949C113.371 105.301 116.088 108.017 119.439 108.017Z" fill="#FFC101"/>
</g>
<path d="M190.161 143.983V153.93C190.161 156.107 188.398 157.875 186.216 157.875H15.7861C13.6044 157.875 11.8408 156.107 11.8408 153.93V143.983C11.8408 141.806 13.6044 140.038 15.7861 140.038H69.4444C70.0168 140.038 70.5613 140.287 70.9357 140.72L76.0153 146.587H125.987L131.066 140.72C131.441 140.287 131.985 140.038 132.558 140.038H186.216C188.398 140.038 190.161 141.806 190.161 143.983Z" fill="#CFDEED"/>
<path d="M186.216 138.066H180.319V50.8544C180.319 46.0226 176.388 42.0919 171.557 42.0919H125.677C124.588 42.0919 123.705 42.9749 123.705 44.0646C123.705 45.1542 124.588 46.0372 125.677 46.0372H171.557C174.213 46.0372 176.374 48.1984 176.374 50.8544V138.066H141.058C143.663 132.36 145.036 126.08 145.036 119.77C145.036 110.206 142.021 101.109 136.317 93.4642C131.096 86.466 123.773 81.0893 115.577 78.2077V32.0333H120.432C122.485 32.0333 124.155 30.3633 124.155 28.3101V16.7476C124.155 14.6949 122.485 13.0244 120.432 13.0244H81.5703C79.5171 13.0244 77.8471 14.6945 77.8471 16.7476V28.3105C77.8471 30.3633 79.5171 32.0337 81.5703 32.0337H86.4246V42.0923H30.4453C25.6139 42.0923 21.6832 46.023 21.6832 50.8548V138.066H15.7861C12.523 138.066 9.86816 140.721 9.86816 143.984V153.93C9.86816 157.193 12.523 159.848 15.7861 159.848H186.216C189.479 159.848 192.134 157.193 192.134 153.93V143.984C192.134 140.721 189.479 138.066 186.216 138.066ZM81.7924 28.088V16.9701H120.209V28.0884H113.604H88.3969L81.7924 28.088ZM25.6281 50.8544C25.6281 48.1984 27.789 46.0372 30.4449 46.0372H88.3972C89.4865 46.0372 90.3699 45.1542 90.3699 44.0646V32.0333H111.632V79.6304C111.632 80.4924 112.192 81.2546 113.014 81.5127C120.982 84.012 128.134 89.0944 133.155 95.8235C138.347 102.782 141.091 111.063 141.091 119.77C141.091 126.218 139.606 132.373 136.678 138.066H132.558C131.411 138.066 130.324 138.563 129.574 139.429L125.085 144.615H76.9168L72.4278 139.429C71.6782 138.563 70.5909 138.066 69.4444 138.066H65.3649C62.4517 132.431 60.911 126.124 60.911 119.77C60.911 111.063 63.6554 102.781 68.8466 95.8235C73.8674 89.094 81.0203 84.012 88.9875 81.5127C89.8097 81.255 90.3695 80.4924 90.3695 79.6304V56.1376C90.3695 55.0479 89.4862 54.1649 88.3969 54.1649C87.3075 54.1649 86.4242 55.0479 86.4242 56.1376V78.2077C78.2282 81.0893 70.9053 86.466 65.6841 93.4642C59.9803 101.109 56.9653 110.206 56.9653 119.77C56.9653 126.079 58.3458 132.348 60.9734 138.066H25.6281V50.8544ZM188.188 153.93C188.188 155.018 187.303 155.903 186.216 155.903H15.7861C14.6984 155.903 13.8135 155.018 13.8135 153.93V143.984C13.8135 142.896 14.6984 142.011 15.7861 142.011H69.4444L74.5239 147.879C74.8988 148.312 75.4428 148.56 76.0153 148.56H125.987C126.559 148.56 127.104 148.312 127.478 147.879L132.558 142.011H186.216C187.303 142.011 188.188 142.896 188.188 143.984V153.93Z" fill="#5085B4"/>
<defs>
<linearGradient id="paint0_linear" x1="172.444" y1="29.5563" x2="-1.57812" y2="203.578" gradientUnits="userSpaceOnUse">
<stop stop-color="#E7B0B0"/>
<stop offset="0.9981" stop-color="#E7B0B0"/>
</linearGradient>
</defs>
</svg>